<svg class="favicon" xmlns="http://www.w3.org/2000/svg" viewBox="0 0 16 16">

  <style>
    .favicon {
      background-color: #fff;
    }
    path { fill: #8a6cbd; }
    @media (prefers-color-scheme: dark) {
      path { fill: #ff6393; }
    }
  </style>

  <path d="M7.13,6.87c-.45,0-.38.28-.38,1.13s-.07,1.2.38,1.2a1.17,1.17,0,0,0,.11-2.33ZM0,0V16H16V0ZM7,11.46H4.44V4.62H7.08C9.52,4.62,10.94,6,10.94,8V8h0C10.94,10,9.5,11.46,7,11.46Zm4.54.15a.79.79,0,0,1-.84-.75.81.81,0,0,1,.75-.85h.09a.8.8,0,0,1,.85.74v.07a.77.77,0,0,1-.77.79Z"/>
</svg>
