<?xml version="1.0" encoding="UTF-8"?>
<svg width="804px" height="16px" viewBox="0 0 804 16" version="1.1" xmlns="http://www.w3.org/2000/svg" xmlns:xlink="http://www.w3.org/1999/xlink">
    <!-- Generator: Sketch 57.1 (83088) - https://sketch.com -->
    <title>wavy-line</title>
    <desc>Created with Sketch.</desc>
    <defs>
        <polygon id="path-1" points="0 0 804 0 804 14 0 14"></polygon>
    </defs>
    <g id="wavy-line" stroke="none" stroke-width="1" fill="none" fill-rule="evenodd">
        <g id="Group-3" transform="translate(402.000000, 8.000000) scale(1, -1) translate(-402.000000, -8.000000) translate(0.000000, 1.000000)">
            <mask id="mask-2" fill="white">
                <use xlink:href="#path-1"></use>
            </mask>
            <g id="Clip-2"></g>
            <path d="M0,2.21312036 C0.694223615,2.40660645 1.36016301,2.59276992 2.00761964,2.77330061 C2.64779519,2.95777425 3.26920794,3.08873645 3.86429676,3.30588022 C5.05727482,3.70608944 6.20516614,4.00603512 7.33569488,4.43694301 C7.62021735,4.53101048 7.90614002,4.62592287 8.19570324,4.72224346 C8.33936468,4.767869 8.48442633,4.81377618 8.63032811,4.859965 C8.77258934,4.91629282 8.91597074,4.97262065 9.06047231,5.02923012 C9.63679833,5.25482307 10.2302069,5.46295439 10.8446186,5.68066145 C11.4478286,5.93807962 12.0751223,6.19070993 12.7379812,6.44165041 C13.3910387,6.74244101 14.0785413,7.02576998 14.8102905,7.35218974 C15.2065496,7.53835322 15.7013835,7.77070551 16.2824702,8.04361383 C16.8719582,8.33595526 17.5479791,8.67138748 18.2968109,9.04258786 C19.0714065,9.4228007 19.8910888,9.84920236 20.8412706,10.2806735 C21.17172,10.4338852 21.5030094,10.5882235 21.8362591,10.7428433 C22.5139603,11.0315235 23.2059436,11.308938 23.8951264,11.5925486 C24.6005517,11.8479953 25.3216594,12.0817558 26.0388464,12.3267819 C26.2175131,12.3918405 26.4001003,12.4430988 26.585488,12.4881611 L27.1380104,12.6323603 C27.5071055,12.727836 27.8767607,12.8235933 28.247256,12.9196323 L28.8036991,13.0624233 L29.3668631,13.16494 C29.7429592,13.2322517 30.1198955,13.2998451 30.4971118,13.3671569 C30.8746082,13.434187 31.2532247,13.5009354 31.6318412,13.5679656 C32.0112978,13.6071134 32.3913145,13.6465429 32.7718913,13.6856907 C33.1533083,13.7245569 33.5344451,13.7634231 33.9167022,13.8022893 C34.2986792,13.8332696 34.6837367,13.8974834 35.0640334,13.8974834 C35.8274274,13.9222676 36.5930617,13.9470518 37.3617764,13.9718361 C37.7459937,13.9774689 38.1310512,14.0098574 38.5166688,13.9932407 C38.9022863,13.9811302 39.2884639,13.9690197 39.6752017,13.9569092 C40.4495172,13.9267738 41.2241129,13.9208594 42.0051494,13.8679112 C42.7881463,13.7882074 43.5736635,13.7082219 44.3614211,13.6279547 L44.9525893,13.5665574 L45.5445977,13.461506 C45.9388966,13.3913778 46.3343156,13.320968 46.7300146,13.2502766 C47.1251536,13.174234 47.5239331,13.120441 47.9171118,13.0241204 C48.3100104,12.9227303 48.7031891,12.8216218 49.0969279,12.7199501 C49.4906667,12.6174335 49.8846855,12.5146352 50.2795444,12.4118369 C50.665722,12.2817196 51.0524598,12.151039 51.4397576,12.0206401 C51.8262153,11.8882697 52.2135131,11.7558993 52.601371,11.6232473 C52.9774671,11.4691907 53.3538433,11.3151341 53.7310596,11.1610775 C54.1043553,11.0027963 54.4933333,10.858597 54.8554274,10.6876421 C55.2197618,10.518377 55.5840961,10.3491118 55.9492706,10.1790018 C56.6913814,9.84356957 57.3763636,9.48616951 58.0910303,9.13778189 C58.7832936,8.79474542 59.4777973,8.45114567 60.1739812,8.10641936 C60.8581233,7.79436319 61.5433856,7.45498803 62.2311682,7.16377316 L63.2642424,6.74046953 L63.7817597,6.52755034 C63.9551055,6.46136515 64.1312518,6.40785371 64.3059979,6.34730129 C67.0915737,5.35255185 70.0289321,4.77181195 73.0953898,4.55410489 C73.2838579,4.52903901 73.4770867,4.52227967 73.6705956,4.51861836 L74.2505622,4.50059345 L75.4121755,4.46369873 L76.5760293,4.42595908 L77.7429634,4.464262 L78.9121379,4.50143837 L79.4977053,4.51946328 L79.790629,4.52847573 L80.0793521,4.5577662 C80.8494671,4.63634352 81.6212623,4.71492084 82.3941776,4.79349816 C85.4673563,5.21173228 88.4181567,6.02961234 91.3095883,7.33782615 L92.4017513,7.84590316 L92.9483929,8.09994166 L93.5034357,8.37453982 C94.2522675,8.74545857 95.0027795,9.11694059 95.7546917,9.48926754 C96.5054838,9.87088857 97.3094838,10.2356113 98.101442,10.6048402 C98.4912602,10.7957915 98.912163,10.9563258 99.3227043,11.1272808 L100.561609,11.6345129 C103.935553,12.9047054 107.550892,13.6248567 111.119745,13.8679112 C112.011958,13.9264922 112.901931,13.9346597 113.795544,13.9690197 L114.464844,13.989861 C114.688318,13.9985918 114.911791,14.0053511 115.134984,13.9932407 L116.476665,13.9512764 C118.262211,13.9346597 120.070721,13.7392022 121.87615,13.50516 L123.230433,13.2637953 L123.907574,13.1424088 C124.133567,13.1021344 124.359841,13.0646764 124.582474,13.0007443 L125.924155,12.6537649 C126.369981,12.5329417 126.823929,12.4369028 127.257714,12.2755235 L128.57195,11.8305337 C128.789822,11.7539279 129.012736,11.6868977 129.225847,11.6015611 L129.862943,11.3410449 L131.137133,10.8177594 C131.552435,10.6332857 131.957655,10.4392364 132.368476,10.2496932 C133.200761,9.87314168 133.973116,9.47490394 134.769555,9.08427045 L135.931448,8.50888169 C136.316226,8.32131002 136.706324,8.1182482 137.08494,7.94813816 C137.846094,7.5958076 138.607808,7.22488885 139.371202,6.93057595 C139.753459,6.7776459 140.132355,6.60922569 140.517413,6.46784285 L141.677906,6.0760828 C144.773488,5.04669175 148.056978,4.58649339 151.42112,4.48144199 C153.101931,4.38202338 154.787223,4.48341347 156.468874,4.53861474 L158.958165,4.7923716 C159.167636,4.80645356 159.369546,4.84813615 159.572857,4.88474924 L160.183068,4.99430687 L161.40405,5.21145064 C161.609321,5.24102275 161.808991,5.2917178 162.00698,5.34607415 L162.603749,5.50153896 L163.798127,5.80965218 C164.191586,5.93075701 164.579164,6.07185821 164.970382,6.20113058 L165.55567,6.39884126 C165.751419,6.46164678 165.946048,6.53036673 166.137877,6.61457684 C166.907992,6.93930677 167.680067,7.22404394 168.450182,7.60256694 L169.607315,8.14331409 L170.78013,8.72349072 L173.176447,9.90834658 L174.425154,10.4890865 L175.049087,10.7791748 L175.696823,11.0458871 L176.993417,11.5770585 C177.430002,11.7466052 177.88311,11.885735 178.327536,12.0406365 L178.997116,12.2667927 C179.220869,12.3414271 179.442382,12.4228208 179.672577,12.4754873 L181.041981,12.8314792 C181.951277,13.0973466 182.879896,13.225774 183.802073,13.3975739 C184.725371,13.5907783 185.650349,13.6547104 186.575047,13.754129 C187.037396,13.7991913 187.500025,13.8512945 187.961534,13.8898791 L189.34102,13.9349414 L190.719946,13.9783138 L191.409129,13.9997184 L192.098591,13.9791587 L194.854483,13.8904424 C195.77666,13.8101752 196.700238,13.7076586 197.621856,13.6147177 C198.083365,13.5820475 198.543753,13.4823473 199.003862,13.4040516 L200.384188,13.1570541 C200.845977,13.0883341 201.299085,12.9604699 201.753873,12.8435897 L203.117396,12.4895693 C203.34591,12.4360579 203.568823,12.363395 203.790056,12.2859442 L204.456276,12.0609145 C204.899022,11.9085477 205.346529,11.7646301 205.784514,11.6040958 L207.072986,11.0763041 L207.715962,10.8115633 C207.927674,10.7208755 208.130704,10.6211752 208.338495,10.5265445 L209.5774,9.95031081 C209.985421,9.75626144 210.376359,9.55657929 210.776819,9.36055845 C211.558696,8.97330463 212.340013,8.58661409 213.120489,8.19992356 C213.507787,8.00756402 213.885843,7.84111529 214.2681,7.6605846 C214.649797,7.48962964 215.030374,7.28994749 215.412071,7.14490334 C216.176305,6.84129634 216.931298,6.49234545 217.707294,6.25633185 L218.863026,5.86400853 C219.252004,5.74628337 219.648543,5.6572854 220.040042,5.55167072 L221.218738,5.24862701 L222.422637,5.03542618 L223.624857,4.81912732 L224.85004,4.69323463 C225.668322,4.61662878 226.477363,4.4994669 227.310767,4.50003018 C228.138851,4.47524593 228.965814,4.45018005 229.791657,4.4253958 C230.618061,4.45186988 231.443064,4.47834396 232.267227,4.50509968 C235.551837,4.68253234 238.735072,5.20976081 241.741041,6.26590758 C242.501074,6.4962884 243.237584,6.83932487 243.983055,7.13448269 C244.354951,7.27642882 244.726006,7.46653524 245.096782,7.63439216 L246.210228,8.15542457 C246.966901,8.53000463 247.721893,8.90373977 248.475766,9.27691163 L249.628978,9.84751252 L250.819436,10.4034682 C251.601032,10.7856525 252.439758,11.1101008 253.26,11.4491943 C253.665781,11.6271902 254.094525,11.7643485 254.518508,11.9085477 L255.790178,12.3380474 C256.647106,12.5937758 257.518596,12.7974009 258.380564,13.0258102 C259.250654,13.2049327 260.124945,13.3454706 260.994474,13.5043151 L261.321003,13.5617695 L261.647532,13.5966928 L262.300589,13.6637229 L263.604744,13.7969382 C264.475674,13.9104388 265.335682,13.9067774 266.197091,13.9405741 C267.919068,14.0411193 269.634324,13.9388843 271.342859,13.8895975 C273.058115,13.7341327 274.770571,13.5933131 276.469024,13.2407009 L277.106119,13.1260737 C277.318391,13.0905872 277.530102,13.0503128 277.739014,12.9906053 L278.995841,12.6658754 L279.622855,12.5028063 C279.832046,12.4498582 280.040677,12.3955018 280.243147,12.3217124 L281.46609,11.9079845 C283.095933,11.35738 284.638403,10.6569434 286.129906,9.95425376 C286.855214,9.59657205 287.579402,9.23973526 288.30135,8.88374339 L289.354307,8.36242934 L289.879386,8.10219477 L290.397463,7.86139331 C291.086926,7.54032469 291.774428,7.2093987 292.461651,6.94437627 L293.489684,6.52191756 C293.834976,6.3977147 294.182508,6.2861856 294.528079,6.16761552 C294.873651,6.05073528 295.219223,5.93385504 295.563954,5.81725643 C295.916247,5.72656863 296.267699,5.63588083 296.618591,5.54547466 C296.969484,5.45422358 297.319816,5.3629725 297.669588,5.27172142 C298.024401,5.19652377 298.384535,5.14216741 298.740468,5.07598222 C300.155519,4.7729385 301.617898,4.67830775 303.055632,4.52115311 C303.786821,4.49834034 304.51577,4.47524593 305.242199,4.45243316 C305.605693,4.44229415 305.968627,4.42511416 306.330721,4.4203263 C306.692815,4.4318735 307.054629,4.44398399 307.415883,4.45553119 C308.137831,4.47975216 308.856978,4.50397312 309.574725,4.52791245 C310.281271,4.60029371 310.985856,4.67183005 311.688201,4.74364803 C312.396986,4.78927357 313.071887,4.95290591 313.75827,5.06443501 C314.100201,5.12498743 314.441572,5.1852582 314.782382,5.24552898 C315.115352,5.33114728 315.448042,5.41704721 315.779891,5.50294715 C316.112021,5.58828381 316.44331,5.67390211 316.77432,5.75923877 L317.022717,5.82317085 L317.264953,5.90597276 L317.749425,6.07045002 C318.394922,6.29322658 319.043218,6.4884025 319.672752,6.76807017 C320.305367,7.02943129 320.937141,7.2741757 321.564995,7.58172564 C321.878922,7.72761472 322.192848,7.87350379 322.505935,8.01882959 C322.818742,8.16387375 323.13883,8.32947756 323.453877,8.48325253 C324.094332,8.80009656 324.731987,9.11581404 325.367682,9.43040496 C325.690571,9.58953107 326.012899,9.74865718 326.334667,9.90722002 C326.667076,10.0618399 326.999206,10.2164598 327.330215,10.3705164 C327.663745,10.5226015 327.988033,10.6822909 328.326884,10.8270535 C328.669655,10.9675914 329.011306,11.1078477 329.352397,11.248104 C329.695168,11.3858255 330.031778,11.5319962 330.37707,11.6612686 C330.727962,11.7804019 331.078295,11.8995353 331.427787,12.0178237 C331.777559,12.1358305 332.126491,12.2535557 332.474583,12.3709992 C332.826316,12.4777404 333.184769,12.560824 333.538462,12.6557364 C333.892995,12.7472691 334.246968,12.8390835 334.6001,12.9303345 C334.776807,12.9745519 334.952953,13.0235571 335.129659,13.0635499 L335.663419,13.1598704 C336.375005,13.2866081 337.082951,13.413064 337.787816,13.5383934 C338.493801,13.6290813 339.196706,13.6887888 339.896531,13.7637048 C340.246303,13.7989097 340.595515,13.8341145 340.943887,13.8693194 C341.291699,13.8943853 341.63615,13.8957935 341.981442,13.9101571 C342.671185,13.9318433 343.357847,13.9538112 344.041149,13.9754974 L344.552786,13.9909875 L345.063582,13.9763423 C345.403273,13.96564 345.742403,13.9546561 346.080694,13.9442355 C346.757275,13.9217043 347.430775,13.8994548 348.100635,13.8772053 C348.774136,13.8090487 349.443996,13.7411736 350.110495,13.6732986 C350.443745,13.6389386 350.775875,13.6048603 351.107444,13.5705003 C351.438734,13.5290994 351.768623,13.4586896 352.098232,13.4034883 C352.75633,13.2849182 353.411068,13.1666298 354.062165,13.0491863 C354.706261,12.8827375 355.346997,12.7168521 355.984092,12.5520932 C358.51763,11.8370114 360.901626,10.8324046 363.067749,9.77175159 C365.240313,8.70518417 367.204247,7.67382164 369.165099,6.88438713 C370.135164,6.45291597 371.119511,6.16648897 372.078094,5.82908528 C372.568727,5.70150275 373.05628,5.57504677 373.539632,5.44915408 C373.781308,5.38634855 374.022144,5.32354302 374.26214,5.26073749 C374.505216,5.20891589 374.751653,5.17202116 374.995009,5.12667726 C375.482562,5.03965077 375.966474,4.95318755 376.446466,4.86700597 L376.80604,4.80279225 L377.171494,4.76617916 C377.41429,4.74167656 377.656527,4.71745559 377.897923,4.69295299 C378.380155,4.6433845 378.858746,4.59437929 379.333697,4.54565572 C379.569212,4.51439377 379.809768,4.50876099 380.048924,4.50284657 C380.288079,4.49552395 380.526395,4.48791969 380.76331,4.48059707 C381.237421,4.46538856 381.707891,4.44989841 382.174161,4.43525317 C382.407436,4.42793056 382.63931,4.42088958 382.870625,4.41328532 C383.101939,4.42117122 383.331854,4.42849383 383.560928,4.43637973 C384.476665,4.47186626 385.38092,4.48116035 386.259691,4.53382687 C387.130341,4.6225432 387.985028,4.70928806 388.823193,4.79462472 C389.647636,4.93037478 390.450236,5.08330483 391.240234,5.21961818 C392.01763,5.39845903 392.767302,5.6105333 393.508293,5.79500694 C394.234721,6.03017562 394.940706,6.2746384 395.63241,6.51008872 C396.314031,6.7956708 396.981091,7.05365226 397.630508,7.33951598 C398.281885,7.64678428 398.909179,7.92532539 399.533112,8.23287533 C402.012042,9.44899314 404.34199,10.6687723 406.520995,11.4858074 C406.784794,11.6007162 407.055034,11.6936571 407.321354,11.7818101 C407.586554,11.871653 407.846993,11.9595244 408.101551,12.0462693 C408.613187,12.2118731 409.094019,12.4019795 409.576531,12.5106922 C410.054002,12.6346135 410.50935,12.7526202 410.942295,12.8647126 C411.158767,12.9207588 411.369918,12.9748335 411.575189,13.0275001 C411.78074,13.07904 411.98405,13.1055141 412.179799,13.1440987 C412.964196,13.2837917 413.65674,13.4071496 414.254069,13.5136092 C414.851398,13.60824 415.354633,13.6366855 415.759294,13.6851274 C416.568614,13.7670844 416.985037,13.8096119 416.985037,13.8096119 C416.985037,13.8096119 417.088932,13.8200326 417.294203,13.8408739 C417.396698,13.8490414 417.525237,13.8679112 417.6773,13.8752339 C417.829363,13.8803034 418.006349,13.8859361 418.207699,13.8929771 C418.610119,13.9059325 419.110554,13.921986 419.705923,13.9414191 C420.003327,13.9507132 420.324815,13.9608522 420.669266,13.9715544 C420.841492,13.9752158 421.019879,13.9864813 421.203586,13.9839466 C421.387574,13.9780321 421.577442,13.9723994 421.772911,13.9662033 C422.554508,13.9414191 423.428798,13.9135368 424.391302,13.8828381 C424.631578,13.8817116 424.879695,13.8507313 425.132573,13.825947 C425.38573,13.8005995 425.644489,13.774407 425.908568,13.7473697 C426.437007,13.6935766 426.987289,13.6372488 427.558855,13.5783862 C428.13042,13.5119194 428.722708,13.3823654 429.33628,13.280412 C429.949572,13.1646583 430.588067,13.0784767 431.233843,12.8906234 C431.8813,12.7202317 432.55368,12.5574443 433.237542,12.3619868 C433.911043,12.1341407 434.604986,11.8992537 435.317973,11.6578889 C436.014157,11.3861071 436.719302,11.0884146 437.447691,10.7912853 C438.149475,10.4685268 438.874504,10.1350661 439.598692,9.7883683 C440.304397,9.43913577 441.026905,9.0817357 441.765935,8.71588646 C442.128029,8.53676397 442.494044,8.35567 442.863979,8.17232292 C443.233354,7.99066567 443.599369,7.82815989 443.973225,7.65213543 C444.718416,7.28741274 445.48097,6.9877487 446.257526,6.66865155 C446.643703,6.49713332 447.043323,6.37349373 447.444343,6.23718039 C447.845363,6.10086705 448.250303,5.96342715 448.659164,5.82457905 C449.076146,5.71642962 449.497049,5.60743527 449.922153,5.49731437 C450.134424,5.4421131 450.347816,5.38691183 450.562048,5.33086564 L450.884376,5.24665554 L451.215386,5.18807459 C451.657572,5.10949727 452.103958,5.03007504 452.553985,4.95008952 C452.779139,4.90953348 453.005413,4.86897745 453.231967,4.82785813 C453.45796,4.78335915 453.694596,4.77575489 453.92703,4.74759098 C454.39414,4.69999396 454.86489,4.65211531 455.339841,4.60395502 C455.577037,4.57945241 455.815352,4.55494981 456.054508,4.5304472 C456.293103,4.50284657 456.54038,4.50988755 456.784297,4.49777706 C457.27409,4.48256855 457.767804,4.4670784 458.265158,4.45102497 C458.513835,4.44313907 458.763632,4.43525317 459.01427,4.426804 L459.391206,4.41441188 C459.516945,4.41441188 459.642683,4.42173449 459.768982,4.42511416 C460.777693,4.464262 461.806846,4.47693577 462.841321,4.53607999 C463.353237,4.5887465 463.869074,4.64141302 464.387992,4.69492446 C464.905509,4.7549136 465.436188,4.77744473 465.947264,4.88925547 C466.463101,4.98135147 466.982299,5.07401074 467.505137,5.1672333 L467.898036,5.23679817 C468.029095,5.26073749 468.155394,5.30129353 468.284493,5.33283711 C468.541572,5.39958559 468.79977,5.46689734 469.058529,5.5342091 C470.104205,5.7674063 471.122157,6.15071717 472.164752,6.49685168 C474.22782,7.28487799 476.293969,8.32806936 478.536823,9.44082561 C480.774077,10.5510471 483.231164,11.6564807 485.867758,12.4425356 C488.511352,13.2235209 491.276485,13.6296445 494.071302,13.8676296 C494.768886,13.9070591 495.46731,13.9183246 496.169935,13.9439538 C496.521108,13.9549377 496.8734,13.9659217 497.226253,13.9774689 C497.402679,13.9814118 497.579386,13.9909875 497.756372,13.9904243 L498.287051,13.9743708 C498.995837,13.9518397 499.707703,13.9293086 500.42265,13.9064958 L500.95977,13.8887525 L501.22833,13.8800217 L501.499131,13.8527027 C501.859824,13.8160896 502.221638,13.7797582 502.583732,13.7428635 C502.946387,13.7062504 503.309601,13.6687924 503.673095,13.631616 C504.036869,13.5933131 504.401764,13.5651492 504.766378,13.4893882 C505.495607,13.3589893 506.228196,13.2280271 506.963586,13.0970649 C507.695615,12.9416001 508.422324,12.730934 509.156313,12.546742 L509.705755,12.4031061 L510.244836,12.2214488 C510.60469,12.0997807 510.965103,11.977831 511.326077,11.8555996 C512.058107,11.6291617 512.743089,11.3125993 513.451034,11.0312418 C514.167101,10.7538273 514.82716,10.4167052 515.516063,10.1049307 C515.861634,9.94721278 516.195444,9.78527027 516.523093,9.62022974 C516.853822,9.4565974 517.185112,9.29268342 517.517241,9.1284878 C518.166378,8.80713754 518.817755,8.48466073 519.471093,8.16105735 C522.047197,6.88804844 524.614061,5.87809049 527.377513,5.27284798 C530.136765,4.67154841 533.046119,4.46989479 536.012042,4.41948138 C538.978245,4.47102134 541.955649,4.675773 544.834479,5.33283711 L545.905358,5.61081494 L546.441918,5.7493814 C546.621985,5.79219055 546.800092,5.8414774 546.974278,5.9062544 L548.028915,6.26421775 C548.380368,6.38560422 548.736021,6.49093725 549.082153,6.6452755 L550.128389,7.07505683 C550.303415,7.14800137 550.478161,7.21418657 550.652907,7.29276389 L551.177425,7.53694502 L552.228702,8.02615221 C552.580155,8.19062946 552.939168,8.3751031 553.294821,8.54915609 C554.019009,8.90796435 554.745438,9.26733589 555.472986,9.62755235 C555.835921,9.81146271 556.213977,9.99030357 556.599034,10.1668913 L557.746366,10.7005975 C558.130863,10.8769036 558.538044,11.0312418 558.933743,11.1974089 C559.333643,11.3576616 559.727101,11.5314329 560.134562,11.6798568 L561.372907,12.100344 L561.99348,12.3098835 L562.304606,12.4129634 L562.621893,12.496047 L563.894123,12.8264097 C564.319787,12.9280814 564.74125,13.0649581 565.173634,13.1277636 C566.033923,13.2781589 566.895891,13.4465791 567.76038,13.5783862 C568.62599,13.6671025 569.492999,13.7555372 570.361409,13.8442536 C570.796874,13.9014263 571.227578,13.894667 571.661083,13.9141001 L572.960476,13.9557827 L574.262951,13.9966203 L575.567386,13.9569092 L576.874341,13.9152266 C577.310926,13.894667 577.745271,13.9039611 578.185496,13.8459434 C579.063147,13.7561005 579.942479,13.6665393 580.82349,13.5766964 C581.703101,13.4381299 582.584113,13.2694281 583.465964,13.1139633 C583.687197,13.0804482 583.90535,13.0252469 584.123503,12.9669476 L584.7788,12.7979642 L586.089396,12.4571808 C586.525141,12.3383291 586.947724,12.1761049 587.377588,12.0366936 C587.804372,11.8891146 588.237597,11.7519564 588.65934,11.5945201 L589.905806,11.0839083 C590.323068,10.9146432 590.74005,10.7445332 591.134909,10.5521737 L592.338809,9.99255668 C592.742349,9.80667485 593.118165,9.61065401 593.509664,9.41998431 C594.272777,9.04202458 595.036731,8.66378322 595.802086,8.28526021 C596.182662,8.09149249 596.553718,7.92588867 596.928134,7.75042749 C597.30227,7.57862761 597.675845,7.39781528 598.050541,7.23277475 C599.548485,6.60415619 601.049229,6.02200809 602.606541,5.6263051 C605.708564,4.79349816 608.981413,4.45609447 612.321191,4.43131023 C615.655089,4.44905349 618.974424,4.713231 622.131896,5.52604156 L623.316472,5.83246495 L624.477246,6.22675974 C625.256882,6.46502645 626.016915,6.80271178 626.78339,7.11307811 C627.166767,7.26009375 627.549024,7.45132672 627.931841,7.62650627 C628.315498,7.80675532 628.696075,7.97771027 629.082813,8.16556358 L631.433484,9.32929651 L632.634863,9.92158362 L633.877969,10.5000704 L634.499941,10.7881872 L635.145438,11.053773 L636.437551,11.5832545 C636.873576,11.7499849 637.324443,11.8902412 637.767749,12.0442978 L638.435649,12.2698908 C638.658282,12.3448068 638.879795,12.4247923 639.109429,12.4774588 L640.475753,12.8326058 C640.931941,12.9469513 641.385329,13.0818564 641.848798,13.1500131 L643.231925,13.3975739 C643.693154,13.4733348 644.154102,13.5792311 644.616171,13.6116196 L647.389425,13.8898791 L650.149237,13.9785954 L650.83954,14 L651.529843,13.9794403 L652.910449,13.9357863 L654.291055,13.890724 C654.753124,13.8552375 655.216313,13.8008811 655.678662,13.7561005 C656.603921,13.655837 657.530019,13.5947213 658.453597,13.4012352 C659.376054,13.2280271 660.305793,13.1021344 661.214809,12.8362671 L662.584773,12.4805568 C662.814968,12.427327 663.037041,12.3484681 663.260514,12.2729888 L663.929814,12.0465509 C664.37452,11.8922127 664.826788,11.7516747 665.264493,11.5840995 L666.560527,11.0534913 L667.208263,10.7867791 L667.832476,10.4975357 L669.080063,9.91707739 L671.47582,8.73306645 L672.646675,8.1534531 L673.802968,7.61298759 C674.572242,7.23502786 675.343197,6.94831922 676.112192,6.62527912 L676.400635,6.50642741 L676.692999,6.40813535 L677.277726,6.21070631 L678.446621,5.81753807 L679.639039,5.50998813 L680.234688,5.3550866 C680.433237,5.303265 680.630107,5.24693717 680.835097,5.21792834 C681.649739,5.08133336 682.455979,4.91488463 683.274541,4.79687783 L685.757392,4.54396588 C686.592757,4.49665051 687.435682,4.48622986 688.273567,4.454123 C689.112573,4.40230139 689.951018,4.45750267 690.788903,4.47947052 L692.04573,4.5189 L692.359657,4.52819409 L692.668823,4.55973767 L693.287156,4.62366976 L694.5227,4.74928081 L695.140192,4.81124143 C695.344343,4.83996862 695.544293,4.88193285 695.746483,4.91657446 L696.955703,5.13259168 L697.560033,5.23933292 C697.761944,5.27312961 697.954892,5.33762498 698.152882,5.38494035 L699.333258,5.69080046 C699.529567,5.7429037 699.727837,5.78796596 699.922466,5.84598362 L700.499912,6.04256774 L701.655085,6.43291959 C702.040702,6.55937557 702.415958,6.7373715 702.797095,6.88635861 C703.176552,7.04717456 703.556288,7.18574101 703.935465,7.36373695 L705.071875,7.89265525 C705.448811,8.06304693 705.833588,8.25512483 706.217246,8.44607616 L707.369618,9.01611378 L708.550274,9.60079664 L709.140882,9.89285642 L709.751653,10.1770303 L710.972915,10.7445332 C711.388497,10.9250639 711.815281,11.0937657 712.235904,11.2681003 C713.918955,11.9705084 715.69218,12.5123821 717.471565,12.9432899 C717.913471,13.0717174 718.363498,13.1404373 718.812125,13.2221127 L720.156606,13.4617876 C720.380639,13.4992456 720.604393,13.5454344 720.828426,13.5758515 L721.500527,13.6454163 L722.843887,13.7825746 L723.514867,13.850168 C723.738901,13.8746706 723.962094,13.8972017 724.184167,13.8986099 L725.516886,13.942264 L726.847925,13.9842282 C727.069718,13.9887344 727.291231,14.003098 727.512744,13.9991551 L728.177003,13.9783138 C729.062495,13.9501499 729.946867,13.9217043 730.829839,13.8932588 C731.716171,13.819751 732.603344,13.7189241 733.487436,13.6307711 C733.708949,13.6059868 733.929902,13.5902151 734.150855,13.5572633 L734.812594,13.440383 L736.134391,13.2043694 L736.794449,13.0855177 C737.014282,13.0443984 737.229914,12.9779316 737.448067,12.9249834 L738.750541,12.5878614 L739.400518,12.418033 L740.036773,12.2053954 L741.306203,11.7753324 C741.734387,11.6421171 742.134566,11.4593333 742.545108,11.295701 L743.76917,10.7932568 C744.549927,10.4276892 745.353087,10.0691625 746.107239,9.69514575 C746.854951,9.32535356 747.601542,8.95556137 748.346734,8.58717737 L749.442257,8.04812006 L750.522098,7.54623911 L751.061179,7.295017 C751.241246,7.21531312 751.420752,7.14659317 751.600539,7.07139552 L752.67646,6.63006699 C753.032393,6.47009596 753.400088,6.37095898 753.761062,6.24224989 L754.846224,5.87358426 C755.579093,5.66432638 756.318963,5.48858356 757.052113,5.29199944 C757.798144,5.13935102 758.552297,5.02078095 759.298888,4.88136957 C759.669103,4.80053914 760.055841,4.7808244 760.435578,4.73829689 L761.577028,4.62226156 L762.146353,4.56339898 C762.336222,4.54255769 762.52525,4.52171639 762.719039,4.52115311 L763.873091,4.48538494 L765.023783,4.44849021 C765.40716,4.43412662 765.790257,4.41807319 766.172514,4.44088596 C766.937028,4.46510692 767.699862,4.48960953 768.461016,4.51383049 C768.650604,4.52227967 768.842713,4.5189 769.029781,4.53748818 L769.590704,4.59550584 C769.96456,4.63380877 770.337856,4.67154841 770.710591,4.70985133 C771.082767,4.74984409 771.457183,4.77997948 771.826278,4.82701322 C772.190892,4.89263514 772.554947,4.95797542 772.918161,5.0233157 C773.281935,5.08781106 773.644869,5.15230642 774.007524,5.21652015 C774.190391,5.24327587 774.368217,5.28777485 774.544084,5.33649842 L775.074763,5.47478324 C775.780468,5.66179163 776.492894,5.81866463 777.175356,6.0760828 C777.519808,6.19268141 777.864259,6.30899837 778.20759,6.4250337 L778.465229,6.51318675 L778.504715,6.52924018 L778.550082,6.54811 C780.489091,7.30093142 782.242713,8.16584522 783.751018,8.91416041 C784.521133,9.29240178 785.216757,9.63374842 785.823047,9.93144099 C786.451741,10.2212477 786.988021,10.4685268 787.416765,10.6659559 C788.222445,11.016315 789.016084,11.3100646 789.763795,11.5886057 C790.537271,11.824056 791.276581,12.0341588 791.989567,12.2225754 C792.714876,12.3712809 793.417781,12.4847814 794.098562,12.5889879 C794.268548,12.6137722 794.437693,12.6385564 794.605438,12.6627774 C794.775423,12.6734797 794.944008,12.6841819 795.111753,12.6946026 C795.446683,12.7100927 795.778253,12.7253013 796.107302,12.7402281 C797.419578,12.8275363 798.695448,12.6827737 799.988681,12.5515299 C800.635018,12.5025247 801.287235,12.3450884 801.953455,12.219759 C802.619394,12.0859804 803.299335,11.9420628 804,11.7888511 C803.305776,11.595365 802.639837,11.4092016 801.99266,11.2286709 C801.352485,11.0441972 800.730792,10.913235 800.135703,10.6960913 C798.942725,10.295882 797.795394,9.99593635 796.664305,9.56502847 C796.380343,9.47124263 796.09414,9.3760486 795.804577,9.28000966 C795.660635,9.23410248 795.515574,9.18847694 795.369672,9.14228812 C795.227411,9.08596029 795.084029,9.02963246 794.939528,8.97274135 C794.363202,8.74743004 793.769793,8.53901708 793.155381,8.32131002 C792.552171,8.06389185 791.924318,7.81126154 791.262019,7.56032107 C790.608401,7.25981211 789.920899,6.97591985 789.189149,6.64978173 C788.79289,6.46361826 788.298056,6.23126597 787.71697,5.95835764 C787.127482,5.66601621 786.451461,5.330584 785.702629,4.95938361 C784.180042,4.19980285 782.307682,3.26532419 780.106554,2.40885956 L780.055586,2.38801827 L780.01162,2.370275 L779.717856,2.26860327 C779.325237,2.1356696 778.931778,2.00217264 778.53804,1.86839405 C777.757563,1.57886902 776.942642,1.39214227 776.133041,1.17922308 L775.52479,1.02235008 C775.3226,0.967993723 775.119009,0.917298678 774.913179,0.886036734 C774.502357,0.812247279 774.090976,0.738457825 773.679315,0.664386731 C773.267093,0.591160554 772.854591,0.517934378 772.44181,0.444989841 C772.028188,0.391760043 771.614286,0.356273512 771.199544,0.311774528 C767.876288,-0.0791405983 764.564514,-0.05238488 761.18497,0.213482468 C760.762387,0.256854895 760.339243,0.299945684 759.91526,0.343036472 C759.491837,0.390915126 759.067574,0.415417731 758.64359,0.504415699 C757.796464,0.659035587 756.944577,0.795912209 756.09633,0.971373393 C755.255645,1.19217848 754.407398,1.39636686 753.568953,1.6377316 L752.327808,2.05681064 C751.917266,2.20298135 751.491323,2.32380454 751.095624,2.49898409 L749.889484,2.99326078 C749.689534,3.07662596 749.484823,3.15632984 749.287954,3.24363797 L748.706027,3.51401155 L747.539933,4.05644853 L746.408284,4.61296747 C745.668694,4.97881671 744.928263,5.34551087 744.185873,5.71304995 C743.450763,6.07720936 742.731896,6.39574323 742.002387,6.7387797 L740.909664,7.18630429 C740.544209,7.33163009 740.183235,7.49948701 739.81078,7.61214267 L738.700414,7.98784928 L738.144531,8.17570259 L737.576606,8.32131002 C736.072222,8.74658513 734.51911,9.03188557 732.940514,9.23832706 C732.144075,9.31521455 731.349877,9.40759219 730.549237,9.47546722 C729.739076,9.50109638 728.927515,9.52672554 728.115114,9.55263634 L727.505463,9.57235108 C727.302153,9.57657567 727.099122,9.56193044 726.895532,9.55770585 L725.67427,9.51827637 L724.451047,9.48025508 C724.245776,9.47969181 724.044706,9.45885051 723.844196,9.43603774 L723.241266,9.37407713 L722.033726,9.25128246 L721.429116,9.19044841 C721.229166,9.16397433 721.033417,9.12172846 720.835147,9.0882134 L719.64889,8.87613913 C719.253471,8.80488443 718.853572,8.74658513 718.470474,8.63223963 C716.912882,8.2520268 715.382734,7.79042025 713.878909,7.16152005 C713.502253,7.00521032 713.125317,6.85734978 712.7481,6.69428071 L711.617292,6.16789716 L711.051327,5.9048462 L710.476961,5.62123559 L709.32795,5.05232453 L708.147854,4.46820495 C707.754115,4.27246575 707.362617,4.07644491 706.948155,3.88830996 L705.720731,3.31799071 C705.31215,3.12647609 704.875285,2.96368867 704.453542,2.78541109 C704.024798,2.61727253 703.610056,2.4235048 703.168711,2.27705245 L701.848874,1.82952785 L701.187975,1.60675129 C700.965342,1.54028446 700.738508,1.48705466 700.513634,1.42678388 L699.161032,1.07642479 C698.934759,1.02235008 698.710725,0.951377014 698.482771,0.911665896 L697.798069,0.788026313 L696.427824,0.543845179 C696.19931,0.505260617 695.970516,0.458790159 695.742002,0.426683297 L695.05506,0.355710234 L693.680614,0.215172303 L692.992832,0.145889074 L692.64894,0.111810738 L692.306729,0.100545173 L690.937605,0.0560461888 C690.024109,0.0315435837 689.110332,-0.0239393269 688.196276,0.0290088314 C687.281099,0.062523889 686.367603,0.0760425677 685.450466,0.129272365 C684.530529,0.223058199 683.610031,0.316844032 682.688974,0.410911505 C681.768476,0.542155344 680.848819,0.728318816 679.928882,0.88716329 C679.697847,0.921804905 679.470734,0.984892072 679.24306,1.04347301 L678.560318,1.21977911 L677.195114,1.57464443 C676.747327,1.71743547 676.303741,1.87290028 675.857914,2.02216902 L675.190015,2.24888853 L674.856485,2.36267074 L674.533037,2.49504114 C673.674708,2.85215957 672.792857,3.18731015 671.975695,3.58751936 L670.733429,4.16882255 L669.53009,4.76448933 L667.174378,5.92878553 L666.018646,6.46643465 L665.440639,6.73511839 L664.862353,6.97169527 L663.705781,7.44653886 C663.318483,7.59468104 662.925024,7.71409604 662.535766,7.85040938 C659.41666,8.9104991 656.117768,9.39463679 652.740744,9.51545998 L651.474115,9.55601601 L650.84066,9.57629403 L650.207206,9.5551711 L647.674228,9.47546722 L645.180176,9.22480838 C644.760953,9.19805267 644.360213,9.10088716 643.951632,9.03413869 L642.73065,8.81671327 C642.319269,8.75925889 641.92693,8.63787242 641.52815,8.53789052 L640.335172,8.2297773 C640.134662,8.18527832 639.940874,8.11402362 639.746245,8.04812006 L639.162357,7.8498461 C638.773659,7.7138144 638.381601,7.59496268 637.995423,7.44710213 C636.451273,6.83228389 634.936807,6.15409684 633.373053,5.36043775 L630.996059,4.18374942 C630.592238,3.98801022 630.171615,3.7979038 629.760794,3.60498099 C629.345212,3.41487457 628.941112,3.21406586 628.505647,3.0445191 C627.646479,2.69472329 626.800192,2.32324126 625.903218,2.04385524 L624.57582,1.59576737 L623.219578,1.24174697 C619.591916,0.310647971 615.907126,0.0278822748 612.299348,0.0107022873 C608.69325,0.0366130882 605.023862,0.401054135 601.462571,1.35890885 C599.677584,1.81629081 597.958688,2.47955099 596.294399,3.18167736 C595.883578,3.36305297 595.484238,3.5554125 595.079298,3.74157597 C594.677158,3.92971092 594.266336,4.11502947 593.883519,4.30964212 C593.113684,4.69098151 592.34469,5.07147599 591.576815,5.45168883 C591.200439,5.63475427 590.818742,5.83330986 590.447967,6.00398318 L589.33256,6.52276248 C588.961785,6.70385644 588.589889,6.85425175 588.219114,7.00436541 L587.106508,7.46118409 C586.733492,7.60031383 586.356556,7.71747571 585.98242,7.84731135 C585.606324,7.96869782 585.236949,8.11402362 584.856372,8.2168219 L583.711561,8.51226136 L583.139996,8.66124847 C582.950127,8.71307007 582.759979,8.76207528 582.56311,8.79052083 C581.783473,8.92429942 581.009158,9.07497636 580.229241,9.20002414 C579.437003,9.2802913 578.646165,9.36084009 577.857007,9.44110724 C577.465229,9.4954636 577.059448,9.48447967 576.660669,9.50334949 L575.46153,9.54137078 L574.264631,9.57939206 L573.069413,9.54052586 L571.876155,9.50306785 C571.479896,9.48532459 571.078596,9.4940554 570.691018,9.44026233 C569.909981,9.36112173 569.130345,9.28198113 568.351829,9.20255889 C567.584514,9.08398881 566.827281,8.93359351 566.066127,8.80375787 C565.68191,8.75165463 565.318976,8.62773341 564.94596,8.53901708 L563.835034,8.2520268 L563.557793,8.18105373 L563.286153,8.08980265 L562.743152,7.90532901 L561.65883,7.53919813 C561.299536,7.40879921 560.945843,7.25051801 560.58963,7.10857189 C560.233977,6.95845823 559.878324,6.82636947 559.523511,6.66330041 L558.460752,6.16874208 C558.1079,6.00736285 557.752807,5.83950592 557.393233,5.6572854 C556.669045,5.29904042 555.946537,4.94164035 555.22571,4.58480356 C554.857175,4.40427287 554.499561,4.22064415 554.122905,4.04377477 L552.988456,3.51598302 L552.421931,3.25293206 C552.231223,3.16759541 552.031833,3.09042628 551.837484,3.00903257 C551.445985,2.8487799 551.055327,2.68852723 550.664949,2.5285562 C550.279891,2.35929107 549.87075,2.23368002 549.47001,2.09511356 C549.06731,1.95908186 548.66573,1.82333179 548.264431,1.68758173 C548.065041,1.61491883 547.86117,1.55802772 547.65506,1.50761432 L547.040928,1.34792492 C546.631227,1.24202861 546.222366,1.13641393 545.813785,1.03079925 C542.520213,0.280230944 539.227482,0.0594258585 536.013722,0.00732261763 C532.798562,0.0588625802 529.584242,0.27825947 526.431532,0.965458971 C523.283582,1.64843389 520.259971,2.85272285 517.563168,4.19050876 C516.897509,4.52002655 516.23409,4.84841779 515.572911,5.17624575 C515.249463,5.33593514 514.927135,5.49562453 514.605367,5.65531393 C514.281918,5.81753807 513.962111,5.97300288 513.647064,6.11579392 C513.014169,6.40222093 512.384355,6.72497938 511.755101,6.96549921 C511.124447,7.2144682 510.505275,7.50483816 509.86902,7.69776097 C509.553133,7.80478384 509.237806,7.91124344 508.923039,8.01798467 L508.451728,8.17880062 L507.971177,8.3024402 C507.329041,8.4607214 506.698107,8.64801143 506.054851,8.78432477 C505.405434,8.90007846 504.758817,9.0155505 504.114721,9.13074091 C503.795753,9.19946086 503.465304,9.22311855 503.138215,9.25691525 C502.810566,9.29014867 502.484038,9.32310044 502.158349,9.35605222 C501.83238,9.38956728 501.507252,9.42336398 501.182963,9.45687904 L500.939607,9.48222656 L500.69289,9.48954918 L500.200017,9.50475769 C499.543599,9.52588063 498.889981,9.54644028 498.239724,9.56728158 L497.752171,9.58361665 C497.590027,9.58389829 497.427883,9.5746042 497.266019,9.57037961 C496.94173,9.55995896 496.618842,9.54953831 496.296514,9.53911766 C495.652138,9.51517834 495.007762,9.50644752 494.372067,9.47124263 C491.84469,9.25212738 489.399925,8.89416403 487.101622,8.21541371 C484.803879,7.52765093 482.642796,6.56613491 480.462111,5.48492225 C478.285066,4.4073709 476.041651,3.2661691 473.701622,2.37365467 C472.512564,1.97288217 471.34815,1.54310085 470.151252,1.27047416 C469.854968,1.19414995 469.559243,1.11782575 469.264639,1.04178318 C469.117057,1.00629665 468.970876,0.961516023 468.822454,0.933352109 L468.378027,0.853366594 C467.785739,0.747751916 467.197651,0.642700517 466.613764,0.538494035 C466.029597,0.415417731 465.44767,0.386690539 464.870504,0.319378785 C464.293338,0.261079483 463.720092,0.202780181 463.150487,0.145044157 C462.016038,0.0794222374 460.900631,0.0639320847 459.799787,0.0239393269 C459.662286,0.0205596572 459.525066,0.0129554004 459.388125,0.0132370396 L458.977864,0.0259108009 C458.704543,0.0346416142 458.432903,0.0430907884 458.162102,0.0515399626 C457.619941,0.0690015892 457.082261,0.0861815768 456.548782,0.103361564 C456.281622,0.116880243 456.017262,0.110684182 455.750943,0.140256292 C455.484623,0.16701201 455.219983,0.193767728 454.955904,0.220523446 C454.428305,0.274316522 453.904907,0.327827959 453.385429,0.381057756 C453.126111,0.41260134 452.867632,0.423585266 452.610554,0.472308837 C452.353475,0.517934378 452.097517,0.563559919 451.842399,0.608622181 C451.332723,0.699873262 450.827528,0.790279426 450.326813,0.880122312 L449.952117,0.947997345 L449.583022,1.04290973 C449.337425,1.1059969 449.093229,1.16936571 448.850153,1.23217124 C448.364,1.35919049 447.882048,1.48508318 447.404857,1.60984932 C446.937747,1.76784888 446.475118,1.9241586 446.01697,2.07877849 C445.559101,2.23480657 445.100393,2.38069565 444.671369,2.56939387 C444.236184,2.74767145 443.80548,2.92425919 443.379256,3.09915709 C442.945751,3.2675773 442.555373,3.47261059 442.147912,3.65454948 C441.748573,3.84268442 441.341392,4.02490495 440.960255,4.21275825 C440.580238,4.40117484 440.204142,4.58705667 439.832527,4.77124867 C439.103578,5.13202841 438.391152,5.48464061 437.694968,5.82936692 C437.008305,6.15775815 436.345726,6.46164678 435.695469,6.76243739 C435.044932,7.02548834 434.413158,7.2936088 433.795106,7.5361001 C428.839206,9.34591321 424.600213,9.54165242 421.720823,9.57178781 C421.541317,9.57770223 421.367131,9.58361665 421.198265,9.58896779 C421.0294,9.59150254 420.865576,9.58051862 420.707632,9.57685731 C420.391185,9.5667183 420.096021,9.55714257 419.82326,9.54841176 C419.276339,9.53123177 418.81707,9.51686817 418.447415,9.50532097 C418.262587,9.49968819 418.100163,9.49461868 417.960422,9.49039409 C417.821241,9.48363475 417.707544,9.46645477 417.614851,9.45856887 C417.430303,9.43941741 417.336769,9.42984168 417.336769,9.42984168 C417.336769,9.42984168 416.962073,9.39125712 416.233964,9.31718602 C415.87159,9.27296868 415.412882,9.24987427 414.883043,9.16481925 C414.355724,9.07075178 413.744393,8.96119415 413.051289,8.83755457 C412.879064,8.80347623 412.697317,8.78179002 412.51809,8.73616448 C412.338863,8.68941238 412.154876,8.64125209 411.965567,8.5916836 C411.586951,8.49423646 411.189292,8.39115653 410.772029,8.28328874 C410.350286,8.19175602 409.930224,8.01995614 409.482157,7.87547527 C409.258963,7.80027762 409.031009,7.72310849 408.798575,7.64481281 C408.56558,7.56905188 408.328945,7.48793981 408.091469,7.38345169 C406.171503,6.66668008 404.030303,5.54998089 401.439636,4.27584542 C400.79666,3.95871975 400.098236,3.64638194 399.402052,3.3193989 C398.689626,3.00537126 397.933233,2.70965016 397.171799,2.39393269 C396.384882,2.12243256 395.577521,1.84332817 394.746917,1.57689754 C393.901191,1.3614436 393.039223,1.11979722 392.15205,0.917580317 C391.259277,0.75958076 390.348021,0.587217606 389.417162,0.436259028 C388.485743,0.341346637 387.535841,0.244181134 386.568017,0.145325796 C385.602713,0.0864632159 384.623406,0.0737894546 383.624497,0.0366130882 C383.37498,0.0290088314 383.124343,0.0214045746 382.872305,0.0135186787 C382.620828,0.0208412963 382.36795,0.028163914 382.113672,0.0357681708 C381.605956,0.0515399626 381.09376,0.0678750327 380.577083,0.0839284637 C380.318604,0.092659277 380.059285,0.101108451 379.799126,0.109275986 C379.538688,0.116598604 379.277129,0.123357943 379.013049,0.156873001 C378.48517,0.210666077 377.953091,0.264459152 377.416811,0.318533867 C377.148811,0.346416142 376.879411,0.374016778 376.60917,0.401617413 L376.20339,0.443863284 L375.796209,0.514836348 C375.252368,0.611720212 374.704606,0.709448993 374.152644,0.808022692 C373.876803,0.859281016 373.599001,0.902935082 373.3226,0.962079302 C373.047319,1.03305236 372.771197,1.10402543 372.494516,1.17499849 C371.940874,1.32004265 371.38359,1.46593172 370.821827,1.61266571 C369.727423,1.99006216 368.592694,2.33112716 367.514813,2.80681567 C365.325166,3.69059929 363.215331,4.80194733 361.160385,5.80796234 C359.097877,6.81679374 357.016326,7.68396065 354.803716,8.31088938 C354.247273,8.45508862 353.688309,8.60041441 353.125985,8.74630349 C352.55078,8.84910177 351.972493,8.95274498 351.391126,9.05638818 C351.099603,9.10511175 350.81144,9.16904384 350.514876,9.20593856 C350.216911,9.23607395 349.917827,9.2659277 349.617902,9.29606309 C349.018612,9.35774206 348.415682,9.41942103 347.810232,9.48166328 C347.19554,9.50109638 346.577488,9.52052948 345.956635,9.54052586 C345.646069,9.55038323 345.334662,9.56052224 345.022416,9.57037961 L344.553626,9.58530648 L344.083996,9.56953469 C343.456982,9.54953831 342.826608,9.52954193 342.193714,9.50898228 C341.877546,9.49602688 341.558019,9.49602688 341.242972,9.47293247 C340.929605,9.44082561 340.615678,9.4084371 340.301191,9.3760486 C339.672777,9.30761029 339.037363,9.25578869 338.406428,9.17580317 C337.783896,9.06427408 337.158842,8.95246334 336.530989,8.84008932 L336.059398,8.75672413 C335.904255,8.72095596 335.751352,8.67758354 335.596769,8.63815406 C335.288443,8.55845018 334.979837,8.47818303 334.669831,8.39791587 C334.361225,8.31483232 334.047858,8.24470418 333.740372,8.15148162 C333.435687,8.04812006 333.130441,7.94419522 332.824635,7.83998873 C332.51855,7.73662717 332.211624,7.63326561 331.904138,7.5296224 C331.598892,7.41555855 331.296447,7.28262488 330.991482,7.15983021 C330.686796,7.03506407 330.381551,6.91001629 330.075185,6.78468688 C329.769379,6.65485123 329.463294,6.5027661 329.156368,6.36279145 C328.849442,6.22028204 328.541676,6.077491 328.23363,5.93413668 C327.921383,5.78008007 327.608577,5.62574182 327.29521,5.47084029 C326.658955,5.15596773 326.02018,4.83968698 325.379164,4.52227967 C325.051515,4.36259028 324.734788,4.19839466 324.396777,4.04124002 C324.059327,3.88408538 323.720757,3.7266491 323.381626,3.56864954 C322.714286,3.24307469 321.99906,2.96087228 321.290274,2.66993905 C320.591009,2.36154419 319.844978,2.13088173 319.108748,1.87825142 L318.554265,1.6909614 L318.276744,1.59773884 L317.993342,1.52338611 C317.614445,1.42481241 317.234989,1.32623871 316.855252,1.22738337 C316.474675,1.13021787 316.093538,1.03305236 315.712121,0.935605222 C315.326224,0.866321994 314.939766,0.796757126 314.552748,0.727192259 C313.778713,0.59904645 313.001877,0.420487236 312.22084,0.365849243 C311.440364,0.286427005 310.656807,0.207004768 309.871009,0.127019252 C309.088573,0.0912510813 308.304736,0.0726628981 307.517538,0.0456255406 C307.124079,0.0335150576 306.730061,0.0214045746 306.335482,0.00901245247 C305.940623,0.014081957 305.545204,0.0312619445 305.149505,0.042245871 C304.357827,0.0675933936 303.563628,0.0935041944 302.767189,0.118851717 C301.16591,0.287271923 299.55427,0.398519383 297.937588,0.738176185 C297.534048,0.813373836 297.127707,0.877024281 296.724447,0.963205858 C296.323707,1.06656742 295.921847,1.16992899 295.519987,1.27357219 C295.118127,1.37834195 294.715427,1.48283007 294.312447,1.58788147 C293.918148,1.72025187 293.523289,1.85262226 293.12787,1.9852743 C292.733572,2.12074272 292.335352,2.25029673 291.943294,2.39196121 C291.559636,2.54883422 291.175699,2.70627049 290.791202,2.86370677 C290.010725,3.16787704 289.275615,3.52048925 288.531264,3.86662375 L287.973141,4.12685832 L287.433781,4.39385222 L286.351979,4.92952986 C285.648234,5.27622764 284.942529,5.62405198 284.235423,5.97272124 C282.838295,6.63006699 281.450688,7.25924883 280.025275,7.73803537 C277.186771,8.73531956 274.181083,9.26367459 271.067298,9.48278984 C269.499344,9.52278259 267.924949,9.62276449 266.344953,9.52672554 C265.556075,9.49518196 264.757676,9.50250458 263.98196,9.3968899 L262.809425,9.27719326 L262.221898,9.21804905 L261.928414,9.18763202 L261.640531,9.13552878 C260.873776,8.99217446 260.099741,8.87022471 259.334667,8.71391499 C258.583034,8.51028989 257.821881,8.3362369 257.072769,8.11346034 L255.960443,7.73578225 C255.589108,7.6101712 255.215812,7.49357259 254.850917,7.33163009 C254.117208,7.02576998 253.380418,6.74638395 252.644748,6.38532258 L251.538863,5.8687964 L250.416456,5.31340401 C249.652222,4.93516265 248.887427,4.55607636 248.121513,4.17727172 L246.925735,3.61680983 C246.521634,3.43430767 246.133776,3.23575208 245.710353,3.07155646 C244.873588,2.73753244 244.058107,2.36295238 243.183536,2.09173389 L241.888903,1.65434831 C241.455118,1.5132471 241.007611,1.41636323 240.567106,1.29582168 L239.238867,0.953066849 C238.792481,0.863223963 238.343574,0.78915287 237.894947,0.706632602 L236.548226,0.467520972 C236.099319,0.394576435 235.649011,0.366975799 235.198424,0.315154197 L233.846662,0.177432658 C233.621229,0.156309723 233.395235,0.128145809 233.170362,0.113218934 L232.497141,0.0912510813 C231.598767,0.062523889 230.699553,0.0340783359 229.799498,0.0056327828 C228.899164,0.0219678529 227.99771,0.0582993019 227.095975,0.0850550202 C226.196201,0.0875897725 225.285505,0.212074272 224.377609,0.298255849 L223.014366,0.441328532 L221.651402,0.682974914 L220.288159,0.928000966 C219.837292,1.0361504 219.388104,1.15725523 218.938077,1.27216399 C218.48889,1.39270555 218.034943,1.49747531 217.590236,1.63238045 L216.268719,2.07877849 C215.375106,2.35562977 214.539181,2.73696916 213.680573,3.08085055 C213.246228,3.24898912 212.850249,3.45543061 212.433546,3.64215736 C212.025526,3.83479853 211.602662,4.02265183 211.205843,4.21979923 C207.990963,5.79810497 205.056125,7.36908809 201.897534,8.24076123 L200.707356,8.54802953 C200.310537,8.65054618 199.917078,8.76545495 199.506817,8.82347261 L198.288635,9.04033475 C197.881735,9.10933634 197.480435,9.2011507 197.061772,9.22818805 L194.571921,9.47659378 L192.043143,9.55629765 C188.663319,9.57094289 185.289375,9.33295781 182.095498,8.53620069 L180.89972,8.22724255 C180.69837,8.18274357 180.504861,8.10979903 180.309672,8.04417711 L179.723824,7.84533988 C179.334286,7.7087449 178.940828,7.59101973 178.55353,7.44062443 L177.396677,6.96549921 L176.817831,6.72807741 L176.239824,6.45883039 L175.083532,5.92118128 L172.72502,4.75463196 L171.52056,4.1584019 L170.275774,3.57681708 C169.458052,3.17576294 168.57284,2.84202056 167.714232,2.48349393 C167.50056,2.39083466 167.279327,2.3119757 167.054734,2.23874952 L166.385714,2.01174838 C165.939047,1.86332455 165.495461,1.7039168 165.045434,1.56591362 L163.67771,1.21020338 L162.993287,1.03389728 C162.765613,0.972218311 162.537379,0.915608843 162.305785,0.880122312 L160.922938,0.632279869 L160.230955,0.509203565 C160.000761,0.468647529 159.770006,0.423021988 159.538972,0.405842 L156.770479,0.123639582 C154.933124,0.0577360237 153.099691,-0.0459071798 151.266817,0.0585809411 L149.892652,0.103361564 C149.664418,0.10476976 149.433944,0.129835643 149.203749,0.15377497 L148.513446,0.223903116 L147.1334,0.365004325 C146.903766,0.38950693 146.674132,0.409784948 146.444217,0.438512141 L145.755875,0.560461888 C143.920761,0.856182985 142.086767,1.2758253 140.315223,1.8672675 L138.988665,2.31732684 C138.55292,2.47786115 138.130897,2.66346135 137.701873,2.83554286 C136.833743,3.17322819 136.022742,3.56724134 135.199419,3.94858074 C134.781597,4.1375606 134.397379,4.33808767 133.99776,4.53298195 L132.814863,5.11850973 C132.045588,5.49562453 131.268472,5.89555211 130.5146,6.23549056 C130.134863,6.40982518 129.755967,6.59260898 129.37651,6.76074755 L128.23926,7.22686033 L127.671055,7.46062081 C127.481747,7.53694502 127.287958,7.59299121 127.09697,7.66030296 L125.947118,8.04980989 C125.568502,8.19372749 125.171682,8.27314973 124.782704,8.37932769 L123.61213,8.68321632 C123.419181,8.7406707 123.218391,8.77221429 123.018721,8.80713754 L122.420832,8.91303386 L121.226173,9.1270796 C119.612853,9.33183126 117.993371,9.51405178 116.342805,9.52672554 L115.112021,9.56643666 C114.90675,9.57854714 114.70176,9.57178781 114.497049,9.56362027 L113.882357,9.54306061 C113.064635,9.51039047 112.242433,9.50532097 111.431152,9.45237281 C108.183507,9.2270615 105.066642,8.5981613 102.10744,7.49019292 L101.002675,7.03590899 C100.63442,6.88241566 100.266165,6.74441248 99.8990303,6.56388179 C99.1639206,6.22028204 98.4344117,5.8918908 97.6875402,5.51224124 C96.9339478,5.13906938 96.1811954,4.76617916 95.4298433,4.3944155 L94.8596782,4.11221308 L94.2696301,3.83789656 L93.0903741,3.28954515 C92.6949551,3.11014102 92.279093,2.95101491 91.8744326,2.78174978 C91.4647315,2.61952564 91.0667921,2.43730512 90.6481296,2.29338752 L89.3901818,1.86698586 C88.9703992,1.72757448 88.5562173,1.57239132 88.1246729,1.47353598 L86.8423615,1.14092016 C86.4155778,1.03108089 85.9901944,0.911665896 85.5578098,0.847170532 L84.265697,0.615944799 L83.6210408,0.501599308 C83.4059687,0.463014746 83.1908966,0.422177071 82.9761045,0.40612364 C82.1160961,0.318252228 81.257488,0.230944095 80.4011202,0.143354322 L80.0799122,0.111529099 L79.7606646,0.101108451 L79.1227294,0.0802671548 L77.8482591,0.0394294796 L76.5771494,0 L75.30828,0.0388662013 C74.885977,0.05238488 74.463674,0.0659035587 74.0422111,0.0794222374 L73.4104368,0.0999818946 C73.2004054,0.105051399 72.989814,0.112655656 72.7781024,0.139411374 C69.404999,0.376269891 66.0100522,1.03784023 62.8284974,2.17847875 C62.6293877,2.24804361 62.4269175,2.31113078 62.2311682,2.38576515 L61.6506416,2.62318695 C61.264744,2.78174978 60.8788464,2.94003098 60.4935089,3.09831218 C59.730395,3.42219719 59.0045266,3.78072381 58.2626959,4.12038062 C57.55307,4.47186626 56.8454044,4.82194371 56.1396991,5.17145788 C55.4524765,5.50660846 54.7568527,5.8687964 54.0847524,6.17127683 C53.7467419,6.32843147 53.4087315,6.48586775 53.0718412,6.64274075 C52.7346708,6.80243014 52.3969404,6.92437989 52.0606102,7.06717093 C51.7245601,7.20573739 51.38879,7.34345893 51.0532999,7.48146211 C50.7136092,7.59693416 50.3741985,7.71212456 50.035628,7.82759661 C49.6970575,7.94250538 49.359047,8.05741415 49.0213166,8.17204128 C48.6763051,8.26103925 48.3324138,8.34947394 47.9882424,8.43819027 C47.6449112,8.52775151 47.30186,8.61674948 46.9593689,8.70602909 C46.6154775,8.79080247 46.2606646,8.83586473 45.9128527,8.90317649 C45.5636405,8.96570038 45.2147085,9.02794263 44.8668966,9.09046652 L44.3451787,9.18453399 L43.8133793,9.23832706 C43.1051536,9.31098996 42.3988882,9.38308958 41.6951432,9.45490756 C40.9857973,9.50306785 40.2694504,9.50644752 39.5606646,9.53489308 C39.2055716,9.54644028 38.8510387,9.55798749 38.4976259,9.56953469 C38.1436531,9.5861514 37.7902403,9.55404454 37.4376677,9.54897503 C36.7325225,9.52672554 36.0296176,9.50475769 35.329233,9.48278984 C34.9761003,9.48419803 34.6378098,9.42308234 34.2925183,9.3954817 C33.948907,9.36055845 33.6055758,9.32535356 33.2630846,9.2904303 C32.9208736,9.25607033 32.5789425,9.22171035 32.2375716,9.18735038 C31.9034817,9.12736124 31.5696719,9.06737211 31.2367022,9.00766461 C30.9037325,8.94852039 30.5710428,8.88909453 30.2389133,8.83023195 L29.741559,8.74179726 L29.2565266,8.61477801 C28.9330784,8.53113118 28.6104702,8.44748436 28.2887022,8.36411917 L27.8056301,8.23963467 C27.6437659,8.20161339 27.4841421,8.15683277 27.3281588,8.0988151 C26.7005852,7.88167133 26.0721714,7.6800177 25.4504786,7.45611459 C24.8341066,7.20235772 24.220535,6.9488825 23.6094838,6.69709711 C23.3008777,6.55346114 22.9936719,6.41038846 22.6878662,6.2681607 C21.8256176,5.88006196 20.9955737,5.45168883 20.2484222,5.08781106 C19.4785873,4.70985133 18.7829634,4.36822306 18.1763929,4.07081213 C17.5479791,3.78100545 17.0116991,3.53372629 16.5829551,3.33601561 C15.7775549,2.98565652 14.9836364,2.69218854 14.2362048,2.41336579 C13.4627294,2.17819711 12.723419,1.96809431 12.0107126,1.77967772 C11.2854044,1.63097226 10.5824995,1.51747169 9.90199791,1.41298356 C9.73201254,1.38819932 9.56286729,1.36369671 9.39484222,1.33919411 C9.22485684,1.32877346 9.05655172,1.31807117 8.88852665,1.30736889 C8.55359666,1.29187873 8.22202717,1.27695186 7.89297806,1.26174335 C6.58070219,1.17443521 5.30483177,1.31919773 4.0113187,1.45044157 C3.36526228,1.49944678 2.71304493,1.65688306 2.0468255,1.78221248 C1.38060606,1.91599107 0.700664577,2.05990867 0,2.21312036" id="Fill-1" fill="#202020" mask="url(#mask-2)"></path>
        </g>
    </g>
</svg>
