<svg width="770px" height="176px" viewBox="0 0 770 176" xmlns="http://www.w3.org/2000/svg" >
  <g id="Bars" fill="var(--theme-color-accent-primary)">
      <path d="M22,0 L363,0 C375.150264,-2.23196738e-15 385,9.8497355 385,22 C385,34.1502645 375.150264,44 363,44 L22,44 C9.8497355,44 1.48797825e-15,34.1502645 0,22 C-1.48797825e-15,9.8497355 9.8497355,2.23196738e-15 22,0 Z" id="Rectangle"></path>
      <path d="M22,66 L512,66 C524.150264,66 534,75.8497355 534,88 C534,100.150264 524.150264,110 512,110 L22,110 C9.8497355,110 1.48797825e-15,100.150264 0,88 C-5.04069193e-15,75.8497355 9.8497355,66 22,66 Z" id="Rectangle-Copy"></path>
      <path d="M22,132 L748,132 C760.150264,132 770,141.849736 770,154 C770,166.150264 760.150264,176 748,176 L22,176 C9.8497355,176 1.48797825e-15,166.150264 0,154 C-1.48797825e-15,141.849736 9.8497355,132 22,132 Z" id="Rectangle-Copy-2"></path>
  </g>
  <g id="Text" transform="translate(25.724411, 16.377142)" fill="#FFFFFF" fill-rule="nonzero">
      <path d="M4.14419258,11.7720058 C6.57316754,11.7720058 8.22444437,10.1899761 8.2191322,7.9847225 C8.22444437,5.89665631 6.76492872,4.39452706 4.79937661,4.39452706 C3.84057071,4.39452706 3.01493229,4.79402952 2.63140993,5.33202616 L2.56748954,5.33202616 L2.84980461,2.59942934 L7.61720063,2.59942934 L7.61720063,0.713777728 L0.9481729,0.713777728 L0.431483052,6.46661315 L2.48226235,6.83415541 C2.81784441,6.38138596 3.46770175,6.09907089 4.11223238,6.09907089 C5.20953247,6.10439759 5.99788399,6.89807581 5.99788399,8.04331619 C5.99788399,9.17790318 5.22551257,9.960928 4.14419258,9.960928 C3.22800027,9.960928 2.48758905,9.38564446 2.43432205,8.53869924 L0.197108275,8.53869924 C0.239721871,10.4243509 1.88567201,11.7720058 4.14419258,11.7720058 Z M14.5551298,11.8625597 C17.29838,11.8625597 18.9549836,9.77449352 18.9603229,6.17897138 C18.965637,2.61008274 17.2877266,0.564630143 14.5551298,0.564630143 C11.8172063,0.564630143 10.155276,2.60475604 10.1498986,6.17897138 C10.1392959,9.76384012 11.8065529,11.857233 14.5551298,11.8625597 Z M14.5551298,9.9502746 C13.3033554,9.9502746 12.4936971,8.69317353 12.4989977,6.17897138 C12.5043505,3.70205613 13.3086821,2.45560845 14.5551298,2.45560845 C15.7962508,2.45560845 16.6059352,3.70205613 16.6059352,6.17897138 C16.6112358,8.69317353 15.8015775,9.9502746 14.5551298,9.9502746 Z M23.8208273,5.74750872 C25.3708968,5.74750872 26.2284954,4.65553533 26.2284954,3.33451387 L26.2284954,2.75923032 C26.2284954,1.43820886 25.3922036,0.335582066 23.8208273,0.335582066 C22.2973912,0.335582066 21.4238125,1.43820886 21.4238125,2.75923032 L21.4238125,3.33451387 C21.4238125,4.64488193 22.265431,5.74750872 23.8208273,5.74750872 Z M23.5225321,11.6228582 L31.0225249,0.713777728 L29.6322635,0.713777728 L22.1322635,11.6228582 L23.5225321,11.6228582 Z M23.8208273,4.38387366 C23.1922767,4.38387366 22.9845354,3.85653041 22.9845354,3.33451387 L22.9845354,2.75923032 C22.9845354,2.25319387 23.18695,1.69921713 23.8208273,1.69921713 C24.4919914,1.69921713 24.6677725,2.23721378 24.6677725,2.75923032 L24.6677725,3.33451387 C24.6677725,3.85653041 24.4706846,4.38387366 23.8208273,4.38387366 Z M29.4245151,12.0010539 C30.9692579,12.0010539 31.8268566,10.8877737 31.8268566,9.57740564 L31.8268566,9.0021221 C31.8268566,7.68110063 30.9905647,6.57847384 29.4245151,6.57847384 C27.885099,6.57847384 27.0221736,7.69175403 27.0221736,9.0021221 L27.0221736,9.57740564 C27.0221736,10.8877737 27.8637922,12.0010539 29.4245151,12.0010539 Z M29.4245151,10.6267654 C28.7746578,10.6267654 28.5722432,10.0834421 28.5722432,9.57740564 L28.5722432,9.0021221 C28.5722432,8.48010555 28.7853112,7.9421089 29.4245151,7.9421089 C30.0956792,7.9421089 30.2661336,8.48010555 30.2661336,9.0021221 L30.2661336,9.57740564 C30.2661336,10.0994222 30.0743724,10.6267654 29.4245151,10.6267654 Z M41.6917074,11.7826592 C43.8117338,11.7826592 45.3298431,10.7013392 45.3351698,9.08734929 C45.3298431,7.90482201 44.5574717,7.19637098 42.9701152,6.87144231 L41.4892928,6.57314714 C40.7275748,6.40801946 40.4452597,6.14701118 40.4505864,5.75283542 C40.4452597,5.26277907 40.9992364,4.9431771 41.7023608,4.9431771 C42.4907123,4.9431771 42.9594618,5.37463976 43.0713225,5.90198301 L45.1487353,5.77414222 C44.9463207,4.26668627 43.7318333,3.33451387 41.6650739,3.33451387 C39.571681,3.33451387 38.1920658,4.30397317 38.1973925,5.88067621 C38.1920658,7.10581709 38.9644372,7.89949531 40.5624471,8.21909728 L41.9793491,8.50141235 C42.6931269,8.64523323 43.0180555,8.90624151 43.0287089,9.31639737 C43.0180555,9.80112702 42.4907123,10.1473625 41.6970341,10.1473625 C40.8873757,10.1473625 40.3493791,9.80112702 40.2108849,9.13528958 L37.9789978,9.25247697 C38.1920658,10.8185266 39.5237407,11.7826592 41.6917074,11.7826592 Z M49.487234,11.6228582 L49.487234,6.71164133 C49.487234,5.80610242 50.0625175,5.20418538 50.8189088,5.20418538 C51.5646468,5.20418538 52.0653565,5.71554853 52.0653565,6.51988015 L52.0653565,11.6228582 L54.2652834,11.6228582 L54.2652834,6.62641414 C54.2652834,5.77946892 54.750013,5.20418538 55.5756515,5.20418538 C56.3000826,5.20418538 56.8434059,5.65695483 56.8434059,6.56782044 L56.8434059,11.6228582 L59.1072532,11.6228582 L59.1072532,6.12037769 C59.1072532,4.34658676 58.0525667,3.33451387 56.5291307,3.33451387 C55.3306233,3.33451387 54.3984509,3.9470843 54.0628688,4.88458341 L53.9776416,4.88458341 C53.7166333,3.93643091 52.8803415,3.33451387 51.7564079,3.33451387 C50.6537812,3.33451387 49.8174893,3.92045081 49.4765806,4.88458341 L49.3807,4.88458341 L49.3807,3.44104785 L47.21806,3.44104785 L47.21806,11.6228582 L49.487234,11.6228582 Z M63.6801316,11.7773325 C64.8892924,11.7773325 65.6723172,11.2499893 66.0718197,10.4882712 L66.1357401,10.4882712 L66.1357401,11.6228582 L68.2877267,11.6228582 L68.2877267,6.10439759 C68.2877267,4.15482558 66.6364498,3.33451387 64.8147186,3.33451387 C62.8544932,3.33451387 61.5654319,4.27201297 61.2511567,5.76348882 L63.3498763,5.9339432 C63.5043506,5.39061986 63.9890802,4.9911174 64.8040652,4.9911174 C65.5764366,4.9911174 66.0185527,5.37996646 66.0185527,6.05113059 L66.0185527,6.08309079 C66.0185527,6.61043404 65.4592493,6.67968113 64.0370205,6.81817532 C62.4177039,6.9673229 60.9635149,7.51064625 60.9635149,9.33770416 C60.9635149,10.9570208 62.1194087,11.7773325 63.6801316,11.7773325 Z M64.329989,10.2112829 C63.6321913,10.2112829 63.1314816,9.88635421 63.1314816,9.26313037 C63.1314816,8.62392643 63.6588248,8.30965117 64.4578298,8.19779048 C64.9532128,8.12854338 65.7628711,8.011356 66.0345328,7.83024821 L66.0345328,8.69850023 C66.0345328,9.55609884 65.3260818,10.2112829 64.329989,10.2112829 Z M72.7700465,11.6228582 L72.7700465,0.713777728 L70.5008725,0.713777728 L70.5008725,11.6228582 L72.7700465,11.6228582 Z M77.3003021,11.6228582 L77.3003021,0.713777728 L75.0311282,0.713777728 L75.0311282,11.6228582 L77.3003021,11.6228582 Z M83.2900735,11.7826592 C85.3142193,11.7826592 86.6778543,10.7972198 86.9974563,9.27911047 L84.8987367,9.14061628 C84.6696886,9.76384012 84.0837517,10.0887688 83.3273604,10.0887688 C82.1927734,10.0887688 81.473669,9.33770416 81.473669,8.11788999 L81.473669,8.11256329 L87.0453966,8.11256329 L87.0453966,7.48933945 C87.0453966,4.70880233 85.3621596,3.33451387 83.1995196,3.33451387 C80.7918514,3.33451387 79.2311285,5.04438439 79.2311285,7.56923994 C79.2311285,10.1633426 80.7705446,11.7826592 83.2900735,11.7826592 Z M84.9093901,6.70631463 L81.473669,6.70631463 C81.5216093,5.77414222 82.2300603,5.0284043 83.2368065,5.0284043 C84.2222459,5.0284043 84.9040634,5.73152862 84.9093901,6.70631463 Z M91.2454016,11.6228582 L91.2454016,6.9939564 C91.2454016,5.9872102 91.9804861,5.29473927 92.9819056,5.29473927 C93.2961809,5.29473927 93.7276435,5.34800626 93.9407115,5.41725336 L93.9407115,3.40376096 C93.7382969,3.35582066 93.4559819,3.32386047 93.2269338,3.32386047 C92.3107415,3.32386047 91.5596768,3.85653041 91.2613817,4.86860331 L91.1761545,4.86860331 L91.1761545,3.44104785 L88.9762276,3.44104785 L88.9762276,11.6228582 L91.2454016,11.6228582 Z M102.756196,11.7347189 C103.342133,11.7134121 103.757616,11.5962247 103.986664,11.5216509 L103.629775,9.83308721 C103.517914,9.85439401 103.278213,9.90766101 103.065145,9.90766101 C102.612375,9.90766101 102.2981,9.73720662 102.2981,9.10865609 L102.2981,5.14559168 L103.837516,5.14559168 L103.837516,3.44104785 L102.2981,3.44104785 L102.2981,1.48082245 L100.028926,1.48082245 L100.028926,3.44104785 L98.9103191,3.44104785 L98.9103191,5.14559168 L100.028926,5.14559168 L100.028926,9.40695126 C100.018273,11.0102878 101.110246,11.803966 102.756196,11.7347189 Z M108.202646,11.6228582 L108.202646,6.89274911 C108.207973,5.83806261 108.852503,5.22016548 109.779349,5.22016548 C110.700868,5.22016548 111.244191,5.81142912 111.238865,6.81817532 L111.238865,11.6228582 L113.508057,11.6228582 L113.508057,6.41334616 C113.513365,4.49573435 112.384105,3.33451387 110.679561,3.33451387 C109.43844,3.33451387 108.607475,3.92045081 108.234606,4.88458341 L108.138726,4.88458341 L108.138726,0.713777728 L105.933472,0.713777728 L105.933472,11.6228582 L108.202646,11.6228582 Z M118.080913,11.7773325 C119.290074,11.7773325 120.073098,11.2499893 120.472601,10.4882712 L120.536521,10.4882712 L120.536521,11.6228582 L122.688508,11.6228582 L122.688508,6.10439759 C122.688508,4.15482558 121.037231,3.33451387 119.2155,3.33451387 C117.255274,3.33451387 115.966213,4.27201297 115.651938,5.76348882 L117.750658,5.9339432 C117.905132,5.39061986 118.389861,4.9911174 119.204846,4.9911174 C119.977218,4.9911174 120.419334,5.37996646 120.419334,6.05113059 L120.419334,6.08309079 C120.419334,6.61043404 119.860031,6.67968113 118.437802,6.81817532 C116.818485,6.9673229 115.364296,7.51064625 115.364296,9.33770416 C115.364296,10.9570208 116.52019,11.7773325 118.080913,11.7773325 Z M118.73077,10.2112829 C118.032973,10.2112829 117.532263,9.88635421 117.532263,9.26313037 C117.532263,8.62392643 118.059606,8.30965117 118.858611,8.19779048 C119.353994,8.12854338 120.163652,8.011356 120.435314,7.83024821 L120.435314,8.69850023 C120.435314,9.55609884 119.726863,10.2112829 118.73077,10.2112829 Z M127.170828,11.6228582 L127.170828,6.89274911 C127.176154,5.83806261 127.804705,5.22016548 128.720897,5.22016548 C129.631763,5.22016548 130.180413,5.81675582 130.175086,6.81817532 L130.175086,11.6228582 L132.44426,11.6228582 L132.44426,6.41334616 C132.44426,4.50638775 131.325653,3.33451387 129.621109,3.33451387 C128.406622,3.33451387 127.527717,3.93110421 127.160174,4.88458341 L127.064294,4.88458341 L127.064294,3.44104785 L124.901654,3.44104785 L124.901654,11.6228582 L127.170828,11.6228582 Z M139.9334,11.7613524 C140.615217,11.7613524 141.206481,11.1913956 141.211808,10.4829445 C141.206481,9.78514692 140.615217,9.21519008 139.9334,9.21519008 C139.230275,9.21519008 138.649665,9.78514692 138.654992,10.4829445 C138.649665,11.1913956 139.230275,11.7613524 139.9334,11.7613524 Z M144.65009,2.38636136 C145.326581,2.38636136 145.880558,1.86967151 145.880558,1.23579428 C145.880558,0.607243739 145.326581,0.0905538909 144.65009,0.0905538909 C143.978926,0.0905538909 143.424949,0.607243739 143.424949,1.23579428 C143.424949,1.86967151 143.978926,2.38636136 144.65009,2.38636136 Z M142.689865,14.6910371 C144.61813,14.6910371 145.790004,13.9239924 145.790004,12.0276874 L145.790004,3.44104785 L143.52083,3.44104785 L143.52083,11.9904005 C143.52083,12.6082976 143.259822,12.9172462 142.530064,12.9172462 C142.434183,12.9172462 142.348956,12.9172462 142.231769,12.9065928 L142.231769,14.6803837 C142.396896,14.6857104 142.530064,14.6910371 142.689865,14.6910371 Z M150.32026,14.6910371 L150.32026,10.3124902 L150.389507,10.3124902 C150.703782,10.9943077 151.390926,11.7560257 152.711948,11.7560257 C154.576292,11.7560257 156.030481,10.28053 156.030481,7.54260644 C156.030481,4.73010913 154.512372,3.33451387 152.717274,3.33451387 C151.348313,3.33451387 150.693128,4.14949888 150.389507,4.81533632 L150.288299,4.81533632 L150.288299,3.44104785 L148.051086,3.44104785 L148.051086,14.6910371 L150.32026,14.6910371 Z M151.992843,9.9502746 C150.90087,9.9502746 150.272319,8.9914687 150.272319,7.53195304 C150.272319,6.07243739 150.890216,5.14026498 151.992843,5.14026498 C153.116777,5.14026498 153.713367,6.11505099 153.713367,7.53195304 C153.713367,8.9595085 153.106123,9.9502746 151.992843,9.9502746 Z M161.716636,11.7826592 C163.740782,11.7826592 165.104417,10.7972198 165.424019,9.27911047 L163.325299,9.14061628 C163.096251,9.76384012 162.510314,10.0887688 161.753923,10.0887688 C160.619336,10.0887688 159.900231,9.33770416 159.900231,8.11788999 L159.900231,8.11256329 L165.471959,8.11256329 L165.471959,7.48933945 C165.471959,4.70880233 163.788722,3.33451387 161.626082,3.33451387 C159.218414,3.33451387 157.657691,5.04438439 157.657691,7.56923994 C157.657691,10.1633426 159.197107,11.7826592 161.716636,11.7826592 Z M163.335953,6.70631463 L159.900231,6.70631463 C159.948172,5.77414222 160.656623,5.0284043 161.663369,5.0284043 C162.648808,5.0284043 163.330626,5.73152862 163.335953,6.70631463 Z M171.088866,14.8614915 C173.427287,14.8614915 175.089217,13.7961516 175.089217,11.7027587 L175.089217,3.44104785 L172.836024,3.44104785 L172.836024,4.81533632 L172.750796,4.81533632 C172.447175,4.14949888 171.781337,3.33451387 170.412375,3.33451387 C168.617278,3.33451387 167.099168,4.73010913 167.099168,7.51597295 C167.099168,10.2379164 168.574664,11.5056708 170.417702,11.5056708 C171.722743,11.5056708 172.452501,10.8504868 172.750796,10.173996 L172.846677,10.173996 L172.846677,11.6707985 C172.846677,12.7947321 172.127573,13.2315215 171.142133,13.2315215 C170.140714,13.2315215 169.634677,12.7947321 169.448243,12.2993491 L167.349523,12.5816641 C167.621185,13.8707254 168.883613,14.8614915 171.088866,14.8614915 Z M171.136806,9.80112702 C170.023526,9.80112702 169.416283,8.91689491 169.416283,7.50531955 C169.416283,6.11505099 170.012873,5.14026498 171.136806,5.14026498 C172.239433,5.14026498 172.85733,6.07243739 172.85733,7.50531955 C172.85733,8.9488551 172.22878,9.80112702 171.136806,9.80112702 Z" id="50%smallerthan.jpeg"></path>
      <path d="M305.158755,11.7773325 C305.888513,11.7773325 306.533043,11.1594354 306.543697,10.3923907 C306.533043,9.63599933 305.888513,9.02342889 305.158755,9.02342889 C304.39171,9.02342889 303.763159,9.63599933 303.773813,10.3923907 C303.763159,11.1594354 304.39171,11.7773325 305.158755,11.7773325 Z M311.026012,11.7613524 C312.165926,11.7613524 312.954278,11.3192364 313.40172,10.4829445 L313.465641,10.4829445 L313.465641,11.6228582 L315.915923,11.6228582 L315.915923,6.06178399 C315.915923,4.33060667 314.376506,3.33451387 312.293767,3.33451387 C310.09384,3.33451387 308.847392,4.44246735 308.639651,5.9339432 L311.041993,6.0191704 C311.153853,5.49715385 311.585316,5.17755188 312.27246,5.17755188 C312.911664,5.17755188 313.316493,5.48650045 313.316493,6.03515049 L313.316493,6.06178399 C313.316493,6.56249374 312.77317,6.66902773 311.377575,6.79154182 C309.720971,6.930036 308.336029,7.54260644 308.336029,9.35368426 C308.336029,10.9730009 309.459963,11.7613524 311.026012,11.7613524 Z M311.830344,10.0568086 C311.228427,10.0568086 310.802291,9.76916682 310.802291,9.22584347 C310.802291,8.69850023 311.217774,8.37889826 311.958185,8.26703757 C312.442914,8.19779048 313.039505,8.09125649 313.332473,7.9367822 L313.332473,8.71448033 C313.332473,9.51348525 312.661309,10.0568086 311.830344,10.0568086 Z M322.784603,11.6228582 L325.591774,3.44104785 L322.848524,3.44104785 L321.335741,9.07669589 L321.250514,9.07669589 L319.743058,3.44104785 L316.999808,3.44104785 L319.801652,11.6228582 L322.784603,11.6228582 Z M328.342917,2.48756865 C329.083328,2.48756865 329.679918,1.92826521 329.679918,1.24112098 C329.679918,0.553976744 329.083328,0 328.342917,0 C327.607832,0 327.005915,0.553976744 327.005915,1.24112098 C327.005915,1.92826521 327.607832,2.48756865 328.342917,2.48756865 Z M329.642631,11.6228582 L329.642631,3.44104785 L327.037875,3.44104785 L327.037875,11.6228582 L329.642631,11.6228582 Z M334.833398,11.6228582 L334.833398,5.35865966 L336.394121,5.35865966 L336.394121,3.44104785 L334.833398,3.44104785 L334.833398,2.9829517 C334.833398,2.51420215 335.025159,2.22656038 335.632403,2.22656038 C335.877431,2.22656038 336.175726,2.27982737 336.367487,2.33842107 L336.78297,0.431462657 C336.474021,0.346235465 335.76557,0.20241458 335.046466,0.20241458 C333.379209,0.20241458 332.233969,1.12926029 332.233969,3.0255653 L332.233969,3.44104785 L331.131342,3.44104785 L331.131342,5.35865966 L332.233969,5.35865966 L332.233969,11.6228582 L334.833398,11.6228582 Z" id=".avif"></path>
      <path d="M441.735459,77.7773325 C442.465217,77.7773325 443.109748,77.1594354 443.120401,76.3923907 C443.109748,75.6359993 442.465217,75.0234289 441.735459,75.0234289 C440.968415,75.0234289 440.339864,75.6359993 440.350517,76.3923907 C440.339864,77.1594354 440.968415,77.7773325 441.735459,77.7773325 Z M449.616209,77.6228582 L450.894617,72.8554622 L450.985171,72.8554622 L452.263579,77.6228582 L455.049443,77.6228582 L457.185449,69.4410479 L454.57004,69.4410479 L453.499373,74.6452332 L453.430126,74.6452332 L452.215639,69.4410479 L449.66415,69.4410479 L448.481622,74.6825201 L448.412375,74.6825201 L447.309748,69.4410479 L444.694339,69.4410479 L446.825019,77.6228582 L449.616209,77.6228582 Z M462.33361,77.7773325 C464.48027,77.7773325 465.891846,76.7386261 466.190141,75.1299629 L463.798453,75.0607158 C463.596038,75.6040391 463.063368,75.8970076 462.381551,75.8970076 C461.380131,75.8970076 460.762234,75.2311702 460.762234,74.2297507 L460.762234,74.1605036 L466.216774,74.1605036 L466.216774,73.5106462 C466.216774,70.8153363 464.576151,69.3345139 462.25371,69.3345139 C459.782121,69.3345139 458.194765,71.0284043 458.194765,73.5639132 C458.194765,76.1846494 459.760815,77.7773325 462.33361,77.7773325 Z M463.793126,72.6477209 L460.762234,72.6477209 C460.799521,71.8327359 461.444052,71.2148388 462.306977,71.2148388 C463.164576,71.2148388 463.782473,71.8114291 463.793126,72.6477209 Z M472.962942,77.7400456 C474.77402,77.7400456 476.233535,76.3231436 476.233535,73.5372797 C476.233535,70.6502086 474.688792,69.3345139 472.978922,69.3345139 C471.684534,69.3345139 470.976083,70.0909052 470.661808,70.8419698 L470.608541,70.8419698 L470.608541,66.7137777 L468.003785,66.7137777 L468.003785,77.6228582 L470.581907,77.6228582 L470.581907,76.2965101 L470.661808,76.2965101 C470.992063,77.0529014 471.727147,77.7400456 472.962942,77.7400456 Z M472.062729,75.7105731 C471.10925,75.7105731 470.555274,74.8583012 470.555274,73.531953 C470.555274,72.1949515 471.10925,71.3693131 472.062729,71.3693131 C473.026862,71.3693131 473.559532,72.2162583 473.559532,73.531953 C473.559532,74.8529745 473.026862,75.7105731 472.062729,75.7105731 Z M480.657262,80.6910371 L480.657262,76.2965101 L480.710529,76.2965101 C481.040784,77.0529014 481.775869,77.7400456 483.011663,77.7400456 C484.822741,77.7400456 486.282257,76.3231436 486.282257,73.5372797 C486.282257,70.6502086 484.737514,69.3345139 483.027643,69.3345139 C481.733255,69.3345139 481.024804,70.0909052 480.710529,70.8419698 L480.630629,70.8419698 L480.630629,69.4410479 L478.052506,69.4410479 L478.052506,80.6910371 L480.657262,80.6910371 Z M482.111451,75.7105731 C481.157972,75.7105731 480.603995,74.8583012 480.603995,73.531953 C480.603995,72.1949515 481.157972,71.3693131 482.111451,71.3693131 C483.075584,71.3693131 483.608254,72.2162583 483.608254,73.531953 C483.608254,74.8529745 483.075584,75.7105731 482.111451,75.7105731 Z" id=".webp"></path>
      <path d="M688.2209,143.777333 C688.950657,143.777333 689.595188,143.159435 689.605841,142.392391 C689.595188,141.635999 688.950657,141.023429 688.2209,141.023429 C687.453855,141.023429 686.825304,141.635999 686.835958,142.392391 C686.825304,143.159435 687.453855,143.777333 688.2209,143.777333 Z M693.081411,134.487569 C693.821822,134.487569 694.418413,133.928265 694.418413,133.241121 C694.418413,132.553977 693.821822,132 693.081411,132 C692.346327,132 691.74441,132.553977 691.74441,133.241121 C691.74441,133.928265 692.346327,134.487569 693.081411,134.487569 Z M691.035959,146.691037 C693.076084,146.691037 694.386452,145.987913 694.386452,143.963767 L694.386452,135.441048 L691.781696,135.441048 L691.781696,143.9105 C691.781696,144.45915 691.541995,144.720158 690.828217,144.720158 C690.72701,144.720158 690.636456,144.714832 690.508615,144.698852 L690.508615,146.675057 C690.700376,146.68571 690.849524,146.691037 691.035959,146.691037 Z M699.092489,146.691037 L699.092489,142.29651 L699.145756,142.29651 C699.476012,143.052901 700.211096,143.740046 701.446891,143.740046 C703.257968,143.740046 704.717484,142.323144 704.717484,139.53728 C704.717484,136.650209 703.172741,135.334514 701.462871,135.334514 C700.168483,135.334514 699.460032,136.090905 699.145756,136.84197 L699.065856,136.84197 L699.065856,135.441048 L696.487733,135.441048 L696.487733,146.691037 L699.092489,146.691037 Z M700.546678,141.710573 C699.593199,141.710573 699.039222,140.858301 699.039222,139.531953 C699.039222,138.194951 699.593199,137.369313 700.546678,137.369313 C701.510811,137.369313 702.043481,138.216258 702.043481,139.531953 C702.043481,140.852975 701.510811,141.710573 700.546678,141.710573 Z M710.361025,143.777333 C712.507685,143.777333 713.91926,142.738626 714.217556,141.129963 L711.825868,141.060716 C711.623453,141.604039 711.090783,141.897008 710.408965,141.897008 C709.407546,141.897008 708.789649,141.23117 708.789649,140.229751 L708.789649,140.160504 L714.244189,140.160504 L714.244189,139.510646 C714.244189,136.815336 712.603566,135.334514 710.281125,135.334514 C707.809536,135.334514 706.22218,137.028404 706.22218,139.563913 C706.22218,142.184649 707.788229,143.777333 710.361025,143.777333 Z M711.820541,138.647721 L708.789649,138.647721 C708.826936,137.832736 709.471466,137.214839 710.334392,137.214839 C711.19199,137.214839 711.809887,137.811429 711.820541,138.647721 Z M719.845116,146.861492 C722.311378,146.861492 723.994615,145.737558 723.994615,143.654818 L723.994615,135.441048 L721.400512,135.441048 L721.400512,136.84197 L721.325939,136.84197 C721.011663,136.090905 720.297886,135.334514 719.008824,135.334514 C717.298954,135.334514 715.748884,136.650209 715.748884,139.5213 C715.748884,142.301837 717.22438,143.510998 719.019478,143.510998 C720.223312,143.510998 721.027643,142.951694 721.336592,142.195303 L721.427146,142.195303 L721.427146,143.633512 C721.427146,144.677545 720.787942,145.05574 719.914363,145.05574 C719.078071,145.05574 718.577362,144.736138 718.438867,144.230102 L715.972606,144.368596 C716.164367,145.801478 717.512022,146.861492 719.845116,146.861492 Z M719.925017,141.614693 C718.960884,141.614693 718.422887,140.831668 718.422887,139.5213 C718.422887,138.216258 718.955557,137.369313 719.925017,137.369313 C720.878496,137.369313 721.432473,138.194951 721.432473,139.5213 C721.432473,140.836994 720.873169,141.614693 719.925017,141.614693 Z" id=".jpeg"></path>
      <path d="M4.22941977,77.7720058 C6.69035492,77.7720058 8.45881915,76.4563111 8.46414585,74.6878468 C8.45881915,73.3242118 7.40945935,72.2109316 6.09909128,71.9925369 L6.09909128,71.9179631 C7.23900497,71.6835883 8.05398999,70.6981489 8.05931669,69.4996415 C8.05398999,67.8110778 6.43467335,66.5646301 4.22941977,66.5646301 C2.01883949,66.5646301 0.399522855,67.8110778 0.404849555,69.4996415 C0.399522855,70.6928222 1.20385447,71.6835883 2.36507496,71.9179631 L2.36507496,71.9925369 C1.03340009,72.2109316 -0.0053063042,73.3242118 -8.8817842e-16,74.6878468 C-0.0053063042,76.4563111 1.76848462,77.7720058 4.22941977,77.7720058 Z M4.22941977,71.2041854 C3.30790076,71.2041854 2.65271673,70.6022683 2.65271673,69.739343 C2.65271673,68.8870711 3.29724736,68.3011342 4.22941977,68.3011342 C5.15626548,68.3011342 5.80612281,68.8923978 5.80612281,69.739343 C5.80612281,70.6022683 5.14561208,71.2041854 4.22941977,71.2041854 Z M4.22941977,76.0781154 C3.13211968,76.0781154 2.39703515,75.4282581 2.39703515,74.506739 C2.39703515,73.5639132 3.16940658,72.8820957 4.22941977,72.8820957 C5.28410627,72.8820957 6.06180439,73.5639132 6.06180439,74.506739 C6.06180439,75.4335848 5.32139316,76.0781154 4.22941977,76.0781154 Z M14.8001582,77.8625597 C17.5434084,77.8625597 19.200012,75.7744935 19.2053513,72.1789714 C19.2106654,68.6100827 17.532755,66.5646301 14.8001582,66.5646301 C12.0622347,66.5646301 10.4003045,68.604756 10.394927,72.1789714 C10.3843244,75.7638401 12.0515813,77.857233 14.8001582,77.8625597 Z M14.8001582,75.9502746 C13.5483838,75.9502746 12.7387255,74.6931735 12.7440261,72.1789714 C12.7493789,69.7020561 13.5537105,68.4556085 14.8001582,68.4556085 C16.0412792,68.4556085 16.8509636,69.7020561 16.8509636,72.1789714 C16.8562642,74.6931735 16.0466059,75.9502746 14.8001582,75.9502746 Z M24.0658557,71.7475087 C25.6159252,71.7475087 26.4735238,70.6555353 26.4735238,69.3345139 L26.4735238,68.7592303 C26.4735238,67.4382089 25.637232,66.3355821 24.0658557,66.3355821 C22.5424196,66.3355821 21.6688409,67.4382089 21.6688409,68.7592303 L21.6688409,69.3345139 C21.6688409,70.6448819 22.5104594,71.7475087 24.0658557,71.7475087 Z M23.7675605,77.6228582 L31.2675533,66.7137777 L29.8772919,66.7137777 L22.3772919,77.6228582 L23.7675605,77.6228582 Z M24.0658557,70.3838737 C23.4373051,70.3838737 23.2295639,69.8565304 23.2295639,69.3345139 L23.2295639,68.7592303 C23.2295639,68.2531939 23.4319784,67.6992171 24.0658557,67.6992171 C24.7370198,67.6992171 24.9128009,68.2372138 24.9128009,68.7592303 L24.9128009,69.3345139 C24.9128009,69.8565304 24.715713,70.3838737 24.0658557,70.3838737 Z M29.6695435,78.0010539 C31.2142864,78.0010539 32.071885,76.8877737 32.071885,75.5774056 L32.071885,75.0021221 C32.071885,73.6811006 31.2355932,72.5784738 29.6695435,72.5784738 C28.1301274,72.5784738 27.267202,73.691754 27.267202,75.0021221 L27.267202,75.5774056 C27.267202,76.8877737 28.1088206,78.0010539 29.6695435,78.0010539 Z M29.6695435,76.6267654 C29.0196862,76.6267654 28.8172716,76.0834421 28.8172716,75.5774056 L28.8172716,75.0021221 C28.8172716,74.4801055 29.0303396,73.9421089 29.6695435,73.9421089 C30.3407076,73.9421089 30.511162,74.4801055 30.511162,75.0021221 L30.511162,75.5774056 C30.511162,76.0994222 30.3194008,76.6267654 29.6695435,76.6267654 Z M41.9367358,77.7826592 C44.0567622,77.7826592 45.5748715,76.7013392 45.5801982,75.0873493 C45.5748715,73.904822 44.8025001,73.196371 43.2151436,72.8714423 L41.7343212,72.5731471 C40.9726032,72.4080195 40.6902881,72.1470112 40.6956148,71.7528354 C40.6902881,71.2627791 41.2442648,70.9431771 41.9473892,70.9431771 C42.7357407,70.9431771 43.2044903,71.3746398 43.3163509,71.901983 L45.3937637,71.7741422 C45.1913492,70.2666863 43.9768617,69.3345139 41.9101023,69.3345139 C39.8167094,69.3345139 38.4370942,70.3039732 38.4424209,71.8806762 C38.4370942,73.1058171 39.2094657,73.8994953 40.8074755,74.2190973 L42.2243775,74.5014123 C42.9381553,74.6452332 43.2630839,74.9062415 43.2737373,75.3163974 C43.2630839,75.801127 42.7357407,76.1473625 41.9420625,76.1473625 C41.1324042,76.1473625 40.5944075,75.801127 40.4559133,75.1352896 L38.2240262,75.252477 C38.4370942,76.8185266 39.7687691,77.7826592 41.9367358,77.7826592 Z M49.7322624,77.6228582 L49.7322624,72.7116413 C49.7322624,71.8061024 50.3075459,71.2041854 51.0639372,71.2041854 C51.8096752,71.2041854 52.3103849,71.7155485 52.3103849,72.5198801 L52.3103849,77.6228582 L54.5103118,77.6228582 L54.5103118,72.6264141 C54.5103118,71.7794689 54.9950414,71.2041854 55.8206799,71.2041854 C56.545111,71.2041854 57.0884343,71.6569548 57.0884343,72.5678204 L57.0884343,77.6228582 L59.3522816,77.6228582 L59.3522816,72.1203777 C59.3522816,70.3465868 58.2975951,69.3345139 56.7741591,69.3345139 C55.5756517,69.3345139 54.6434793,69.9470843 54.3078972,70.8845834 L54.22267,70.8845834 C53.9616618,69.9364309 53.1253699,69.3345139 52.0014363,69.3345139 C50.8988096,69.3345139 50.0625177,69.9204508 49.721609,70.8845834 L49.6257284,70.8845834 L49.6257284,69.4410479 L47.4630884,69.4410479 L47.4630884,77.6228582 L49.7322624,77.6228582 Z M63.92516,77.7773325 C65.1343208,77.7773325 65.9173456,77.2499893 66.3168481,76.4882712 L66.3807685,76.4882712 L66.3807685,77.6228582 L68.5327551,77.6228582 L68.5327551,72.1043976 C68.5327551,70.1548256 66.8814782,69.3345139 65.059747,69.3345139 C63.0995216,69.3345139 61.8104604,70.272013 61.4961851,71.7634888 L63.5949047,71.9339432 C63.749379,71.3906199 64.2341086,70.9911174 65.0490936,70.9911174 C65.8214651,70.9911174 66.2635811,71.3799665 66.2635811,72.0511306 L66.2635811,72.0830908 C66.2635811,72.610434 65.7042777,72.6796811 64.2820489,72.8181753 C62.6627323,72.9673229 61.2085433,73.5106462 61.2085433,75.3377042 C61.2085433,76.9570208 62.3644371,77.7773325 63.92516,77.7773325 Z M64.5750174,76.2112829 C63.8772197,76.2112829 63.37651,75.8863542 63.37651,75.2631304 C63.37651,74.6239264 63.9038532,74.3096512 64.7028582,74.1977905 C65.1982412,74.1285434 66.0078995,74.011356 66.2795612,73.8302482 L66.2795612,74.6985002 C66.2795612,75.5560988 65.5711102,76.2112829 64.5750174,76.2112829 Z M73.0150749,77.6228582 L73.0150749,66.7137777 L70.7459009,66.7137777 L70.7459009,77.6228582 L73.0150749,77.6228582 Z M77.5453306,77.6228582 L77.5453306,66.7137777 L75.2761566,66.7137777 L75.2761566,77.6228582 L77.5453306,77.6228582 Z M83.5351019,77.7826592 C85.5592477,77.7826592 86.9228828,76.7972198 87.2424847,75.2791105 L85.1437651,75.1406163 C84.9147171,75.7638401 84.3287801,76.0887688 83.5723888,76.0887688 C82.4378018,76.0887688 81.7186974,75.3377042 81.7186974,74.11789 L81.7186974,74.1125633 L87.290425,74.1125633 L87.290425,73.4893394 C87.290425,70.7088023 85.607188,69.3345139 83.444548,69.3345139 C81.0368798,69.3345139 79.4761569,71.0443844 79.4761569,73.5692399 C79.4761569,76.1633426 81.015573,77.7826592 83.5351019,77.7826592 Z M85.1544185,72.7063146 L81.7186974,72.7063146 C81.7666377,71.7741422 82.4750887,71.0284043 83.4818349,71.0284043 C84.4672743,71.0284043 85.1490918,71.7315286 85.1544185,72.7063146 Z M91.49043,77.6228582 L91.49043,72.9939564 C91.49043,71.9872102 92.2255145,71.2947393 93.226934,71.2947393 C93.5412093,71.2947393 93.9726719,71.3480063 94.1857399,71.4172534 L94.1857399,69.403761 C93.9833253,69.3558207 93.7010103,69.3238605 93.4719622,69.3238605 C92.5557699,69.3238605 91.8047053,69.8565304 91.5064101,70.8686033 L91.4211829,70.8686033 L91.4211829,69.4410479 L89.221256,69.4410479 L89.221256,77.6228582 L91.49043,77.6228582 Z M103.001224,77.7347189 C103.587161,77.7134121 104.002644,77.5962247 104.231692,77.5216509 L103.874803,75.8330872 C103.762943,75.854394 103.523241,75.907661 103.310173,75.907661 C102.857404,75.907661 102.543128,75.7372066 102.543128,75.1086561 L102.543128,71.1455917 L104.082544,71.1455917 L104.082544,69.4410479 L102.543128,69.4410479 L102.543128,67.4808225 L100.273954,67.4808225 L100.273954,69.4410479 L99.1553475,69.4410479 L99.1553475,71.1455917 L100.273954,71.1455917 L100.273954,75.4069513 C100.263301,77.0102878 101.355274,77.803966 103.001224,77.7347189 Z M108.447674,77.6228582 L108.447674,72.8927491 C108.453001,71.8380626 109.097532,71.2201655 110.024377,71.2201655 C110.945896,71.2201655 111.48922,71.8114291 111.483893,72.8181753 L111.483893,77.6228582 L113.753086,77.6228582 L113.753086,72.4133462 C113.758394,70.4957343 112.629133,69.3345139 110.92459,69.3345139 C109.683469,69.3345139 108.852503,69.9204508 108.479635,70.8845834 L108.383754,70.8845834 L108.383754,66.7137777 L106.1785,66.7137777 L106.1785,77.6228582 L108.447674,77.6228582 Z M118.325941,77.7773325 C119.535102,77.7773325 120.318127,77.2499893 120.717629,76.4882712 L120.78155,76.4882712 L120.78155,77.6228582 L122.933536,77.6228582 L122.933536,72.1043976 C122.933536,70.1548256 121.282259,69.3345139 119.460528,69.3345139 C117.500303,69.3345139 116.211242,70.272013 115.896966,71.7634888 L117.995686,71.9339432 C118.15016,71.3906199 118.63489,70.9911174 119.449875,70.9911174 C120.222246,70.9911174 120.664362,71.3799665 120.664362,72.0511306 L120.664362,72.0830908 C120.664362,72.610434 120.105059,72.6796811 118.68283,72.8181753 C117.063514,72.9673229 115.609325,73.5106462 115.609325,75.3377042 C115.609325,76.9570208 116.765218,77.7773325 118.325941,77.7773325 Z M118.975799,76.2112829 C118.278001,76.2112829 117.777291,75.8863542 117.777291,75.2631304 C117.777291,74.6239264 118.304634,74.3096512 119.103639,74.1977905 C119.599022,74.1285434 120.408681,74.011356 120.680342,73.8302482 L120.680342,74.6985002 C120.680342,75.5560988 119.971891,76.2112829 118.975799,76.2112829 Z M127.415856,77.6228582 L127.415856,72.8927491 C127.421183,71.8380626 128.049733,71.2201655 128.965926,71.2201655 C129.876791,71.2201655 130.425441,71.8167558 130.420115,72.8181753 L130.420115,77.6228582 L132.689289,77.6228582 L132.689289,72.4133462 C132.689289,70.5063877 131.570682,69.3345139 129.866138,69.3345139 C128.65165,69.3345139 127.772745,69.9311042 127.405203,70.8845834 L127.309322,70.8845834 L127.309322,69.4410479 L125.146682,69.4410479 L125.146682,77.6228582 L127.415856,77.6228582 Z M140.178428,77.7613524 C140.860246,77.7613524 141.451509,77.1913956 141.456836,76.4829445 C141.451509,75.7851469 140.860246,75.2151901 140.178428,75.2151901 C139.475304,75.2151901 138.894693,75.7851469 138.90002,76.4829445 C138.894693,77.1913956 139.475304,77.7613524 140.178428,77.7613524 Z M144.895119,68.3863614 C145.571609,68.3863614 146.125586,67.8696715 146.125586,67.2357943 C146.125586,66.6072437 145.571609,66.0905539 144.895119,66.0905539 C144.223954,66.0905539 143.669978,66.6072437 143.669978,67.2357943 C143.669978,67.8696715 144.223954,68.3863614 144.895119,68.3863614 Z M142.934893,80.6910371 C144.863158,80.6910371 146.035032,79.9239924 146.035032,78.0276874 L146.035032,69.4410479 L143.765858,69.4410479 L143.765858,77.9904005 C143.765858,78.6082976 143.50485,78.9172462 142.775092,78.9172462 C142.679212,78.9172462 142.593984,78.9172462 142.476797,78.9065928 L142.476797,80.6803837 C142.641925,80.6857104 142.775092,80.6910371 142.934893,80.6910371 Z M150.565288,80.6910371 L150.565288,76.3124902 L150.634535,76.3124902 C150.94881,76.9943077 151.635955,77.7560257 152.956976,77.7560257 C154.821321,77.7560257 156.27551,76.28053 156.27551,73.5426064 C156.27551,70.7301091 154.7574,69.3345139 152.962303,69.3345139 C151.593341,69.3345139 150.938157,70.1494989 150.634535,70.8153363 L150.533328,70.8153363 L150.533328,69.4410479 L148.296114,69.4410479 L148.296114,80.6910371 L150.565288,80.6910371 Z M152.237872,75.9502746 C151.145898,75.9502746 150.517348,74.9914687 150.517348,73.531953 C150.517348,72.0724374 151.135245,71.140265 152.237872,71.140265 C153.361805,71.140265 153.958396,72.115051 153.958396,73.531953 C153.958396,74.9595085 153.351152,75.9502746 152.237872,75.9502746 Z M161.961664,77.7826592 C163.98581,77.7826592 165.349445,76.7972198 165.669047,75.2791105 L163.570328,75.1406163 C163.34128,75.7638401 162.755343,76.0887688 161.998951,76.0887688 C160.864364,76.0887688 160.14526,75.3377042 160.14526,74.11789 L160.14526,74.1125633 L165.716988,74.1125633 L165.716988,73.4893394 C165.716988,70.7088023 164.03375,69.3345139 161.871111,69.3345139 C159.463442,69.3345139 157.902719,71.0443844 157.902719,73.5692399 C157.902719,76.1633426 159.442136,77.7826592 161.961664,77.7826592 Z M163.580981,72.7063146 L160.14526,72.7063146 C160.1932,71.7741422 160.901651,71.0284043 161.908397,71.0284043 C162.893837,71.0284043 163.575654,71.7315286 163.580981,72.7063146 Z M171.333895,80.8614915 C173.672316,80.8614915 175.334246,79.7961516 175.334246,77.7027587 L175.334246,69.4410479 L173.081052,69.4410479 L173.081052,70.8153363 L172.995825,70.8153363 C172.692203,70.1494989 172.026365,69.3345139 170.657404,69.3345139 C168.862306,69.3345139 167.344197,70.7301091 167.344197,73.5159729 C167.344197,76.2379164 168.819692,77.5056708 170.66273,77.5056708 C171.967772,77.5056708 172.69753,76.8504868 172.995825,76.173996 L173.091705,76.173996 L173.091705,77.6707985 C173.091705,78.7947321 172.372601,79.2315215 171.387162,79.2315215 C170.385742,79.2315215 169.879706,78.7947321 169.693271,78.2993491 L167.594552,78.5816641 C167.866213,79.8707254 169.128641,80.8614915 171.333895,80.8614915 Z M171.381835,75.801127 C170.268555,75.801127 169.661311,74.9168949 169.661311,73.5053195 C169.661311,72.115051 170.257901,71.140265 171.381835,71.140265 C172.484462,71.140265 173.102359,72.0724374 173.102359,73.5053195 C173.102359,74.9488551 172.473808,75.801127 171.381835,75.801127 Z" id="80%smallerthan.jpeg"></path>
      <path d="M2.45030215,143.622858 L2.45030215,132.713778 L0.181128177,132.713778 L0.181128177,143.622858 L2.45030215,143.622858 Z M7.04447822,143.777333 C8.253639,143.777333 9.03666382,143.249989 9.43616628,142.488271 L9.50008668,142.488271 L9.50008668,143.622858 L11.6520733,143.622858 L11.6520733,138.104398 C11.6520733,136.154826 10.0007964,135.334514 8.17906521,135.334514 C6.21883981,135.334514 4.92977854,136.272013 4.61550327,137.763489 L6.71422286,137.933943 C6.86869714,137.39062 7.35342679,136.991117 8.16841181,136.991117 C8.94078323,136.991117 9.38289929,137.379966 9.38289929,138.051131 L9.38289929,138.083091 C9.38289929,138.610434 8.82359585,138.679681 7.40136709,138.818175 C5.78205045,138.967323 4.3278615,139.510646 4.3278615,141.337704 C4.3278615,142.957021 5.48375528,143.777333 7.04447822,143.777333 Z M7.69433556,142.211283 C6.99653793,142.211283 6.49582818,141.886354 6.49582818,141.26313 C6.49582818,140.623926 7.02317143,140.309651 7.82217635,140.19779 C8.3175594,140.128543 9.12721772,140.011356 9.39887939,139.830248 L9.39887939,140.6985 C9.39887939,141.556099 8.69042836,142.211283 7.69433556,142.211283 Z M16.1343931,143.622858 L16.1343931,138.993956 C16.1343931,137.98721 16.8694776,137.294739 17.8708971,137.294739 C18.1851724,137.294739 18.616635,137.348006 18.829703,137.417253 L18.829703,135.403761 C18.6272884,135.355821 18.3449733,135.32386 18.1159253,135.32386 C17.199733,135.32386 16.4486683,135.85653 16.1503732,136.868603 L16.065146,136.868603 L16.065146,135.441048 L13.8652191,135.441048 L13.8652191,143.622858 L16.1343931,143.622858 Z M23.7488093,146.861492 C26.0872304,146.861492 27.7491606,145.796152 27.7491606,143.702759 L27.7491606,135.441048 L25.4959667,135.441048 L25.4959667,136.815336 L25.4107396,136.815336 C25.1071177,136.149499 24.4412803,135.334514 23.0723185,135.334514 C21.2772208,135.334514 19.7591114,136.730109 19.7591114,139.515973 C19.7591114,142.237916 21.2346072,143.505671 23.0776452,143.505671 C24.3826866,143.505671 25.1124444,142.850487 25.4107396,142.173996 L25.5066201,142.173996 L25.5066201,143.670799 C25.5066201,144.794732 24.7875157,145.231521 23.8020763,145.231521 C22.8006568,145.231521 22.2946204,144.794732 22.1081859,144.299349 L20.0094663,144.581664 C20.281128,145.870725 21.5435557,146.861492 23.7488093,146.861492 Z M23.7967496,141.801127 C22.6834694,141.801127 22.0762257,140.916895 22.0762257,139.50532 C22.0762257,138.115051 22.672816,137.140265 23.7967496,137.140265 C24.8993764,137.140265 25.5172735,138.072437 25.5172735,139.50532 C25.5172735,140.948855 24.888723,141.801127 23.7967496,141.801127 Z M33.7389371,143.782659 C35.7630829,143.782659 37.126718,142.79722 37.4463199,141.27911 L35.3476004,141.140616 C35.1185523,141.76384 34.5326153,142.088769 33.776224,142.088769 C32.641637,142.088769 31.9225326,141.337704 31.9225326,140.11789 L31.9225326,140.112563 L37.4942602,140.112563 L37.4942602,139.489339 C37.4942602,136.708802 35.8110232,135.334514 33.6483832,135.334514 C31.2407151,135.334514 29.6799921,137.044384 29.6799921,139.56924 C29.6799921,142.163343 31.2194083,143.782659 33.7389371,143.782659 Z M35.3582538,138.706315 L31.9225326,138.706315 C31.9704729,137.774142 32.6789239,137.028404 33.6856701,137.028404 C34.6711095,137.028404 35.3529271,137.731529 35.3582538,138.706315 Z M41.6942652,143.622858 L41.6942652,138.993956 C41.6942652,137.98721 42.4293497,137.294739 43.4307692,137.294739 C43.7450445,137.294739 44.1765072,137.348006 44.3895751,137.417253 L44.3895751,135.403761 C44.1871606,135.355821 43.9048455,135.32386 43.6757974,135.32386 C42.7596051,135.32386 42.0085405,135.85653 41.7102453,136.868603 L41.6250181,136.868603 L41.6250181,135.441048 L39.4250912,135.441048 L39.4250912,143.622858 L41.6942652,143.622858 Z M53.2050597,143.734719 C53.7909967,143.713412 54.2064792,143.596225 54.4355273,143.521651 L54.0786384,141.833087 C53.9667777,141.854394 53.7270763,141.907661 53.5140083,141.907661 C53.0612388,141.907661 52.7469636,141.737207 52.7469636,141.108656 L52.7469636,137.145592 L54.2863797,137.145592 L54.2863797,135.441048 L52.7469636,135.441048 L52.7469636,133.480822 L50.4777896,133.480822 L50.4777896,135.441048 L49.3591827,135.441048 L49.3591827,137.145592 L50.4777896,137.145592 L50.4777896,141.406951 C50.4671362,143.010288 51.5591096,143.803966 53.2050597,143.734719 Z M58.6515095,143.622858 L58.6515095,138.892749 C58.6568362,137.838063 59.3013669,137.220165 60.2282126,137.220165 C61.1497316,137.220165 61.6930549,137.811429 61.6877282,138.818175 L61.6877282,143.622858 L63.956921,143.622858 L63.956921,138.413346 C63.9622289,136.495734 62.8329686,135.334514 61.1284248,135.334514 C59.8873038,135.334514 59.0563387,135.920451 58.6834697,136.884583 L58.5875891,136.884583 L58.5875891,132.713778 L56.3823356,132.713778 L56.3823356,143.622858 L58.6515095,143.622858 Z M68.5297765,143.777333 C69.7389373,143.777333 70.5219621,143.249989 70.9214646,142.488271 L70.985385,142.488271 L70.985385,143.622858 L73.1373716,143.622858 L73.1373716,138.104398 C73.1373716,136.154826 71.4860947,135.334514 69.6643635,135.334514 C67.7041381,135.334514 66.4150768,136.272013 66.1008016,137.763489 L68.1995212,137.933943 C68.3539954,137.39062 68.8387251,136.991117 69.6537101,136.991117 C70.4260815,136.991117 70.8681976,137.379966 70.8681976,138.051131 L70.8681976,138.083091 C70.8681976,138.610434 70.3088941,138.679681 68.8866654,138.818175 C67.2673487,138.967323 65.8131598,139.510646 65.8131598,141.337704 C65.8131598,142.957021 66.9690536,143.777333 68.5297765,143.777333 Z M69.1796339,142.211283 C68.4818362,142.211283 67.9811265,141.886354 67.9811265,141.26313 C67.9811265,140.623926 68.5084697,140.309651 69.3074746,140.19779 C69.8028577,140.128543 70.612516,140.011356 70.8841777,139.830248 L70.8841777,140.6985 C70.8841777,141.556099 70.1757267,142.211283 69.1796339,142.211283 Z M77.6196914,143.622858 L77.6196914,138.892749 C77.6250181,137.838063 78.2535686,137.220165 79.1697609,137.220165 C80.0806265,137.220165 80.6292766,137.816756 80.6239499,138.818175 L80.6239499,143.622858 L82.8931238,143.622858 L82.8931238,138.413346 C82.8931238,136.506388 81.7745169,135.334514 80.0699731,135.334514 C78.8554856,135.334514 77.9765802,135.931104 77.609038,136.884583 L77.5131574,136.884583 L77.5131574,135.441048 L75.3505174,135.441048 L75.3505174,143.622858 L77.6196914,143.622858 Z M91.3250891,143.622858 L91.3250891,138.892749 C91.3304158,137.838063 91.9589663,137.220165 92.8751586,137.220165 C93.7860242,137.220165 94.3346743,137.816756 94.3293476,138.818175 L94.3293476,143.622858 L96.5985216,143.622858 L96.5985216,138.413346 C96.5985216,136.506388 95.4799147,135.334514 93.7753708,135.334514 C92.5608834,135.334514 91.6819779,135.931104 91.3144357,136.884583 L91.2185551,136.884583 L91.2185551,135.441048 L89.0559151,135.441048 L89.0559151,143.622858 L91.3250891,143.622858 Z M102.561664,143.782659 C104.58581,143.782659 105.949445,142.79722 106.269047,141.27911 L104.170328,141.140616 C103.94128,141.76384 103.355343,142.088769 102.598951,142.088769 C101.464364,142.088769 100.74526,141.337704 100.74526,140.11789 L100.74526,140.112563 L106.316988,140.112563 L106.316988,139.489339 C106.316988,136.708802 104.63375,135.334514 102.471111,135.334514 C100.063442,135.334514 98.5027194,137.044384 98.5027194,139.56924 C98.5027194,142.163343 100.042136,143.782659 102.561664,143.782659 Z M104.180981,138.706315 L100.74526,138.706315 C100.7932,137.774142 101.501651,137.028404 102.508397,137.028404 C103.493837,137.028404 104.175654,137.731529 104.180981,138.706315 Z M111.944548,143.782659 C114.123168,143.782659 115.49213,142.504251 115.598664,140.623926 L113.457331,140.623926 C113.324163,141.497505 112.74888,141.987561 111.971181,141.987561 C110.911168,141.987561 110.224024,141.098003 110.224024,139.531953 C110.224024,137.98721 110.916495,137.102978 111.971181,137.102978 C112.802147,137.102978 113.334817,137.651628 113.457331,138.466613 L115.598664,138.466613 C115.502783,136.575635 114.069901,135.334514 111.933895,135.334514 C109.451653,135.334514 107.917563,137.055038 107.917563,139.563913 C107.917563,142.051482 109.425019,143.782659 111.944548,143.782659 Z M121.236877,143.782659 C123.261023,143.782659 124.624658,142.79722 124.94426,141.27911 L122.845541,141.140616 C122.616493,141.76384 122.030556,142.088769 121.274164,142.088769 C120.139577,142.088769 119.420473,141.337704 119.420473,140.11789 L119.420473,140.112563 L124.992201,140.112563 L124.992201,139.489339 C124.992201,136.708802 123.308964,135.334514 121.146324,135.334514 C118.738655,135.334514 117.177932,137.044384 117.177932,139.56924 C117.177932,142.163343 118.717349,143.782659 121.236877,143.782659 Z M122.856194,138.706315 L119.420473,138.706315 C119.468413,137.774142 120.176864,137.028404 121.18361,137.028404 C122.16905,137.028404 122.850867,137.731529 122.856194,138.706315 Z M130.273526,143.782659 C132.393552,143.782659 133.911661,142.701339 133.916988,141.087349 C133.911661,139.904822 133.13929,139.196371 131.551933,138.871442 L130.071111,138.573147 C129.309393,138.408019 129.027078,138.147011 129.032405,137.752835 C129.027078,137.262779 129.581055,136.943177 130.284179,136.943177 C131.07253,136.943177 131.54128,137.37464 131.653141,137.901983 L133.730554,137.774142 C133.528139,136.266686 132.313651,135.334514 130.246892,135.334514 C128.153499,135.334514 126.773884,136.303973 126.779211,137.880676 C126.773884,139.105817 127.546255,139.899495 129.144265,140.219097 L130.561167,140.501412 C131.274945,140.645233 131.599874,140.906242 131.610527,141.316397 C131.599874,141.801127 131.07253,142.147362 130.278852,142.147362 C129.469194,142.147362 128.931197,141.801127 128.792703,141.13529 L126.560816,141.252477 C126.773884,142.818527 128.105559,143.782659 130.273526,143.782659 Z M139.150372,143.782659 C141.270399,143.782659 142.788508,142.701339 142.793835,141.087349 C142.788508,139.904822 142.016136,139.196371 140.42878,138.871442 L138.947958,138.573147 C138.18624,138.408019 137.903924,138.147011 137.909251,137.752835 C137.903924,137.262779 138.457901,136.943177 139.161026,136.943177 C139.949377,136.943177 140.418127,137.37464 140.529987,137.901983 L142.6074,137.774142 C142.404986,136.266686 141.190498,135.334514 139.123739,135.334514 C137.030346,135.334514 135.650731,136.303973 135.656057,137.880676 C135.650731,139.105817 136.423102,139.899495 138.021112,140.219097 L139.438014,140.501412 C140.151792,140.645233 140.47672,140.906242 140.487374,141.316397 C140.47672,141.801127 139.949377,142.147362 139.155699,142.147362 C138.346041,142.147362 137.808044,141.801127 137.66955,141.13529 L135.437663,141.252477 C135.650731,142.818527 136.982405,143.782659 139.150372,143.782659 Z M147.009819,143.777333 C148.21898,143.777333 149.002005,143.249989 149.401507,142.488271 L149.465428,142.488271 L149.465428,143.622858 L151.617414,143.622858 L151.617414,138.104398 C151.617414,136.154826 149.966137,135.334514 148.144406,135.334514 C146.184181,135.334514 144.895119,136.272013 144.580844,137.763489 L146.679564,137.933943 C146.834038,137.39062 147.318768,136.991117 148.133753,136.991117 C148.906124,136.991117 149.34824,137.379966 149.34824,138.051131 L149.34824,138.083091 C149.34824,138.610434 148.788937,138.679681 147.366708,138.818175 C145.747391,138.967323 144.293202,139.510646 144.293202,141.337704 C144.293202,142.957021 145.449096,143.777333 147.009819,143.777333 Z M147.659676,142.211283 C146.961879,142.211283 146.461169,141.886354 146.461169,141.26313 C146.461169,140.623926 146.988512,140.309651 147.787517,140.19779 C148.2829,140.128543 149.092559,140.011356 149.36422,139.830248 L149.36422,140.6985 C149.36422,141.556099 148.655769,142.211283 147.659676,142.211283 Z M156.099734,143.622858 L156.099734,138.993956 C156.099734,137.98721 156.834818,137.294739 157.836238,137.294739 C158.150513,137.294739 158.581976,137.348006 158.795044,137.417253 L158.795044,135.403761 C158.592629,135.355821 158.310314,135.32386 158.081266,135.32386 C157.165074,135.32386 156.414009,135.85653 156.115714,136.868603 L156.030487,136.868603 L156.030487,135.441048 L153.83056,135.441048 L153.83056,143.622858 L156.099734,143.622858 Z M162.068201,146.691037 C163.756764,146.691037 164.65165,145.828112 165.115073,144.50709 L168.295112,135.441048 L165.892771,135.441048 L164.1829,141.449565 L164.097673,141.449565 L162.403783,135.441048 L160.017421,135.441048 L162.952433,143.857233 L162.819265,144.203468 C162.52097,144.970513 161.951013,145.0078 161.152008,144.762772 L160.640645,146.456662 C160.965574,146.595157 161.492917,146.691037 162.068201,146.691037 Z" id="largerthannecessary"></path>
  </g>
</svg>