<svg class="home-illustration floating" width="400px" height="277px" viewBox="0 0 400 277" version="1.1" xmlns="http://www.w3.org/2000/svg" xmlns:xlink="http://www.w3.org/1999/xlink">
  <g id="home-illustration-06" stroke="none" stroke-width="1" fill="none" fill-rule="evenodd">
      <path d="M367.246782,191.10866 C367.05682,191.10866 366.869873,191.119226 366.681419,191.123755 L366.681419,191.10866 L288.284473,191.10866 L288.284473,191.065642 C273.790083,190.281491 262.277793,178.26866 262.277793,163.561491 C262.277793,148.854321 273.790083,136.841491 288.284473,136.05734 L288.284473,136.014321 L372.711954,136.014321 L372.711954,135.985642 C387.174683,135.391679 398.718633,123.47017 398.718633,108.844509 C398.718633,94.2188491 387.174683,82.2973397 372.711954,81.7033774 L372.711954,81.6746982 L335.021114,81.6746982 C318.48162,81.6746982 312.466162,70.0799812 310.274816,61.6339435 C309.456925,59.0256416 309.014435,56.2513019 309.014435,53.3728114 C309.014435,53.3199812 309.018204,53.2679057 309.018204,53.2150755 C309.015188,53.0830001 309.014435,52.9954529 309.014435,52.9954529 C308.260618,25.8256416 272.831228,25.8256416 272.831228,25.8256416 L58.7472589,25.8256416 C43.3430127,25.8256416 30.8560376,38.3275284 30.8560376,53.7501699 C30.8560376,69.1728114 43.3430127,81.6746982 58.7472589,81.6746982 L110.760618,81.6746982 L110.760618,81.7033774 C125.4314,82.2973397 137.144205,94.3879057 137.144205,109.221868 C137.144205,124.05583 125.4314,136.146396 110.760618,136.740359 L110.760618,136.769038 L29.7253124,136.769038 C29.7283276,136.766019 29.7313429,136.77583 29.7336043,136.778849 C29.6047017,136.77734 29.4780605,136.769038 29.348404,136.769038 C15.193986,136.769038 3.71863297,148.258094 3.71863297,162.429415 C3.71863297,176.600736 15.193986,188.089793 29.348404,188.089793 C29.4750452,188.089793 29.599425,188.082245 29.7253124,188.079981 L29.7253124,188.089793 L119.806419,188.844509 L119.806419,188.883 C124.031562,189.264887 127.344587,192.816585 127.344587,197.146396 C127.344587,201.476208 124.031562,205.027906 119.806419,205.409793 L119.806419,205.448283 L89.6537475,205.448283 L89.6537475,205.463377 C78.9879937,205.763 70.4314192,214.507906 70.4314192,225.259604 C70.4314192,236.200736 79.291028,245.070925 90.2191101,245.070925 C90.2824307,245.070925 90.3442437,245.066396 90.4075643,245.066396 L90.4075643,245.070925 L206.872259,245.825642 L366.681419,245.070925 L366.681419,245.05583 C366.869873,245.060359 367.05682,245.070925 367.246782,245.070925 C382.130141,245.070925 394.195732,232.990925 394.195732,218.089793 C394.195732,203.18866 382.130141,191.10866 367.246782,191.10866" id="Fill-1" fill="#39ACC6" opacity="0.0994931176" transform="translate(201.218633, 135.825642) rotate(2.000000) translate(-201.218633, -135.825642) "></path>
      <g id="Group-6" transform="translate(257.000000, 128.500000) scale(-1, 1) translate(-257.000000, -128.500000) translate(117.000000, 31.000000)">
          <g id="Group-145">
              <path d="M60.4800012,81.5360016 C60.4800012,81.5360016 48.2605718,96.3852744 37.8885412,123.664216 C37.8885412,123.664216 29.6475083,140.855227 16.5760003,153.216003 C16.5760003,153.216003 30.9264274,142.702534 37.320382,134.035732 C37.320382,134.035732 52.3729167,103.773221 56.8528187,101.357783 C56.8528187,101.357783 57.9410696,83.8267905 60.4800012,81.5360016" id="Fill-1" fill="#E9E9DC"></path>
              <path d="M60.4800012,81.5360016 C60.4800012,81.5360016 48.2605718,96.3852744 37.8885412,123.664216 C37.8885412,123.664216 29.6475083,140.855227 16.5760003,153.216003 C16.5760003,153.216003 30.9264274,142.702534 37.320382,134.035732 C37.320382,134.035732 52.3729167,103.773221 56.8528187,101.357783 C56.8528187,101.357783 57.9410696,83.8267905 60.4800012,81.5360016 Z" id="Stroke-3" stroke="#000000" stroke-width="2.24000004" stroke-linecap="round" stroke-linejoin="round"></path>
              <path d="M242.32122,95.8720018 C242.32122,95.8720018 253.061189,149.004465 227.990889,155.220332 C227.990889,155.220332 215.94892,174.702096 184.519385,177.408003 C184.519385,177.408003 139.82896,177.408003 123.200002,147.928765" id="Stroke-5" stroke="#020202" stroke-width="3.13600006" stroke-linecap="round" stroke-linejoin="round"></path>
              <g id="Group-10" transform="translate(78.400002, 121.856002)">
                  <path d="M0.306746817,0.0597109744 C0.306746817,0.0597109744 0.0356160007,52.3036033 0.306746817,55.8791992 C0.306746817,55.8791992 11.9008781,65.1584772 23.3442028,55.8791992 L23.6153336,10.8218115" id="Fill-7" fill="#E9E9DC"></path>
                  <path d="M0.306746817,0.0597109744 C0.306746817,0.0597109744 0.0356160007,52.3036033 0.306746817,55.8791992 C0.306746817,55.8791992 11.9008781,65.1584772 23.3442028,55.8791992 L23.6153336,10.8218115" id="Stroke-9" stroke="#000000" stroke-width="3.58400007"></path>
              </g>
              <path d="M100.945742,168.000003 C100.945742,168.000003 82.1995383,168.139213 78.4000015,179.820605 C78.4000015,179.820605 88.8615107,188.17029 101.696002,178.743901 L100.945742,168.000003 Z" id="Fill-11" fill="#020202"></path>
              <path d="M140.224003,159.331992 C140.224003,159.331992 140.224003,166.399134 132.929978,169.932866 L132.929978,177.815806 C132.929978,177.815806 131.038935,185.97025 128.067614,177.815806 L128.067614,173.195093 C128.067614,173.195093 125.095975,169.117389 123.204931,172.922946 L123.204931,177.54398 C123.204931,177.54398 121.313888,181.621363 117.261652,177.815806 L117.261652,173.738423 C117.261652,173.738423 113.750033,169.66104 111.048543,174.01057 L111.048543,179.446759 C111.048543,179.446759 107.806435,183.795967 106.18586,179.446759 L106.18586,168.301913 C106.18586,168.301913 98.3515369,163.953025 97.8115581,157.701038 C97.8115581,157.701038 94.5694501,146.556192 103.21422,141.120003" id="Fill-13" fill="#FFBAA6"></path>
              <g id="Group-18" transform="translate(212.800004, 147.840003)">
                  <path d="M23.4723242,0.0556306656 C23.4723242,0.0556306656 23.743455,33.9100847 23.4723242,37.7060029 C23.4723242,37.7060029 14.7319651,44.187473 0.43486816,37.7060029 L0.163737344,10.3201786" id="Fill-15" fill="#E9E9DC"></path>
                  <path d="M23.4723242,0.0556306656 C23.4723242,0.0556306656 23.743455,33.9100847 23.4723242,37.7060029 C23.4723242,37.7060029 14.7319651,44.187473 0.43486816,37.7060029 L0.163737344,10.3201786" id="Stroke-17" stroke="#000000" stroke-width="3.58400007"></path>
              </g>
              <polygon id="Fill-19" fill="#C6C6C6" points="236.544005 150.080003 224.812268 168.163985 224.812268 185.43621 213.352063 185.472004 212.800004 168.163985 228.250266 155.262469"></polygon>
              <path d="M149.367059,146.411919 C147.353456,152.92216 134.406889,154.72704 120.450146,150.443852 C106.493404,146.160023 96.811593,137.410246 98.824875,130.900005 C100.838478,124.389764 113.785045,122.584884 127.741466,126.868393 C141.69853,131.151901 151.380662,139.901998 149.367059,146.411919" id="Fill-21" fill="#E9E9DC"></path>
              <path d="M190.400004,72.7951819 C190.400004,72.7951819 135.485676,76.3150324 98.9336277,71.7452949 C98.9336277,71.7452949 58.7267281,59.8867088 56.1159363,96.0988204 C56.1159363,96.0988204 61.3378411,140.484318 56.1159363,158.87532 C56.1159363,158.87532 55.855082,185.440351 56.1159363,189.016388 C56.1159363,189.016388 68.6632852,199.185523 82.1631377,189.016388 L82.4243133,163.217743 C82.4243133,163.217743 84.4016017,149.121324 114.250144,135.923892" id="Fill-23" fill="#E9E9DC"></path>
              <path d="M97.2160019,151.872003 C97.2160019,151.872003 120.679412,164.603033 139.776003,161.839203 L136.6022,167.183037 L132.988579,169.140937 L133.003304,173.232501 L132.627825,177.236667 L130.825336,179.648003 L128.152172,178.584397 L127.580791,174.40737 L125.598085,172.046667 L123.400271,171.211068 L121.974221,173.604989 L121.974221,177.10412 L120.731268,179.648003 L116.765536,179.648003 L116.33628,176.01052 L115.32348,172.77326 L112.259153,172.409802 L111.177531,174.40737 L111.068377,177.236667 L108.718835,179.456116 L105.096251,178.766287 L106.194197,173.232501 L106.194197,168.454979 L103.065849,166.05364 L100.256962,163.005043 L97.2160019,151.872003 Z" id="Fill-25" fill="#DBA295"></path>
              <path d="M140.224003,159.233555 C140.224003,159.233555 140.224003,166.262498 132.929978,169.77713 L132.929978,177.617463 C132.929978,177.617463 130.21795,181.9601 127.748289,177.617463 L127.748289,173.021725 C127.748289,173.021725 123.818674,168.966061 121.927631,172.751049 L121.927631,177.986247 C121.927631,177.986247 119.190376,181.9601 116.303676,177.617463 L116.303676,173.562118 C116.303676,173.562118 113.750033,169.506774 111.048543,173.832794 L111.048543,178.28089 C111.048543,178.28089 108.100214,181.00139 106.18586,178.28089 L106.18586,168.154993 C106.18586,168.154993 98.3515369,163.829611 97.8115581,157.611417 C97.8115581,157.611417 94.5694501,146.526809 103.21422,141.120003" id="Stroke-27" stroke="#000000" stroke-width="3.58400007" stroke-linecap="round" stroke-linejoin="round"></path>
              <path d="M224.896004,114.688002 C224.896004,131.512675 198.921296,145.152003 166.879682,145.152003 C134.838711,145.152003 108.864002,131.512675 108.864002,114.688002 C108.864002,97.8633291 134.838711,84.2240016 166.879682,84.2240016 C198.921296,84.2240016 224.896004,97.8633291 224.896004,114.688002" id="Fill-29" fill="#E9E9DC"></path>
              <path d="M242.32122,95.8720018 C242.32122,95.8720018 253.061189,149.004465 227.990889,155.220332 C227.990889,155.220332 215.94892,174.702096 184.519385,177.408003 C184.519385,177.408003 139.82896,177.408003 123.200002,147.928765" id="Fill-31" fill="#E9E9DC"></path>
              <path d="M178.100489,101.248002 C178.100489,101.248002 170.262752,116.768982 182.429108,118.171544 C182.429108,118.171544 232.316383,126.920218 245.056005,113.424732 L245.056005,104.746701 C245.056005,104.746701 212.527627,115.107293 178.100489,101.248002" id="Fill-33" fill="#C6C6C6"></path>
              <path d="M104.832002,73.4720014 C104.832002,73.4720014 121.478786,84.1221915 120.39642,99.9452303 C120.39642,99.9452303 129.596051,140.55557 158.276349,118.355174 C158.276349,118.355174 168.016683,103.077017 168.016683,90.7402583 C168.016683,90.7402583 169.042672,84.0766778 180.096003,73.5883496 C180.096003,73.5883496 109.830618,76.4188489 104.832002,73.4720014" id="Fill-35" fill="#464946"></path>
              <path d="M179.311797,129.031842 C179.311797,129.031842 168.106105,130.641948 171.932257,138.167543 C171.932257,138.167543 176.609061,144.886972 184.929851,144.618144 C184.929851,144.618144 196.696604,146.230476 191.967059,135.481171 C191.967059,135.481171 186.691337,128.763332 179.311797,129.031842" id="Fill-37" fill="#464946"></path>
              <path d="M181.227991,122.327175 C181.227991,122.327175 177.671523,123.110426 179.083386,125.4393 C179.083386,125.4393 180.748594,127.488533 183.412092,127.205095 C183.412092,127.205095 187.227043,127.444878 185.446561,124.100561 C185.446561,124.100561 183.589337,122.06588 181.227991,122.327175" id="Fill-39" fill="#464946"></path>
              <path d="M56.1366058,88.2560017 C56.1366058,88.2560017 69.4866205,98.2621471 68.490953,108.638379 C66.7315379,126.971467 64.0279224,144.543822 68.490953,157.996075 C68.490953,157.996075 65.7911499,179.489675 58.9958936,189.952004 L56.1366058,186.961115 L56.251295,158.717294 C56.251295,158.717294 60.7883493,132.986976 57.2101095,115.902287 C55.3020114,106.79116 56.251295,95.9038104 56.1366058,88.2560017" id="Fill-41" fill="#C6C6C6"></path>
              <path d="M57.7920011,90.0480017 C57.7920011,90.0480017 69.8206795,70.7872532 88.2405153,75.6712561 C88.2405153,75.6712561 143.308567,81.4821922 165.978912,78.6082514 L181.440003,77.7155662 L180.215906,72.8645308 C180.215906,72.8645308 126.406908,74.6201344 112.078516,72.8645308 C112.078516,72.8645308 87.2518085,67.5260233 74.0214809,71.1479761 C74.0214809,71.1479761 58.212434,76.1206395 57.7920011,90.0480017" id="Fill-43" fill="#FCFCF5"></path>
              <path d="M190.400004,72.7951819 C190.400004,72.7951819 135.485676,76.3150324 98.9336277,71.7452949 C98.9336277,71.7452949 58.7267281,59.8867088 56.1159363,96.0988204 C56.1159363,96.0988204 61.3378411,140.484318 56.1159363,158.87532 C56.1159363,158.87532 55.855082,185.440351 56.1159363,189.016388 C56.1159363,189.016388 68.6632852,199.185523 82.1631377,189.016388 L82.4243133,163.217743" id="Stroke-45" stroke="#020202" stroke-width="3.13600006" stroke-linecap="round" stroke-linejoin="round"></path>
              <path d="M244.36096,112.896002 C244.36096,112.896002 222.487308,167.640204 123.200002,147.825569 C123.200002,147.825569 144.149158,178.185535 190.271997,175.945918 C190.271997,175.945918 207.665225,174.839408 227.959569,155.119626 C229.027405,154.081692 235.18398,151.055053 236.235782,149.923227 C236.235782,149.923227 246.295251,136.532951 244.36096,112.896002" id="Fill-47" fill="#C6C6C6"></path>
              <path d="M244.188994,111.107195 C244.188994,111.107195 237.346566,110.857589 229.391273,114.77244 C229.391273,114.77244 225.582087,118.363634 229.391273,122.63853 C229.391273,122.63853 240.606568,129.339581 231.053968,133.653418 C231.053968,133.653418 217.956949,132.305165 222.857742,146.59493 C222.857742,146.59493 229.929829,151.640668 236.520051,149.58956 C236.520051,149.58956 246.778378,146.925929 244.188994,111.107195" id="Fill-49" fill="#464946"></path>
              <path d="M83.7247366,93.1510241 C83.7247366,93.1510241 97.3696058,84.0409007 104.737719,97.0400093 C104.737719,97.0400093 106.921079,108.136134 90.2741705,116.56184 C90.2741705,116.56184 76.6293013,121.182544 75.2649436,108.408035 C75.2649436,108.408035 74.9922659,98.5504261 83.7247366,93.1510241" id="Fill-51" fill="#464946"></path>
              <path d="M59.3733554,125.888002 C59.3733554,125.888002 73.6445175,130.189623 66.5811816,141.057705 C66.5811816,141.057705 63.9221211,146.491906 65.5178092,149.209007 C65.5178092,149.209007 70.3451671,156.001277 64.2085832,157.903279 C64.2085832,157.903279 60.7313745,158.990184 59.1360011,156.54489 C59.1360011,156.54489 60.1335817,132.770981 59.3733554,125.888002" id="Fill-53" fill="#464946"></path>
              <path d="M190.400004,175.722986 C190.400004,175.722986 185.851949,154.236865 167.085398,157.606647 C167.085398,157.606647 161.312188,161.746627 157.21055,161.415032 C157.21055,161.415032 153.061989,163.186105 150.230181,161.259006 C150.230181,161.259006 145.111651,161.462448 142.464003,165.628059 C142.464003,165.628059 142.622129,169.24037 162.409107,173.743024 C162.409107,173.743024 184.806131,179.38752 190.400004,175.722986" id="Fill-55" fill="#464946"></path>
              <path d="M81.6814306,178.304003 C81.6814306,178.304003 62.9358071,178.443213 59.1360011,190.124606 C59.1360011,190.124606 69.5976875,198.47429 82.4320016,189.047901 L81.6814306,178.304003 Z" id="Fill-57" fill="#020202"></path>
              <path d="M236.544005,173.824003 C236.544005,173.824003 219.288717,174.098416 213.248004,185.629249 C213.248004,185.629249 224.681215,190.571588 236.107052,185.229427 L236.544005,173.824003 Z" id="Fill-59" fill="#020202"></path>
              <path d="M150.080003,40.7964905 C150.080003,40.7964905 178.829894,37.9256069 185.024004,46.2775909 C185.024004,46.2775909 182.227076,59.2806064 182.373862,64.1523013 C182.373862,64.1523013 159.02307,73.5750194 150.080003,40.7964905" id="Fill-61" fill="#464946"></path>
              <path d="M150.080003,40.7964905 C150.080003,40.7964905 178.829894,37.9256069 185.024004,46.2775909 C185.024004,46.2775909 182.227076,59.2806064 182.373862,64.1523013 C182.373862,64.1523013 159.02307,73.5750194 150.080003,40.7964905 Z" id="Stroke-63" stroke="#000000" stroke-width="3.58400007"></path>
              <path d="M150.080003,40.7680008 C150.080003,40.7680008 169.804251,58.760609 181.440003,56.3275481 L179.664606,65.073123 C179.664606,65.073123 166.876018,68.0719973 157.312152,56.1214213 C157.312152,56.1214213 152.592443,50.2823299 150.080003,40.7680008" id="Fill-65" fill="#1F211F"></path>
              <path d="M150.080003,40.7680008 C150.080003,40.7680008 170.548031,60.9974544 183.232004,56.1440766" id="Stroke-67" stroke="#000000" stroke-width="1.34400003"></path>
              <path d="M193.280135,31.2273774 C177.158041,36.7990982 171.584003,17.9200003 171.584003,17.9200003 C171.584003,17.9200003 191.1362,22.8863248 197.568004,22.6951128 L193.280135,31.2273774 Z" id="Fill-69" fill="#E9E9DC"></path>
              <path d="M193.280135,31.2273774 C177.158041,36.7990982 171.584003,17.9200003 171.584003,17.9200003 C171.584003,17.9200003 191.1362,22.8863248 197.568004,22.6951128 L193.280135,31.2273774 Z" id="Stroke-71" stroke="#000000" stroke-width="3.58400007"></path>
              <path d="M258.048005,15.6800003 C258.048005,15.6800003 242.528025,22.108576 234.752004,20.9597431 L240.163902,30.8576527 C240.163902,30.8576527 253.177588,32.6477994 258.048005,15.6800003" id="Fill-73" fill="#E9E9DC"></path>
              <path d="M258.048005,15.6800003 C258.048005,15.6800003 242.528025,22.108576 234.752004,20.9597431 L240.163902,30.8576527 C240.163902,30.8576527 253.177588,32.6477994 258.048005,15.6800003 Z" id="Stroke-75" stroke="#000000" stroke-width="3.58400007"></path>
              <g id="Group-80" transform="translate(178.752003, 0.000000)">
                  <path d="M2.10697391,86.7167223 C2.10697391,86.7167223 -7.08745663,63.9964498 16.0986804,25.9299552 C16.0986804,25.9299552 18.2974185,18.1575848 29.0910483,17.9581041 C29.0910483,17.9581041 19.7017033,16.4632819 18.3009566,8.99301893 C18.3009566,8.99301893 26.8974564,3.0105227 34.6872806,13.174737 C34.6872806,13.174737 30.3846885,5.40236664 37.8612343,0.220358806 C37.8612343,0.220358806 45.7694223,5.29589142 40.8836951,12.776417 C40.8836951,12.776417 52.8066065,3.62916938 59.3970312,9.60813782 C59.3970312,9.60813782 56.0744794,18.1575848 48.0794482,18.3567448 C48.0794482,18.3567448 55.6746795,18.9545454 57.8734176,23.1397913 C57.8734176,23.1397913 81.2592938,57.8183214 73.4643234,86.7167223" id="Fill-77" fill="#E9E9DC"></path>
                  <path d="M2.10697391,86.7167223 C2.10697391,86.7167223 -7.08745663,63.9964498 16.0986804,25.9299552 C16.0986804,25.9299552 18.2974185,18.1575848 29.0910483,17.9581041 C29.0910483,17.9581041 19.7017033,16.4632819 18.3009566,8.99301893 C18.3009566,8.99301893 26.8974564,3.0105227 34.6872806,13.174737 C34.6872806,13.174737 30.3846885,5.40236664 37.8612343,0.220358806 C37.8612343,0.220358806 45.7694223,5.29589142 40.8836951,12.776417 C40.8836951,12.776417 52.8066065,3.62916938 59.3970312,9.60813782 C59.3970312,9.60813782 56.0744794,18.1575848 48.0794482,18.3567448 C48.0794482,18.3567448 55.6746795,18.9545454 57.8734176,23.1397913 C57.8734176,23.1397913 81.2592938,57.8183214 73.4643234,86.7167223" id="Stroke-79" stroke="#000000" stroke-width="3.58400007" stroke-linecap="round" stroke-linejoin="round"></path>
              </g>
              <path d="M279.101502,40.6448383 C279.101502,40.6448383 259.357625,37.9700819 249.536005,47.9710943 C249.536005,47.9710943 252.811168,62.9360778 252.532163,68.0817631 C252.532163,68.0817631 279.402117,69.6226484 279.101502,40.6448383" id="Fill-81" fill="#464946"></path>
              <path d="M279.101502,40.6448383 C279.101502,40.6448383 259.357625,37.9700819 249.536005,47.9710943 C249.536005,47.9710943 252.811168,62.9360778 252.532163,68.0817631 C252.532163,68.0817631 279.402117,69.6226484 279.101502,40.6448383 Z" id="Stroke-83" stroke="#000000" stroke-width="3.58400007"></path>
              <path d="M190.279469,35.3920007 C190.279469,35.3920007 217.251894,40.8881215 203.534385,66.9830256 C203.534385,66.9830256 187.859654,68.8751747 179.230347,79.7440015 C179.230347,79.7440015 178.058509,62.4182718 190.279469,35.3920007" id="Fill-85" fill="#464946"></path>
              <path d="M241.376765,34.4186726 C241.376765,34.4186726 231.391981,30.298914 226.874062,49.5283934 C226.874062,49.5283934 223.786188,65.6960023 231.239154,67.690083 C231.239154,67.690083 245.151229,68.460182 253.568005,74.3680014 C253.568005,74.3680014 252.600964,72.9670663 250.210341,56.5723565 C250.210341,56.5723565 246.931837,44.1303534 241.376765,34.4186726" id="Fill-87" fill="#464946"></path>
              <path d="M261.184005,88.324498 C261.184005,108.660661 248.405471,113.344002 218.956395,113.344002 C194.207835,113.344002 175.616003,109.749713 175.616003,88.6471203 C175.616003,66.9170098 194.943163,65.4080013 219.691402,65.4080013 C244.439321,65.4080013 261.184005,67.6428294 261.184005,88.324498" id="Fill-89" fill="#DBA295"></path>
              <path d="M261.184005,88.324498 C261.184005,108.660661 248.405471,113.344002 218.956395,113.344002 C194.207835,113.344002 175.616003,109.749713 175.616003,88.6471203 C175.616003,66.9170098 194.943163,65.4080013 219.691402,65.4080013 C244.439321,65.4080013 261.184005,67.6428294 261.184005,88.324498 Z" id="Stroke-91" stroke="#000000" stroke-width="3.58400007"></path>
              <path d="M261.184005,82.9097198 C261.184005,96.5635902 248.376291,102.592002 218.859969,102.592002 C194.054896,102.592002 176.064003,97.2946757 176.064003,83.1262902 C176.064003,68.5359768 194.791903,64.9600012 219.596654,64.9600012 C244.401084,64.9600012 261.184005,69.0232603 261.184005,82.9097198" id="Fill-93" fill="#FFBAA6"></path>
              <path d="M175.620173,89.0024237 C175.618569,89.052283 175.617286,89.1021424 175.616003,89.1520017 C178.122627,86.6242937 179.291101,81.957459 181.41283,78.9125005 C183.884171,75.3657318 186.988343,71.8337601 191.311025,70.9510888 C216.440764,65.8191146 225.297178,67.9833319 239.09852,69.3887221 C253.707498,70.8764606 257.371691,83.4992386 259.258314,84.5762005 C260.629499,73.3276104 251.079954,71.599582 247.679415,68.268656 C247.679415,68.268656 226.704608,59.6667931 190.480295,67.06978 C180.783207,69.0519303 175.897618,79.7372706 175.620173,89.0024237" id="Fill-95" fill="#F9DBD4"></path>
              <path d="M261.184005,88.4921056 C261.184005,108.692035 248.405471,113.344002 218.956395,113.344002 C194.207835,113.344002 175.616003,109.773791 175.616003,88.8125666 C175.616003,67.2280279 194.943163,63.1680012 219.691402,63.1680012 C244.439321,63.1680012 261.184005,67.9489852 261.184005,88.4921056 Z" id="Stroke-97" stroke="#000000" stroke-width="3.58400007"></path>
              <path d="M210.112004,83.7760016 C210.112004,87.7350454 209.299761,90.9440017 206.653431,90.9440017 C204.007731,90.9440017 200.720621,87.7350454 200.720621,83.7760016 C200.720621,79.8169578 200.359414,76.6080015 203.005114,76.6080015 C205.651129,76.6080015 210.112004,79.8169578 210.112004,83.7760016" id="Fill-99" fill="#000000"></path>
              <path d="M239.056108,85.4763147 C238.443392,89.0314738 235.224124,91.2754969 232.994007,90.903934 C230.763565,90.5320528 230.36674,87.6853147 230.979132,84.1298372 C231.591525,80.5743597 234.194839,76.2588817 236.425281,76.6304446 C238.655722,77.0023258 239.6685,81.9208372 239.056108,85.4763147" id="Fill-101" fill="#000000"></path>
              <g id="Group-4" transform="translate(227.732004, 103.236002) scale(-1, 1) translate(-227.732004, -103.236002) translate(205.232004, 92.736002)" stroke="#000000" stroke-linecap="round" stroke-linejoin="round">
                  <path d="M0.23200351,3.26399822 C0.23200351,3.26399822 4.8671835,2.43789458 6.23200351,0.263998223" id="Stroke-103" stroke-width="4.48000009"></path>
                  <path d="M44.2320035,20.0726253 C44.2320035,20.0726253 3.43302421,23.5084292 4.24393336,1.26399822" id="Stroke-105" stroke-width="3.58400007"></path>
              </g>
              <path d="M188.608004,57.7920011 C188.608004,57.7920011 194.431845,49.9159412 200.256004,56.1795593" id="Stroke-107" stroke="#FFFFFF" stroke-width="3.13600006" stroke-linecap="round" stroke-linejoin="round"></path>
              <path d="M233.856004,56.1145058 C233.856004,56.1145058 240.874934,50.8627828 245.504005,57.7920011" id="Stroke-109" stroke="#FFFFFF" stroke-width="3.13600006" stroke-linecap="round" stroke-linejoin="round"></path>
              <path d="M279.516306,40.7680008 C279.516306,40.7680008 261.239999,60.845011 252.224005,59.8281873 L252.392777,68.4648798 C252.392777,68.4648798 263.684148,69.5826417 269.330798,63.4157016 C269.330798,63.4157016 280.25344,56.6107799 279.516306,40.7680008" id="Fill-111" fill="#1F211F"></path>
              <path d="M279.552005,40.7680008 C279.552005,40.7680008 262.796875,59.4453922 252.224005,59.5840011" id="Stroke-113" stroke="#000000" stroke-width="1.34400003"></path>
              <path d="M197.120004,56.2240011 C197.120004,57.3373521 196.217425,58.2400011 195.104161,58.2400011 C193.990582,58.2400011 193.088004,57.3373521 193.088004,56.2240011 C193.088004,55.11065 193.990582,54.208001 195.104161,54.208001 C196.217425,54.208001 197.120004,55.11065 197.120004,56.2240011" id="Fill-115" fill="#FFFFFF"></path>
              <path d="M241.920005,56.6720011 C241.920005,57.7853521 241.017356,58.6880011 239.904005,58.6880011 C238.790339,58.6880011 237.888005,57.7853521 237.888005,56.6720011 C237.888005,55.55865 238.790339,54.656001 239.904005,54.656001 C241.017356,54.656001 241.920005,55.55865 241.920005,56.6720011" id="Fill-117" fill="#FFFFFF"></path>
              <path d="M244.397335,112.896002 C245.340392,129.037561 243.659889,151.288966 227.99102,155.180667 C227.99102,155.180667 215.949073,174.697259 184.519273,177.408003 C184.519273,177.408003 139.829251,177.408003 123.200002,147.876065" id="Stroke-119" stroke="#020202" stroke-width="3.13600006" stroke-linecap="round" stroke-linejoin="round"></path>
              <g id="Group-124" transform="translate(189.504004, 153.216003)">
                  <path d="M0.199898815,0.254661125 C0.199898815,0.254661125 -0.0712320014,33.4289901 0.199898815,37.2432622 C0.199898815,37.2432622 11.7937092,44.0034748 23.237034,37.2432622 L23.5081648,3.27350022" id="Fill-121" fill="#E9E9DC"></path>
                  <path d="M0.199898815,0.254661125 C0.199898815,0.254661125 -0.0712320014,33.4289901 0.199898815,37.2432622 C0.199898815,37.2432622 11.7937092,44.0034748 23.237034,37.2432622 L23.5081648,3.27350022" id="Stroke-123" stroke="#000000" stroke-width="3.58400007"></path>
              </g>
              <path d="M212.049433,177.408003 C212.049433,177.408003 193.303488,177.554853 189.504004,189.923857 C189.504004,189.923857 199.965368,198.764951 212.800004,188.783691 L212.049433,177.408003 Z" id="Fill-125" fill="#020202"></path>
              <path d="M101.696002,132.608003 C101.696002,132.608003 82.4320016,141.777971 82.4320016,163.072003" id="Stroke-127" stroke="#000000" stroke-width="3.58400007" stroke-linecap="round" stroke-linejoin="round"></path>
              <path d="M190.848004,153.216003 L211.904004,156.165405 L211.711746,167.900754 C211.711746,167.900754 201.713991,173.706166 190.848004,174.720003 L190.848004,153.216003 Z" id="Fill-129" fill="#C6C6C6"></path>
              <polygon id="Fill-131" fill="#C6C6C6" points="56.0000011 89.6000017 50.6210782 103.804803 41.2572249 121.292915 34.0803325 134.292413 23.7440005 145.152003 26.1940089 145.152003 35.1322036 136.344442 38.3876157 130.657262 45.9059916 117.106108 51.5055555 107.515646 55.9764065 101.689269"></polygon>
              <path d="M60.4800012,81.5360016 C60.4800012,81.5360016 48.2605718,96.3852744 37.8885412,123.664216 C37.8885412,123.664216 29.6475083,140.855227 16.5760003,153.216003 C16.5760003,153.216003 30.9264274,142.702534 37.320382,134.035732 C37.320382,134.035732 52.3729167,103.773221 56.8528187,101.357783 C56.8528187,101.357783 57.9410696,83.8267905 60.4800012,81.5360016 Z" id="Stroke-133" stroke="#000000" stroke-width="2.24000004" stroke-linecap="round" stroke-linejoin="round"></path>
              <g id="Group-138" transform="translate(0.000000, 142.464003)">
                  <path d="M25.0500185,2.67761253 C27.6521369,12.1277095 18.647824,16.0717345 18.647824,16.0717345 C7.29611414,22.2216964 0.159440403,15.7646191 0.159440403,15.7646191 C3.53146927,17.297007 11.9187686,5.58516295 11.9187686,5.58516295 C20.1410416,-4.69220023 25.0500185,2.67761253 25.0500185,2.67761253" id="Fill-135" fill="#464946"></path>
                  <path d="M25.0500185,2.67761253 C27.6521369,12.1277095 18.647824,16.0717345 18.647824,16.0717345 C7.29611414,22.2216964 0.159440403,15.7646191 0.159440403,15.7646191 C3.53146927,17.297007 11.9187686,5.58516295 11.9187686,5.58516295 C20.1410416,-4.69220023 25.0500185,2.67761253 25.0500185,2.67761253" id="Stroke-137" stroke="#000000" stroke-width="3.13600006" stroke-linecap="round" stroke-linejoin="round"></path>
              </g>
              <path d="M25.479329,146.496003 C25.479329,146.496003 8.49826696,159.640096 1.34400003,159.375405 C1.34400003,159.375405 9.20161498,165.10783 22.1413403,156.682628 C22.1413403,156.682628 26.0486135,153.745544 25.479329,146.496003" id="Fill-139" fill="#1F211F"></path>
              <g id="Group-144" transform="translate(1.344000, 146.048003)">
                  <path d="M23.9557253,0.257024005 C23.9557253,0.257024005 8.68218641,12.9216642 0.197568004,13.3687043" id="Fill-141" fill="#464946"></path>
                  <path d="M23.9557253,0.257024005 C23.9557253,0.257024005 8.68218641,12.9216642 0.197568004,13.3687043" id="Stroke-143" stroke="#000000" stroke-width="3.13600006" stroke-linecap="round" stroke-linejoin="round"></path>
              </g>
          </g>
      </g>
      <path d="M316.122105,22.6381048 C294.599998,18.0982609 242.951172,19.940918 254.559743,54.517796 C260.042168,70.847554 273.535618,69.0977347 275.746582,72.6225586 C276.683848,74.1167925 275.420187,76.9119822 271.687012,81.7114258 C271.256534,82.2648566 264.15573,87.8566454 271.687012,85.208001 C279.218293,82.5593567 284.680803,75.9588678 292.381502,73.788071 C300.33151,71.5469952 309.08537,72.730433 317.014913,70.42556 C336.939209,64.6341828 351.801816,45.0242516 331.233878,29.7815808 C327.901001,27.3116222 323.647805,26.2182119 319.854768,24.4365275 L316.122105,22.6381048 Z" id="Path-2" fill="#FFFFFF"></path>
      <path d="M315.970215,72.8183942 C315.970215,72.8183942 340.874215,66.6353942 340.874215,47.7013942 C340.874215,47.7013942 340.874215,27.9653942 318.460215,22.1983942 C318.460215,22.1983942 289.198215,11.3783942 261.803215,29.5403942 C261.803215,29.5403942 229.427215,56.5893942 282.349215,72.8183942 C282.349215,72.8183942 292.310215,75.5233942 299.782215,75.1363942 L324.391793,86.8320009 L315.970215,72.8183942 Z" id="Stroke-7" stroke="#000000" stroke-width="3.33" stroke-linecap="round" stroke-linejoin="round" transform="translate(296.437108, 52.916000) scale(-1, 1) translate(-296.437108, -52.916000) "></path>
      <path d="M295.453758,38.7021497 C293.715359,36.1158679 292.348929,34.6147017 291.354467,34.1986512 C286.989224,32.372376 282.139855,32.3266833 280.460904,38.7021497 C278.781954,45.0776161 282.762866,56.286362 296.055799,62.7217564 C306.750936,57.07263 312.098505,49.730499 312.098505,40.6953635 C312.098505,34.1986512 306.141767,30.4813821 299.486081,34.1986512 C298.368779,34.8226755 297.024672,36.3238416 295.453758,38.7021497 Z" id="Path-3" fill="#E522B2"></path>
  </g>
</svg>
