<svg class="home-illustration floating" width="550px" height="347px" viewBox="0 0 550 347" version="1.1" xmlns="http://www.w3.org/2000/svg" xmlns:xlink="http://www.w3.org/1999/xlink">
 <!-- [DELETE] this file! -->
    <title>home-illustration-04</title>
    <desc>Created with Sketch.</desc>
    <g id="home-illustration-04" stroke="none" stroke-width="1" fill="none" fill-rule="evenodd">
        <path d="M485.25,230.375643 C484.998,230.375643 484.75,230.389667 484.5,230.395678 L484.5,230.375643 L380.5,230.375643 L380.5,230.318545 C361.272,229.277763 346,213.333461 346,193.813036 C346,174.292611 361.272,158.348309 380.5,157.307527 L380.5,157.250429 L492.5,157.250429 L492.5,157.212364 C511.686,156.424014 527,140.600919 527,121.188679 C527,101.776439 511.686,85.9533448 492.5,85.1649949 L492.5,85.1269297 L442.5,85.1269297 C420.559,85.1269297 412.579,69.737578 409.672,58.5273825 C408.587,55.0654545 408,51.3831492 408,47.5626072 C408,47.4924871 408.005,47.4233688 408.005,47.3532487 C408.001,47.1779485 408,47.0617496 408,47.0617496 C407,11 360,11 360,11 L76,11 C55.565,11 39,27.5934134 39,48.0634648 C39,68.5335163 55.565,85.1269297 76,85.1269297 L145,85.1269297 L145,85.1649949 C164.462,85.9533448 180,102.000823 180,121.689537 C180,141.37825 164.462,157.425729 145,158.214079 L145,158.252144 L37.5,158.252144 C37.504,158.248137 37.508,158.26116 37.511,158.265166 C37.34,158.263163 37.172,158.252144 37,158.252144 C18.223,158.252144 3,173.501256 3,192.310463 C3,211.119671 18.223,226.368782 37,226.368782 C37.168,226.368782 37.333,226.358765 37.5,226.35576 L37.5,226.368782 L157,227.370497 L157,227.421585 C162.605,227.928453 167,232.642525 167,238.389365 C167,244.136206 162.605,248.850278 157,249.357146 L157,249.408233 L117,249.408233 L117,249.428268 C102.851,249.825949 91.5,261.432823 91.5,275.703259 C91.5,290.225125 103.253,301.998285 117.75,301.998285 C117.834,301.998285 117.916,301.992274 118,301.992274 L118,301.998285 L272.5,303 L484.5,301.998285 L484.5,301.97825 C484.75,301.984261 484.998,301.998285 485.25,301.998285 C504.994,301.998285 521,285.96483 521,266.186964 C521,246.409098 504.994,230.375643 485.25,230.375643" id="Fill-1" fill="#39ACC6" opacity="0.0994931176" transform="translate(265.000000, 157.000000) rotate(2.000000) translate(-265.000000, -157.000000) "></path>
        <g id="Group-5" transform="translate(152.000000, 256.000000)">
            <path d="M4.375,0 L226.375,0 C228.584139,-4.05812251e-16 230.375,1.790861 230.375,4 L230.375,84 C230.375,86.209139 228.584139,88 226.375,88 L4.375,88 C2.165861,88 0.375,86.209139 0.375,84 L0.375,4 C0.375,1.790861 2.165861,4.05812251e-16 4.375,0 Z" id="Rectangle-Copy-2" fill="#1D1E22"></path>
            <text id="const-ClassName-=-{" opacity="0.865862165" font-family="Avalon-Medium, Avalon" font-size="9" font-weight="400" line-spacing="12">
                <tspan x="8.375" y="36" fill="#D760E3">const</tspan>
                <tspan x="30.047" y="36" fill="#DF10B2"> </tspan>
                <tspan x="32.306" y="36" fill="#E7C073">ClassName</tspan>
                <tspan x="78.539" y="36" fill="#DF10B2"> </tspan>
                <tspan x="80.798" y="36" fill="#12BAC7">=</tspan>
                <tspan x="85.325" y="36" fill="#DF10B2"> </tspan>
                <tspan x="87.584" y="36" fill="#FFD600">{</tspan>
                <tspan x="90.527" y="36" fill="#DF10B2"></tspan>
                <tspan x="8.375" y="48" fill="#DF10B2">  </tspan>
                <tspan x="12.893" y="48" fill="#F2586D">CURRENT</tspan>
                <tspan x="47.984" y="48" fill="#ABB2C0">:</tspan>
                <tspan x="49.91" y="48" fill="#F2586D"> </tspan>
                <tspan x="52.169" y="48" fill="#87CA71">'is-current'</tspan>
                <tspan x="90.383" y="48" fill="#ABB2C0">,</tspan>
                <tspan x="92.309" y="48" fill="#87CA71"></tspan>
                <tspan x="8.375" y="60" fill="#87CA71">  </tspan>
                <tspan x="12.893" y="60" fill="#F2586D">LOADING</tspan>
                <tspan x="49.532" y="60" fill="#ABB2C0">:</tspan>
                <tspan x="51.458" y="60" fill="#87CA71"> 'is-loading'</tspan>
                <tspan x="95.342" y="60" fill="#DF10B2"></tspan>
                <tspan x="8.375" y="72" fill="#FFD600">}</tspan>
                <tspan x="11.318" y="72" fill="#ABB2C0">;</tspan>
            </text>
            <path d="M13.05,17.361 L12.258,17.361 L12.181,16.591 C12.148,16.085 11.345,15.733 10.905,16.063 L10.311,16.547 L9.75,15.986 L9.189,15.425 L9.673,14.831 C9.937,14.479 9.706,13.654 9.134,13.555 L8.375,13.478 L8.375,12.675 L8.375,11.883 L9.134,11.806 C9.739,11.729 10.036,10.959 9.673,10.53 L9.189,9.936 L9.75,9.375 L10.311,8.814 L10.905,9.298 C11.312,9.606 12.104,9.188 12.181,8.759 L12.258,8 L13.05,8 L13.853,8 L13.93,8.759 C14.007,9.188 14.799,9.606 15.206,9.298 L15.8,8.814 L16.361,9.375 L16.922,9.936 L16.438,10.53 C16.075,10.959 16.372,11.729 16.966,11.806 L17.736,11.883 L17.736,12.675 L17.736,13.478 L16.966,13.555 C16.405,13.654 16.174,14.479 16.438,14.831 L16.922,15.425 L16.361,15.986 L15.8,16.547 L15.206,16.063 C14.766,15.733 13.963,16.085 13.93,16.591 L13.853,17.361 L13.05,17.361 Z M13.05,11.344 C13.798,11.344 14.392,11.938 14.392,12.675 C14.392,13.423 13.798,14.017 13.05,14.017 C12.313,14.017 11.719,13.423 11.719,12.675 C11.719,11.938 12.313,11.344 13.05,11.344 Z M13.05,10.343 C14.348,10.343 15.393,11.388 15.393,12.675 C15.393,13.973 14.348,15.018 13.05,15.018 C11.763,15.018 10.718,13.973 10.718,12.675 C10.718,11.388 11.763,10.343 13.05,10.343 Z" id="Shape-Copy-2" fill="#4C4F5A"></path>
            <g id="chevron-right-copy-2" transform="translate(212.375000, 11.000000)" fill="#4C4F5A" fill-rule="nonzero">
                <path d="M3,7.52954027 C3.00271506,7.40455117 3.04742543,7.28503269 3.12559618,7.19380016 L6.967909,2.99704876 L3.12559618,-1.19970264 C2.96242598,-1.38603353 2.96585635,-1.68097291 3.13330742,-1.86270512 C3.30075849,-2.04443734 3.57048001,-2.04594573 3.73962196,-1.86609589 L7.88429596,2.66130865 C8.03856801,2.85334501 8.03856801,3.14075252 7.88429596,3.33278887 L3.73962196,7.86019342 C3.61645743,7.99587315 3.43072322,8.03715081 3.26890039,7.96480679 C3.10707756,7.89246276 3.00097661,7.72071817 3,7.52954027 L3,7.52954027 Z" id="Path" transform="translate(5.500000, 3.000000) rotate(-270.000000) translate(-5.500000, -3.000000) "></path>
            </g>
            <text id="JS" opacity="0.892508371" font-family="Avalon-Demi, Avalon" font-size="10" font-weight="500" fill="#E7E7E7">
                <tspan x="22.375" y="15">JS</tspan>
            </text>
            <path d="M0.5,21.625 L230.75,21.375" id="Line-Copy-2" stroke="#55E6F1" stroke-width="0.5" opacity="0.309128534" stroke-linecap="square"></path>
        </g>
        <rect id="Rectangle" fill="#1D1E22" x="170" y="6" width="230" height="102" rx="5"></rect>
        <g id="Group-4" transform="translate(239.000000, 120.000000)">
            <rect id="Rectangle-Copy" fill="#1D1E22" x="0" y="0" width="231" height="126" rx="5"></rect>
            <path d="M12.675,17.361 L11.883,17.361 L11.806,16.591 C11.773,16.085 10.97,15.733 10.53,16.063 L9.936,16.547 L9.375,15.986 L8.814,15.425 L9.298,14.831 C9.562,14.479 9.331,13.654 8.759,13.555 L8,13.478 L8,12.675 L8,11.883 L8.759,11.806 C9.364,11.729 9.661,10.959 9.298,10.53 L8.814,9.936 L9.375,9.375 L9.936,8.814 L10.53,9.298 C10.937,9.606 11.729,9.188 11.806,8.759 L11.883,8 L12.675,8 L13.478,8 L13.555,8.759 C13.632,9.188 14.424,9.606 14.831,9.298 L15.425,8.814 L15.986,9.375 L16.547,9.936 L16.063,10.53 C15.7,10.959 15.997,11.729 16.591,11.806 L17.361,11.883 L17.361,12.675 L17.361,13.478 L16.591,13.555 C16.03,13.654 15.799,14.479 16.063,14.831 L16.547,15.425 L15.986,15.986 L15.425,16.547 L14.831,16.063 C14.391,15.733 13.588,16.085 13.555,16.591 L13.478,17.361 L12.675,17.361 Z M12.675,11.344 C13.423,11.344 14.017,11.938 14.017,12.675 C14.017,13.423 13.423,14.017 12.675,14.017 C11.938,14.017 11.344,13.423 11.344,12.675 C11.344,11.938 11.938,11.344 12.675,11.344 Z M12.675,10.343 C13.973,10.343 15.018,11.388 15.018,12.675 C15.018,13.973 13.973,15.018 12.675,15.018 C11.388,15.018 10.343,13.973 10.343,12.675 C10.343,11.388 11.388,10.343 12.675,10.343 Z" id="Shape-Copy" fill="#4C4F5A"></path>
            <text id=":root-{-—Button-focu" opacity="0.865862165" font-family="Avalon-Medium, Avalon" font-size="9" font-weight="400" line-spacing="12">
                <tspan x="10" y="37" fill="#12BAC7">:root</tspan>
                <tspan x="27.685" y="37" fill="#DF10B2"> </tspan>
                <tspan x="29.944" y="37" fill="#FFD600">{</tspan>
                <tspan x="32.887" y="37" fill="#DF10B2"></tspan>
                <tspan x="10" y="49" fill="#DF10B2">   </tspan>
                <tspan x="16.777" y="49" fill="#F2586D">—Button-focus</tspan>
                <tspan x="72.829" y="49" fill="#ABB2C0">:</tspan>
                <tspan x="74.755" y="49" fill="#DF10B2"> </tspan>
                <tspan x="77.014" y="49" fill="#15B2BF">var</tspan>
                <tspan x="89.29" y="49" fill="#DC71DA">(</tspan>
                <tspan x="92.233" y="49" fill="#F2586D">--Button-background</tspan>
                <tspan x="174.016" y="49" fill="#DC71DA">)</tspan>
                <tspan x="176.959" y="49" fill="#ABB2C0">;</tspan>
                <tspan x="178.885" y="49" fill="#DF10B2"></tspan>
                <tspan x="10" y="61" fill="#FFD600">}</tspan>
                <tspan x="10" y="73" fill="#FFD600"></tspan>
                <tspan x="10" y="85" fill="#D39A60">.Button</tspan>
                <tspan x="37.162" y="85" fill="#FFD600"> {</tspan>
                <tspan x="10" y="97" fill="#ABB2C0">  user-select:</tspan>
                <tspan x="58.861" y="97" fill="#FFD600"> </tspan>
                <tspan x="61.12" y="97" fill="#D39A60">none</tspan>
                <tspan x="81.964" y="97" fill="#ABB2C0">;</tspan>
                <tspan x="83.89" y="97" fill="#FFD600"> </tspan>
                <tspan x="10" y="109" fill="#FFD600">}</tspan>
            </text>
            <g id="chevron-right-copy" transform="translate(212.000000, 11.000000)" fill="#4C4F5A" fill-rule="nonzero">
                <path d="M3,7.52954027 C3.00271506,7.40455117 3.04742543,7.28503269 3.12559618,7.19380016 L6.967909,2.99704876 L3.12559618,-1.19970264 C2.96242598,-1.38603353 2.96585635,-1.68097291 3.13330742,-1.86270512 C3.30075849,-2.04443734 3.57048001,-2.04594573 3.73962196,-1.86609589 L7.88429596,2.66130865 C8.03856801,2.85334501 8.03856801,3.14075252 7.88429596,3.33278887 L3.73962196,7.86019342 C3.61645743,7.99587315 3.43072322,8.03715081 3.26890039,7.96480679 C3.10707756,7.89246276 3.00097661,7.72071817 3,7.52954027 L3,7.52954027 Z" id="Path" transform="translate(5.500000, 3.000000) rotate(-270.000000) translate(-5.500000, -3.000000) "></path>
            </g>
            <text id="CSS" opacity="0.892508371" font-family="Avalon-Demi, Avalon" font-size="10" font-weight="500" fill="#E7E7E7">
                <tspan x="22" y="15">CSS</tspan>
            </text>
            <path d="M0.5,22.5 L230.75,22.25" id="Line-Copy" stroke="#E522C1" stroke-width="0.5" opacity="0.309128534" stroke-linecap="square"></path>
        </g>
        <path d="M182.494712,23 L181.733255,23 L181.659224,22.2596945 C181.627497,21.773208 180.855464,21.4347826 180.432432,21.7520564 L179.86134,22.2173913 L179.321974,21.6780259 L178.782609,21.1386604 L179.247944,20.5675676 C179.501763,20.2291422 179.279671,19.4359577 178.72973,19.3407756 L178,19.266745 L178,18.4947121 L178,17.733255 L178.72973,17.6592244 C179.311398,17.5851939 179.596945,16.8448884 179.247944,16.4324324 L178.782609,15.8613396 L179.321974,15.3219741 L179.86134,14.7826087 L180.432432,15.2479436 C180.823737,15.5440658 181.585194,15.1421857 181.659224,14.7297297 L181.733255,14 L182.494712,14 L183.266745,14 L183.340776,14.7297297 C183.414806,15.1421857 184.176263,15.5440658 184.567568,15.2479436 L185.13866,14.7826087 L185.678026,15.3219741 L186.217391,15.8613396 L185.752056,16.4324324 C185.403055,16.8448884 185.688602,17.5851939 186.259694,17.6592244 L187,17.733255 L187,18.4947121 L187,19.266745 L186.259694,19.3407756 C185.720329,19.4359577 185.498237,20.2291422 185.752056,20.5675676 L186.217391,21.1386604 L185.678026,21.6780259 L185.13866,22.2173913 L184.567568,21.7520564 C184.144536,21.4347826 183.372503,21.773208 183.340776,22.2596945 L183.266745,23 L182.494712,23 Z M182.494712,17.2150411 C183.213866,17.2150411 183.784959,17.786134 183.784959,18.4947121 C183.784959,19.213866 183.213866,19.7849589 182.494712,19.7849589 C181.786134,19.7849589 181.215041,19.213866 181.215041,18.4947121 C181.215041,17.786134 181.786134,17.2150411 182.494712,17.2150411 Z M182.494712,16.2526439 C183.742656,16.2526439 184.747356,17.2573443 184.747356,18.4947121 C184.747356,19.7426557 183.742656,20.7473561 182.494712,20.7473561 C181.257344,20.7473561 180.252644,19.7426557 180.252644,18.4947121 C180.252644,17.2573443 181.257344,16.2526439 182.494712,16.2526439 Z" id="Shape" fill="#4C4F5A"></path>
        <text id="&lt;button-class=&quot;Butto" opacity="0.865862165" font-family="Avalon-Medium, Avalon" font-size="9" font-weight="400" line-spacing="12">
            <tspan x="178" y="43" fill="#ABB2C0">&lt;</tspan>
            <tspan x="182.527" y="43" fill="#F2586D">button</tspan>
            <tspan x="208.609" y="43" fill="#DF10B2"> </tspan>
            <tspan x="178" y="55" fill="#DF10B2">    </tspan>
            <tspan x="187.036" y="55" fill="#D39A60">class</tspan>
            <tspan x="207.16" y="55" fill="#ABB2C0">=</tspan>
            <tspan x="211.687" y="55" fill="#87CA71">"Button Button--success js-Button-action“</tspan>
            <tspan x="369.061" y="55" fill="#ABB2C0">&gt;</tspan>
            <tspan x="373.588" y="55" fill="#DF10B2"></tspan>
            <tspan x="178" y="67" fill="#DF10B2">    </tspan>
            <tspan x="187.036" y="67" fill="#ABB2C0">Success</tspan>
            <tspan x="218.959" y="67" fill="#DF10B2"></tspan>
            <tspan x="178" y="79" fill="#ABB2C0">&lt;/</tspan>
            <tspan x="186.172" y="79" fill="#F2586D">button</tspan>
            <tspan x="212.254" y="79" fill="#ABB2C0">&gt;</tspan>
        </text>
        <text id="HTML" opacity="0.892508371" font-family="Avalon-Demi, Avalon" font-size="10" font-weight="500" fill="#E7E7E7">
            <tspan x="192" y="21">HTML</tspan>
        </text>
        <path d="M170.5,29.5 L401,30" id="Line" stroke="#CBFB00" stroke-width="0.5" opacity="0.309128534" stroke-linecap="square"></path>
    </g>
</svg>
