<svg class="home-illustration floating" width="555px" height="365px" viewBox="0 0 555 365" version="1.1" xmlns="http://www.w3.org/2000/svg" xmlns:xlink="http://www.w3.org/1999/xlink">
    <g id="home-illustration-04" stroke="none" stroke-width="1" fill="none" fill-rule="evenodd">
        <g id="Group-5" transform="translate(174.000000, 277.000000)">
            <path d="M4.375,0 L226.375,0 C228.584139,-4.05812251e-16 230.375,1.790861 230.375,4 L230.375,84 C230.375,86.209139 228.584139,88 226.375,88 L4.375,88 C2.165861,88 0.375,86.209139 0.375,84 L0.375,4 C0.375,1.790861 2.165861,4.05812251e-16 4.375,0 Z" id="Rectangle-Copy-2" fill="#1D1E22"></path>
            <text id="const-ClassName-=-{" opacity="0.865862165" font-family="Avalon-Medium, Avalon" font-size="9" font-weight="400" line-spacing="12">
                <tspan x="8.375" y="36" fill="#D760E3">const</tspan>
                <tspan x="30.047" y="36" fill="#DF10B2"> </tspan>
                <tspan x="32.306" y="36" fill="#E7C073">ClassName</tspan>
                <tspan x="78.539" y="36" fill="#DF10B2"> </tspan>
                <tspan x="80.798" y="36" fill="#12BAC7">=</tspan>
                <tspan x="85.325" y="36" fill="#DF10B2"> </tspan>
                <tspan x="87.584" y="36" fill="#FFD600">{</tspan>
                <tspan x="90.527" y="36" fill="#DF10B2"></tspan>
                <tspan x="8.375" y="48" fill="#DF10B2">  </tspan>
                <tspan x="12.893" y="48" fill="#F2586D">CURRENT</tspan>
                <tspan x="47.984" y="48" fill="#ABB2C0">:</tspan>
                <tspan x="49.91" y="48" fill="#F2586D"> </tspan>
                <tspan x="52.169" y="48" fill="#87CA71">'is-current'</tspan>
                <tspan x="90.383" y="48" fill="#ABB2C0">,</tspan>
                <tspan x="92.309" y="48" fill="#87CA71"></tspan>
                <tspan x="8.375" y="60" fill="#87CA71">  </tspan>
                <tspan x="12.893" y="60" fill="#F2586D">LOADING</tspan>
                <tspan x="49.532" y="60" fill="#ABB2C0">:</tspan>
                <tspan x="51.458" y="60" fill="#87CA71"> 'is-loading'</tspan>
                <tspan x="95.342" y="60" fill="#DF10B2"></tspan>
                <tspan x="8.375" y="72" fill="#FFD600">}</tspan>
                <tspan x="11.318" y="72" fill="#ABB2C0">;</tspan>
            </text>
            <path d="M13.05,17.361 L12.258,17.361 L12.181,16.591 C12.148,16.085 11.345,15.733 10.905,16.063 L10.311,16.547 L9.75,15.986 L9.189,15.425 L9.673,14.831 C9.937,14.479 9.706,13.654 9.134,13.555 L8.375,13.478 L8.375,12.675 L8.375,11.883 L9.134,11.806 C9.739,11.729 10.036,10.959 9.673,10.53 L9.189,9.936 L9.75,9.375 L10.311,8.814 L10.905,9.298 C11.312,9.606 12.104,9.188 12.181,8.759 L12.258,8 L13.05,8 L13.853,8 L13.93,8.759 C14.007,9.188 14.799,9.606 15.206,9.298 L15.8,8.814 L16.361,9.375 L16.922,9.936 L16.438,10.53 C16.075,10.959 16.372,11.729 16.966,11.806 L17.736,11.883 L17.736,12.675 L17.736,13.478 L16.966,13.555 C16.405,13.654 16.174,14.479 16.438,14.831 L16.922,15.425 L16.361,15.986 L15.8,16.547 L15.206,16.063 C14.766,15.733 13.963,16.085 13.93,16.591 L13.853,17.361 L13.05,17.361 Z M13.05,11.344 C13.798,11.344 14.392,11.938 14.392,12.675 C14.392,13.423 13.798,14.017 13.05,14.017 C12.313,14.017 11.719,13.423 11.719,12.675 C11.719,11.938 12.313,11.344 13.05,11.344 Z M13.05,10.343 C14.348,10.343 15.393,11.388 15.393,12.675 C15.393,13.973 14.348,15.018 13.05,15.018 C11.763,15.018 10.718,13.973 10.718,12.675 C10.718,11.388 11.763,10.343 13.05,10.343 Z" id="Shape-Copy-2" fill="#4C4F5A"></path>
            <g id="chevron-right-copy-2" transform="translate(212.375000, 11.000000)" fill="#4C4F5A" fill-rule="nonzero">
                <path d="M3,7.52954027 C3.00271506,7.40455117 3.04742543,7.28503269 3.12559618,7.19380016 L6.967909,2.99704876 L3.12559618,-1.19970264 C2.96242598,-1.38603353 2.96585635,-1.68097291 3.13330742,-1.86270512 C3.30075849,-2.04443734 3.57048001,-2.04594573 3.73962196,-1.86609589 L7.88429596,2.66130865 C8.03856801,2.85334501 8.03856801,3.14075252 7.88429596,3.33278887 L3.73962196,7.86019342 C3.61645743,7.99587315 3.43072322,8.03715081 3.26890039,7.96480679 C3.10707756,7.89246276 3.00097661,7.72071817 3,7.52954027 L3,7.52954027 Z" id="Path" transform="translate(5.500000, 3.000000) rotate(-270.000000) translate(-5.500000, -3.000000) "></path>
            </g>
            <text id="JS" opacity="0.892508371" font-family="Avalon-Demi, Avalon" font-size="10" font-weight="500" fill="#E7E7E7">
                <tspan x="22.375" y="15">JS</tspan>
            </text>
            <path d="M0.5,21.625 L230.75,21.375" id="Line-Copy-2" stroke="#55E6F1" stroke-width="0.5" opacity="0.309128534" stroke-linecap="square"></path>
        </g>
        <rect id="Mask" fill="#FFFFFF" opacity="0.0958658854" transform="translate(262.783165, 180.961252) rotate(2.000000) translate(-262.783165, -180.961252) " x="59.7831652" y="62.9612518" width="406" height="236" rx="5"></rect>
        <path class="t-fill-colorMain" d="M222.048186,26.059295 C95.4415946,-53.1006126 70.2013603,95.5578648 89.9678196,174.982405 C114.603838,273.973551 51.6089525,319.421413 110.953594,350.44525 C172.542616,382.642391 220.883677,218.050225 371.089425,262.8263 C551.937965,316.736938 558.593579,88.8794183 358.973064,86.4250008 C308.725101,85.8071811 276.106748,59.8590418 222.048186,26.059295 Z" id="Combined-Shape-Copy" fill="#7CDFF1" opacity="0.278529576" transform="translate(299.283165, 200.229041) rotate(1.000000) translate(-299.283165, -200.229041) "></path>
        <rect id="Rectangle" fill="#1D1E22" x="193" y="27" width="230" height="102" rx="5"></rect>
        <g id="Group-4" transform="translate(262.000000, 141.000000)">
            <rect id="Rectangle-Copy" fill="#1D1E22" x="0" y="0" width="231" height="126" rx="5"></rect>
            <path d="M12.675,17.361 L11.883,17.361 L11.806,16.591 C11.773,16.085 10.97,15.733 10.53,16.063 L9.936,16.547 L9.375,15.986 L8.814,15.425 L9.298,14.831 C9.562,14.479 9.331,13.654 8.759,13.555 L8,13.478 L8,12.675 L8,11.883 L8.759,11.806 C9.364,11.729 9.661,10.959 9.298,10.53 L8.814,9.936 L9.375,9.375 L9.936,8.814 L10.53,9.298 C10.937,9.606 11.729,9.188 11.806,8.759 L11.883,8 L12.675,8 L13.478,8 L13.555,8.759 C13.632,9.188 14.424,9.606 14.831,9.298 L15.425,8.814 L15.986,9.375 L16.547,9.936 L16.063,10.53 C15.7,10.959 15.997,11.729 16.591,11.806 L17.361,11.883 L17.361,12.675 L17.361,13.478 L16.591,13.555 C16.03,13.654 15.799,14.479 16.063,14.831 L16.547,15.425 L15.986,15.986 L15.425,16.547 L14.831,16.063 C14.391,15.733 13.588,16.085 13.555,16.591 L13.478,17.361 L12.675,17.361 Z M12.675,11.344 C13.423,11.344 14.017,11.938 14.017,12.675 C14.017,13.423 13.423,14.017 12.675,14.017 C11.938,14.017 11.344,13.423 11.344,12.675 C11.344,11.938 11.938,11.344 12.675,11.344 Z M12.675,10.343 C13.973,10.343 15.018,11.388 15.018,12.675 C15.018,13.973 13.973,15.018 12.675,15.018 C11.388,15.018 10.343,13.973 10.343,12.675 C10.343,11.388 11.388,10.343 12.675,10.343 Z" id="Shape-Copy" fill="#4C4F5A"></path>
            <text id=":root-{-—Button-focu" opacity="0.865862165" font-family="Avalon-Medium, Avalon" font-size="9" font-weight="400" line-spacing="12">
                <tspan x="10" y="37" fill="#12BAC7">:root</tspan>
                <tspan x="27.685" y="37" fill="#DF10B2"> </tspan>
                <tspan x="29.944" y="37" fill="#FFD600">{</tspan>
                <tspan x="32.887" y="37" fill="#DF10B2"></tspan>
                <tspan x="10" y="49" fill="#DF10B2">   </tspan>
                <tspan x="16.777" y="49" fill="#F2586D">—Button-focus</tspan>
                <tspan x="72.829" y="49" fill="#ABB2C0">:</tspan>
                <tspan x="74.755" y="49" fill="#DF10B2"> </tspan>
                <tspan x="77.014" y="49" fill="#15B2BF">var</tspan>
                <tspan x="89.29" y="49" fill="#DC71DA">(</tspan>
                <tspan x="92.233" y="49" fill="#F2586D">--Button-background</tspan>
                <tspan x="174.016" y="49" fill="#DC71DA">)</tspan>
                <tspan x="176.959" y="49" fill="#ABB2C0">;</tspan>
                <tspan x="178.885" y="49" fill="#DF10B2"></tspan>
                <tspan x="10" y="61" fill="#FFD600">}</tspan>
                <tspan x="10" y="73" fill="#FFD600"></tspan>
                <tspan x="10" y="85" fill="#D39A60">.Button</tspan>
                <tspan x="37.162" y="85" fill="#FFD600"> {</tspan>
                <tspan x="10" y="97" fill="#ABB2C0">  user-select:</tspan>
                <tspan x="58.861" y="97" fill="#FFD600"> </tspan>
                <tspan x="61.12" y="97" fill="#D39A60">none</tspan>
                <tspan x="81.964" y="97" fill="#ABB2C0">;</tspan>
                <tspan x="83.89" y="97" fill="#FFD600"> </tspan>
                <tspan x="10" y="109" fill="#FFD600">}</tspan>
            </text>
            <g id="chevron-right-copy" transform="translate(212.000000, 11.000000)" fill="#4C4F5A" fill-rule="nonzero">
                <path d="M3,7.52954027 C3.00271506,7.40455117 3.04742543,7.28503269 3.12559618,7.19380016 L6.967909,2.99704876 L3.12559618,-1.19970264 C2.96242598,-1.38603353 2.96585635,-1.68097291 3.13330742,-1.86270512 C3.30075849,-2.04443734 3.57048001,-2.04594573 3.73962196,-1.86609589 L7.88429596,2.66130865 C8.03856801,2.85334501 8.03856801,3.14075252 7.88429596,3.33278887 L3.73962196,7.86019342 C3.61645743,7.99587315 3.43072322,8.03715081 3.26890039,7.96480679 C3.10707756,7.89246276 3.00097661,7.72071817 3,7.52954027 L3,7.52954027 Z" id="Path" transform="translate(5.500000, 3.000000) rotate(-270.000000) translate(-5.500000, -3.000000) "></path>
            </g>
            <text id="CSS" opacity="0.892508371" font-family="Avalon-Demi, Avalon" font-size="10" font-weight="500" fill="#E7E7E7">
                <tspan x="22" y="15">CSS</tspan>
            </text>
            <path d="M0.5,22.5 L230.75,22.25" id="Line-Copy" stroke="#E522C1" stroke-width="0.5" opacity="0.309128534" stroke-linecap="square"></path>
        </g>
        <g id="Details" opacity="0.384486607" transform="translate(277.265411, 172.246186) scale(-1, -1) rotate(-366.000000) translate(-277.265411, -172.246186) translate(13.765411, 26.746186)">
            <g id="Group" transform="translate(478.109226, 56.387685)" stroke="#072A3D" stroke-width="2">
                <path d="M1.88888889,5.96842105 L2.86111111,0.157894737" id="Path"></path>
                <path d="M0.0277777778,2.46315789 L4.72222222,3.66315789" id="Path"></path>
            </g>
            <g id="Group" transform="translate(8.062774, 61.726437)" stroke="#072A3D" stroke-width="2">
                <path d="M0.27,6.81428571 L8.88,2.25" id="Path"></path>
                <path d="M2.79,0.225 L6.39,8.83928571" id="Path"></path>
            </g>
            <g id="Group" transform="translate(383.041808, 285.844965)" stroke="#072A3D" stroke-width="2">
                <path d="M2.78125,4.77777778 L2.21875,0.138888889" id="Path"></path>
                <path d="M0.09375,2.61111111 L4.90625,2.30555556" id="Path"></path>
            </g>
            <circle id="Oval" stroke="#072A3D" stroke-width="2" cx="506.252353" cy="263.617164" r="2"></circle>
            <circle id="Oval" stroke="#072A3D" stroke-width="2" cx="524.035133" cy="27.8529327" r="2"></circle>
            <circle id="Oval" stroke="#072A3D" stroke-width="2" cx="305.831633" cy="54.4843482" r="2"></circle>
            <path d="M252.9971,5.38406204 L247.9971,0.384062045 C249.4346,2.20726646 251.0596,3.91997365 252.9971,5.38406204 Z" id="Path" stroke="#072A3D" stroke-width="2"></path>
            <path d="M187.378804,41.5418274 L191.378804,45.5418274" id="Path" stroke="#072A3D" stroke-width="2"></path>
            <path d="M41.848496,286.770148 L45.848496,290.770148" id="Path" stroke="#072A3D" stroke-width="2"></path>
            <path d="M92.2216097,65.8261235 L99.2216097,72.8261235" id="Path" stroke="#072A3D" stroke-width="2"></path>
            <circle id="Oval" stroke="#0A2A3C" stroke-width="2" cx="417.217708" cy="63.6025848" r="3"></circle>
            <path d="M12.3692347,16.2369657 C12.6092347,16.2369657 12.8759013,16.3969657 12.902568,16.7169657 L12.902568,16.7169657 C12.9292347,16.9569657 13.1159013,17.1702991 13.382568,17.1969657 C14.022568,17.2769657 14.022568,18.1836324 13.382568,18.2636324 C13.142568,18.2902991 12.9292347,18.4769657 12.902568,18.7436324 L12.902568,18.7436324 C12.8759013,19.0636324 12.6092347,19.2236324 12.3692347,19.2236324 C12.1292347,19.2236324 11.862568,19.0636324 11.8359013,18.7436324 L11.8359013,18.7436324 C11.8092347,18.5036324 11.622568,18.2902991 11.3559013,18.2636324 C10.7159013,18.1836324 10.7159013,17.2769657 11.3559013,17.1969657 C11.5959013,17.1702991 11.8092347,16.9836324 11.8359013,16.7169657 L11.8359013,16.7169657 C11.862568,16.3969657 12.1292347,16.2369657 12.3692347,16.2369657 L12.3692347,16.2369657 Z M12.3692347,15.7036324 C11.8092347,15.7036324 11.382568,16.1036324 11.302568,16.6369657 C10.742568,16.7169657 10.3692347,17.1436324 10.3692347,17.7036324 C10.3692347,18.2636324 10.7692347,18.6902991 11.302568,18.7702991 C11.382568,19.3302991 11.8092347,19.7036324 12.3692347,19.7036324 C12.9292347,19.7036324 13.3559013,19.3036324 13.4359013,18.7702991 C13.9959013,18.6902991 14.3692347,18.2636324 14.3692347,17.7036324 C14.3692347,17.1436324 13.9692347,16.7169657 13.4359013,16.6369657 C13.3559013,16.1036324 12.9292347,15.7036324 12.3692347,15.7036324 L12.3692347,15.7036324 Z" id="Shape" fill="#0A2A3C" fill-rule="nonzero"></path>
            <path d="M354.31319,37.3161346 C354.55319,37.3161346 354.819857,37.4761346 354.846523,37.7961346 L354.846523,37.7961346 C354.87319,38.0361346 355.059857,38.249468 355.326523,38.2761346 C355.966523,38.3561346 355.966523,39.2628013 355.326523,39.3428013 C355.086523,39.369468 354.87319,39.5561346 354.846523,39.8228013 L354.846523,39.8228013 C354.819857,40.1428013 354.55319,40.3028013 354.31319,40.3028013 C354.07319,40.3028013 353.806523,40.1428013 353.779857,39.8228013 L353.779857,39.8228013 C353.75319,39.5828013 353.566523,39.369468 353.299857,39.3428013 C352.659857,39.2628013 352.659857,38.3561346 353.299857,38.2761346 C353.539857,38.249468 353.75319,38.0628013 353.779857,37.7961346 L353.779857,37.7961346 C353.806523,37.4761346 354.046523,37.3161346 354.31319,37.3161346 L354.31319,37.3161346 Z M354.31319,36.7828013 C353.75319,36.7828013 353.326523,37.1828013 353.246523,37.7161346 C352.686523,37.7961346 352.31319,38.2228013 352.31319,38.7828013 C352.31319,39.3428013 352.71319,39.769468 353.246523,39.849468 C353.326523,40.409468 353.75319,40.7828013 354.31319,40.7828013 C354.87319,40.7828013 355.299857,40.3828013 355.379857,39.849468 C355.939857,39.769468 356.31319,39.3428013 356.31319,38.7828013 C356.31319,38.2228013 355.91319,37.7961346 355.379857,37.7161346 C355.299857,37.1828013 354.846523,36.7828013 354.31319,36.7828013 L354.31319,36.7828013 Z" id="Shape" fill="#0A2A3C" fill-rule="nonzero"></path>
            <g id="Group" transform="translate(442.418949, 7.551768)" stroke="#0A2A3C" stroke-width="2">
                <path d="M2.56,0.276923077 L5.248,7.78461538" id="Path"></path>
                <path d="M7.776,2.73846154 L0,5.32307692" id="Path"></path>
            </g>
            <circle id="Oval" stroke="#0A2A3C" stroke-width="2" cx="130.576548" cy="21.5806184" r="2"></circle>
            <circle id="Oval" stroke="#0A2A3C" stroke-width="2" cx="2.99719124" cy="179.129048" r="2"></circle>
            <path d="M33.2380956,183.058738 C29.9681727,183.058738 27.3152164,180.371238 27.3152164,177.058738 L27.3152164,177.058738 C27.3152164,173.746238 29.9681727,171.058738 33.2380956,171.058738 L33.3923373,171.058738 C36.6622601,171.058738 39.3152164,168.371238 39.3152164,165.058738 L39.3152164,165.058738 C39.3152164,161.746238 36.6622601,159.058738 33.3923373,159.058738 L33.2380956,159.058738 C29.9681727,159.058738 27.3152164,156.371238 27.3152164,153.058738 L27.3152164,153.058738 C27.3152164,149.746238 29.9681727,147.058738 33.2380956,147.058738 L33.3923373,147.058738 C36.6622601,147.058738 39.3152164,144.371238 39.3152164,141.058738 L39.3152164,141.058738 C39.3152164,137.746238 36.6622601,135.058738 33.3923373,135.058738" id="Path" stroke="#0A2A3C" stroke-width="2"></path>
            <g id="Group" transform="translate(349.998143, 218.763513)">
                <path d="M130.16383,4.92089552 C114.834043,23.6014925 87.5191489,26.3910448 68.7827423,11.0955224 C47.8165485,-6.01791045 17.1260047,-2.72686567 0.21678487,18.5238806" id="Path" stroke="#0A2A3C" stroke-width="2"></path>
                <polygon id="Path" fill="#0A2A3C" fill-rule="nonzero" points="126.881087 4.82686567 126.973995 5.45373134 130.008983 5.07761194 130.132861 8.18059701 130.752246 8.14925373 130.5974 4.3880597"></polygon>
            </g>
        </g>
        <path d="M205.494712,44 L204.733255,44 L204.659224,43.2596945 C204.627497,42.773208 203.855464,42.4347826 203.432432,42.7520564 L202.86134,43.2173913 L202.321974,42.6780259 L201.782609,42.1386604 L202.247944,41.5675676 C202.501763,41.2291422 202.279671,40.4359577 201.72973,40.3407756 L201,40.266745 L201,39.4947121 L201,38.733255 L201.72973,38.6592244 C202.311398,38.5851939 202.596945,37.8448884 202.247944,37.4324324 L201.782609,36.8613396 L202.321974,36.3219741 L202.86134,35.7826087 L203.432432,36.2479436 C203.823737,36.5440658 204.585194,36.1421857 204.659224,35.7297297 L204.733255,35 L205.494712,35 L206.266745,35 L206.340776,35.7297297 C206.414806,36.1421857 207.176263,36.5440658 207.567568,36.2479436 L208.13866,35.7826087 L208.678026,36.3219741 L209.217391,36.8613396 L208.752056,37.4324324 C208.403055,37.8448884 208.688602,38.5851939 209.259694,38.6592244 L210,38.733255 L210,39.4947121 L210,40.266745 L209.259694,40.3407756 C208.720329,40.4359577 208.498237,41.2291422 208.752056,41.5675676 L209.217391,42.1386604 L208.678026,42.6780259 L208.13866,43.2173913 L207.567568,42.7520564 C207.144536,42.4347826 206.372503,42.773208 206.340776,43.2596945 L206.266745,44 L205.494712,44 Z M205.494712,38.2150411 C206.213866,38.2150411 206.784959,38.786134 206.784959,39.4947121 C206.784959,40.213866 206.213866,40.7849589 205.494712,40.7849589 C204.786134,40.7849589 204.215041,40.213866 204.215041,39.4947121 C204.215041,38.786134 204.786134,38.2150411 205.494712,38.2150411 Z M205.494712,37.2526439 C206.742656,37.2526439 207.747356,38.2573443 207.747356,39.4947121 C207.747356,40.7426557 206.742656,41.7473561 205.494712,41.7473561 C204.257344,41.7473561 203.252644,40.7426557 203.252644,39.4947121 C203.252644,38.2573443 204.257344,37.2526439 205.494712,37.2526439 Z" id="Shape" fill="#4C4F5A"></path>
        <text id="&lt;button-class=&quot;Butto" opacity="0.865862165" font-family="Avalon-Medium, Avalon" font-size="9" font-weight="400" line-spacing="12">
            <tspan x="201" y="64" fill="#ABB2C0">&lt;</tspan>
            <tspan x="205.527" y="64" fill="#F2586D">button</tspan>
            <tspan x="231.609" y="64" fill="#DF10B2"> </tspan>
            <tspan x="201" y="76" fill="#DF10B2">    </tspan>
            <tspan x="210.036" y="76" fill="#D39A60">class</tspan>
            <tspan x="230.16" y="76" fill="#ABB2C0">=</tspan>
            <tspan x="234.687" y="76" fill="#87CA71">"Button Button--success js-Button-action“</tspan>
            <tspan x="392.061" y="76" fill="#ABB2C0">&gt;</tspan>
            <tspan x="396.588" y="76" fill="#DF10B2"></tspan>
            <tspan x="201" y="88" fill="#DF10B2">    </tspan>
            <tspan x="210.036" y="88" fill="#ABB2C0">Success</tspan>
            <tspan x="241.959" y="88" fill="#DF10B2"></tspan>
            <tspan x="201" y="100" fill="#ABB2C0">&lt;/</tspan>
            <tspan x="209.172" y="100" fill="#F2586D">button</tspan>
            <tspan x="235.254" y="100" fill="#ABB2C0">&gt;</tspan>
        </text>
        <text id="HTML" opacity="0.892508371" font-family="Avalon-Demi, Avalon" font-size="10" font-weight="500" fill="#E7E7E7">
            <tspan x="215" y="42">HTML</tspan>
        </text>
        <path d="M192.5,50.5 L423,51" id="Line" stroke="#CBFB00" stroke-width="0.5" opacity="0.309128534" stroke-linecap="square"></path>
        <g id="chevron-right" transform="translate(405.000000, 38.000000)" fill="#4C4F5A" fill-rule="nonzero">
            <path d="M3,7.52954027 C3.00271506,7.40455117 3.04742543,7.28503269 3.12559618,7.19380016 L6.967909,2.99704876 L3.12559618,-1.19970264 C2.96242598,-1.38603353 2.96585635,-1.68097291 3.13330742,-1.86270512 C3.30075849,-2.04443734 3.57048001,-2.04594573 3.73962196,-1.86609589 L7.88429596,2.66130865 C8.03856801,2.85334501 8.03856801,3.14075252 7.88429596,3.33278887 L3.73962196,7.86019342 C3.61645743,7.99587315 3.43072322,8.03715081 3.26890039,7.96480679 C3.10707756,7.89246276 3.00097661,7.72071817 3,7.52954027 L3,7.52954027 Z" id="Path" transform="translate(5.500000, 3.000000) rotate(-270.000000) translate(-5.500000, -3.000000) "></path>
        </g>
    </g>
</svg>
