<svg class="home-illustration floating" width="437px" height="342px" viewBox="0 0 437 342" version="1.1" xmlns="http://www.w3.org/2000/svg" xmlns:xlink="http://www.w3.org/1999/xlink">
  <g id="home-illustration-03" stroke="none" stroke-width="1" fill="none" fill-rule="evenodd">
      <rect id="Mask-Copy" fill="#EAEAEA" opacity="0.425106957" transform="translate(208.000000, 158.000000) rotate(2.000000) translate(-208.000000, -158.000000) " x="5" y="40" width="406" height="236" rx="5"></rect>
      <g id="Group-5" transform="translate(119.000000, 254.000000)">
          <path d="M4.375,0 L226.375,0 C228.584139,-4.05812251e-16 230.375,1.790861 230.375,4 L230.375,84 C230.375,86.209139 228.584139,88 226.375,88 L4.375,88 C2.165861,88 0.375,86.209139 0.375,84 L0.375,4 C0.375,1.790861 2.165861,4.05812251e-16 4.375,0 Z" id="Rectangle-Copy-2" fill="#1D1E22"></path>
          <g id="const-ClassName-=-{" transform="translate(8.663000, 32.853000)" fill-rule="nonzero" opacity="0.865862165">
              <path d="M3.6,4.653 L4.536,4.653 C4.194,5.643 3.339,6.264 2.313,6.264 C1.008,6.264 -1.17239551e-13,5.22 -1.17239551e-13,3.879 C-1.17239551e-13,2.547 1.017,1.503 2.322,1.503 C3.357,1.503 4.311,2.205 4.536,3.132 L3.6,3.132 C3.258,2.52 2.898,2.277 2.331,2.277 C1.476,2.277 0.846,2.961 0.846,3.879 C0.846,4.761 1.503,5.49 2.295,5.49 C2.835,5.49 3.348,5.157 3.6,4.653 Z M5.049,3.861 C5.049,2.565 6.147,1.503 7.479,1.503 C8.847,1.503 9.927,2.556 9.927,3.888 C9.927,4.509 9.621,5.184 9.144,5.625 C8.694,6.048 8.118,6.264 7.488,6.264 C6.147,6.264 5.049,5.184 5.049,3.861 Z M5.895,3.879 C5.895,4.761 6.615,5.49 7.488,5.49 C8.352,5.49 9.081,4.761 9.081,3.897 C9.081,2.988 8.379,2.277 7.488,2.277 C6.606,2.277 5.895,2.997 5.895,3.879 Z M10.8,6.147 L10.8,1.62 L11.583,1.62 L11.583,2.097 C11.88,1.701 12.348,1.494 12.924,1.494 C14.049,1.494 14.805,2.25 14.805,3.375 L14.805,6.147 L13.959,6.147 L13.959,3.681 C13.959,3.24 13.905,2.943 13.77,2.727 C13.599,2.448 13.23,2.268 12.825,2.268 C12.096,2.268 11.655,2.799 11.655,3.681 L11.655,6.147 L10.8,6.147 Z M18.522,2.826 L17.685,2.826 C17.622,2.457 17.433,2.277 17.118,2.277 C16.803,2.277 16.56,2.484 16.56,2.772 C16.56,3.06 16.704,3.177 17.262,3.348 C17.694,3.483 17.982,3.627 18.18,3.807 C18.459,4.077 18.621,4.446 18.621,4.824 C18.621,5.607 17.91,6.264 17.055,6.264 C16.479,6.264 15.966,5.976 15.696,5.499 C15.561,5.256 15.516,5.04 15.507,4.671 L16.362,4.671 C16.398,5.202 16.659,5.49 17.1,5.49 C17.496,5.49 17.775,5.247 17.775,4.896 C17.775,4.554 17.595,4.392 16.983,4.185 C16.533,4.041 16.308,3.933 16.128,3.78 C15.849,3.537 15.714,3.258 15.714,2.907 C15.714,2.097 16.317,1.503 17.136,1.503 C17.937,1.503 18.504,2.052 18.522,2.826 Z M19.638,6.147 L19.638,2.394 L19.026,2.394 L19.026,1.62 L19.638,1.62 L19.638,0.117 L20.484,0.117 L20.484,1.62 L21.231,1.62 L21.231,2.394 L20.484,2.394 L20.484,6.147 L19.638,6.147 Z" id="const" fill="#D760E3"></path>
              <path d="M28.701,4.662 L29.781,4.662 C29.214,5.67 28.197,6.264 27.045,6.264 C25.353,6.264 23.949,4.842 23.949,3.114 C23.949,1.386 25.326,-7.10542736e-15 27.054,-7.10542736e-15 C28.242,-7.10542736e-15 29.223,0.585 29.826,1.656 L28.764,1.656 C28.287,1.089 27.738,0.81 27.072,0.81 C25.83,0.81 24.831,1.845 24.831,3.114 C24.831,4.383 25.848,5.454 27.054,5.454 C27.693,5.454 28.251,5.184 28.701,4.662 Z M30.573,6.147 L30.573,0.117 L31.419,0.117 L31.419,6.147 L30.573,6.147 Z M36.315,6.147 L36.315,5.436 C35.964,5.985 35.388,6.264 34.614,6.264 C33.309,6.264 32.31,5.238 32.31,3.897 C32.31,3.312 32.517,2.754 32.886,2.304 C33.336,1.773 33.93,1.503 34.677,1.503 C35.352,1.503 36.018,1.818 36.315,2.277 L36.315,1.62 L37.098,1.62 L37.098,6.147 L36.315,6.147 Z M33.156,3.897 C33.156,4.77 33.858,5.49 34.695,5.49 C35.541,5.49 36.252,4.779 36.252,3.924 C36.252,2.997 35.577,2.277 34.695,2.277 C33.84,2.277 33.156,2.997 33.156,3.897 Z M40.977,2.826 L40.14,2.826 C40.077,2.457 39.888,2.277 39.573,2.277 C39.258,2.277 39.015,2.484 39.015,2.772 C39.015,3.06 39.159,3.177 39.717,3.348 C40.149,3.483 40.437,3.627 40.635,3.807 C40.914,4.077 41.076,4.446 41.076,4.824 C41.076,5.607 40.365,6.264 39.51,6.264 C38.934,6.264 38.421,5.976 38.151,5.499 C38.016,5.256 37.971,5.04 37.962,4.671 L38.817,4.671 C38.853,5.202 39.114,5.49 39.555,5.49 C39.951,5.49 40.23,5.247 40.23,4.896 C40.23,4.554 40.05,4.392 39.438,4.185 C38.988,4.041 38.763,3.933 38.583,3.78 C38.304,3.537 38.169,3.258 38.169,2.907 C38.169,2.097 38.772,1.503 39.591,1.503 C40.392,1.503 40.959,2.052 40.977,2.826 Z M44.667,2.826 L43.83,2.826 C43.767,2.457 43.578,2.277 43.263,2.277 C42.948,2.277 42.705,2.484 42.705,2.772 C42.705,3.06 42.849,3.177 43.407,3.348 C43.839,3.483 44.127,3.627 44.325,3.807 C44.604,4.077 44.766,4.446 44.766,4.824 C44.766,5.607 44.055,6.264 43.2,6.264 C42.624,6.264 42.111,5.976 41.841,5.499 C41.706,5.256 41.661,5.04 41.652,4.671 L42.507,4.671 C42.543,5.202 42.804,5.49 43.245,5.49 C43.641,5.49 43.92,5.247 43.92,4.896 C43.92,4.554 43.74,4.392 43.128,4.185 C42.678,4.041 42.453,3.933 42.273,3.78 C41.994,3.537 41.859,3.258 41.859,2.907 C41.859,2.097 42.462,1.503 43.281,1.503 C44.082,1.503 44.649,2.052 44.667,2.826 Z M45.675,6.147 L45.675,0.117 L46.638,0.117 L49.59,4.707 L49.59,0.117 L50.472,0.117 L50.472,6.147 L49.563,6.147 L46.557,1.485 L46.557,6.147 L45.675,6.147 Z M55.431,6.147 L55.431,5.436 C55.08,5.985 54.504,6.264 53.73,6.264 C52.425,6.264 51.426,5.238 51.426,3.897 C51.426,3.312 51.633,2.754 52.002,2.304 C52.452,1.773 53.046,1.503 53.793,1.503 C54.468,1.503 55.134,1.818 55.431,2.277 L55.431,1.62 L56.214,1.62 L56.214,6.147 L55.431,6.147 Z M52.272,3.897 C52.272,4.77 52.974,5.49 53.811,5.49 C54.657,5.49 55.368,4.779 55.368,3.924 C55.368,2.997 54.693,2.277 53.811,2.277 C52.956,2.277 52.272,2.997 52.272,3.897 Z M57.303,6.147 L57.303,1.62 L58.086,1.62 L58.086,2.106 C58.428,1.683 58.833,1.494 59.4,1.494 C60.021,1.494 60.597,1.8 60.804,2.25 C61.137,1.728 61.596,1.503 62.298,1.503 C63.432,1.503 64.134,2.223 64.134,3.384 L64.134,6.147 L63.288,6.147 L63.288,3.627 C63.288,2.736 62.919,2.277 62.217,2.277 C61.866,2.277 61.551,2.412 61.371,2.646 C61.191,2.871 61.137,3.105 61.137,3.627 L61.137,6.147 L60.291,6.147 L60.291,3.627 C60.291,3.06 60.264,2.934 60.111,2.691 C59.931,2.421 59.634,2.268 59.256,2.268 C58.932,2.268 58.617,2.394 58.419,2.619 C58.212,2.844 58.149,3.087 58.149,3.627 L58.149,6.147 L57.303,6.147 Z M65.826,4.257 C66.006,5.004 66.591,5.49 67.311,5.49 C67.851,5.49 68.301,5.22 68.589,4.725 L69.444,4.725 C69.093,5.67 68.256,6.264 67.275,6.264 C66.015,6.264 64.971,5.184 64.971,3.879 C64.971,2.538 66.006,1.467 67.293,1.467 C68.553,1.467 69.588,2.529 69.588,3.825 C69.588,3.906 69.579,4.095 69.561,4.257 L65.826,4.257 Z M65.817,3.609 L68.751,3.609 C68.706,2.862 68.049,2.241 67.284,2.241 C66.87,2.241 66.456,2.43 66.177,2.736 C65.961,2.97 65.88,3.177 65.817,3.609 Z" id="ClassName" fill="#E7C073"></path>
              <path d="M72.495,2.862 L72.495,2.196 L76.293,2.196 L76.293,2.862 L72.495,2.862 Z M72.495,4.068 L72.495,3.402 L76.293,3.402 L76.293,4.068 L72.495,4.068 Z" id="=" fill="#12BAC7"></path>
              <path d="M79.632,6.417 L79.632,4.995 C79.632,4.473 79.497,4.248 79.146,4.158 L79.146,3.564 C79.488,3.474 79.632,3.249 79.632,2.79 L79.632,1.305 C79.632,0.441 80.001,0.09 80.91,0.09 L81.297,0.09 L81.297,0.801 C80.586,0.801 80.442,0.918 80.442,1.503 L80.442,2.844 C80.442,3.42 80.325,3.654 79.92,3.888 C80.307,4.122 80.442,4.392 80.442,4.95 L80.442,6.255 C80.442,6.705 80.478,6.759 80.622,6.867 C80.721,6.939 80.937,6.975 81.198,6.975 L81.297,6.975 L81.297,7.686 L80.883,7.686 C79.992,7.686 79.632,7.317 79.632,6.417 Z" id="{" fill="#FFD600"></path>
              <path d="M9.288,16.662 L10.368,16.662 C9.801,17.67 8.784,18.264 7.632,18.264 C5.94,18.264 4.536,16.842 4.536,15.114 C4.536,13.386 5.913,12 7.641,12 C8.829,12 9.81,12.585 10.413,13.656 L9.351,13.656 C8.874,13.089 8.325,12.81 7.659,12.81 C6.417,12.81 5.418,13.845 5.418,15.114 C5.418,16.383 6.435,17.454 7.641,17.454 C8.28,17.454 8.838,17.184 9.288,16.662 Z M11.16,16.302 L11.16,12.117 L12.042,12.117 L12.042,16.185 C12.042,16.617 12.132,16.878 12.366,17.121 C12.582,17.337 12.861,17.454 13.185,17.454 C13.518,17.454 13.815,17.337 14.031,17.112 C14.265,16.869 14.328,16.662 14.328,16.185 L14.328,12.117 L15.21,12.117 L15.21,16.302 C15.21,16.878 15.048,17.283 14.652,17.661 C14.247,18.057 13.734,18.264 13.176,18.264 C12.042,18.264 11.16,17.4 11.16,16.302 Z M16.353,18.147 L16.353,12.117 L18.225,12.117 C18.963,12.117 19.467,12.279 19.827,12.621 C20.178,12.954 20.385,13.485 20.385,14.052 C20.385,14.709 20.106,15.267 19.629,15.582 C19.359,15.762 19.125,15.834 18.657,15.906 L20.349,18.147 L19.242,18.147 L17.235,15.348 L17.235,18.147 L16.353,18.147 Z M17.235,15.231 L17.838,15.231 C18.369,15.231 18.675,15.168 18.963,14.997 C19.314,14.799 19.503,14.457 19.503,14.052 C19.503,13.368 18.972,12.927 18.162,12.927 L17.235,12.927 L17.235,15.231 Z M21.321,18.147 L21.321,12.117 L23.193,12.117 C23.931,12.117 24.435,12.279 24.795,12.621 C25.146,12.954 25.353,13.485 25.353,14.052 C25.353,14.709 25.074,15.267 24.597,15.582 C24.327,15.762 24.093,15.834 23.625,15.906 L25.317,18.147 L24.21,18.147 L22.203,15.348 L22.203,18.147 L21.321,18.147 Z M22.203,15.231 L22.806,15.231 C23.337,15.231 23.643,15.168 23.931,14.997 C24.282,14.799 24.471,14.457 24.471,14.052 C24.471,13.368 23.94,12.927 23.13,12.927 L22.203,12.927 L22.203,15.231 Z M26.289,18.147 L26.289,12.117 L29.547,12.117 L29.547,12.927 L27.171,12.927 L27.171,14.7 L29.547,14.7 L29.547,15.51 L27.171,15.51 L27.171,17.337 L29.547,17.337 L29.547,18.147 L26.289,18.147 Z M30.528,18.147 L30.528,12.117 L31.491,12.117 L34.443,16.707 L34.443,12.117 L35.325,12.117 L35.325,18.147 L34.416,18.147 L31.41,13.485 L31.41,18.147 L30.528,18.147 Z M37.188,18.147 L37.188,12.927 L36.027,12.927 L36.027,12.117 L39.222,12.117 L39.222,12.927 L38.07,12.927 L38.07,18.147 L37.188,18.147 Z" id="CURRENT" fill="#F2586D"></path>
              <path d="M39.861,14.619 L39.861,13.62 L40.707,13.62 L40.707,14.619 L39.861,14.619 Z M39.861,18.147 L39.861,17.148 L40.707,17.148 L40.707,18.147 L39.861,18.147 Z" id=":" fill="#ABB2C0"></path>
              <path d="M43.884,13.935 L43.821,12.117 L44.433,12.117 L44.37,13.935 L43.884,13.935 Z M45.279,13.116 L45.279,12.117 L46.125,12.117 L46.125,13.116 L45.279,13.116 Z M45.279,18.147 L45.279,13.62 L46.125,13.62 L46.125,18.147 L45.279,18.147 Z M49.869,14.826 L49.032,14.826 C48.969,14.457 48.78,14.277 48.465,14.277 C48.15,14.277 47.907,14.484 47.907,14.772 C47.907,15.06 48.051,15.177 48.609,15.348 C49.041,15.483 49.329,15.627 49.527,15.807 C49.806,16.077 49.968,16.446 49.968,16.824 C49.968,17.607 49.257,18.264 48.402,18.264 C47.826,18.264 47.313,17.976 47.043,17.499 C46.908,17.256 46.863,17.04 46.854,16.671 L47.709,16.671 C47.745,17.202 48.006,17.49 48.447,17.49 C48.843,17.49 49.122,17.247 49.122,16.896 C49.122,16.554 48.942,16.392 48.33,16.185 C47.88,16.041 47.655,15.933 47.475,15.78 C47.196,15.537 47.061,15.258 47.061,14.907 C47.061,14.097 47.664,13.503 48.483,13.503 C49.284,13.503 49.851,14.052 49.869,14.826 Z M50.274,16.248 L50.274,15.402 L52.551,15.402 L52.551,16.248 L50.274,16.248 Z M56.439,16.653 L57.375,16.653 C57.033,17.643 56.178,18.264 55.152,18.264 C53.847,18.264 52.839,17.22 52.839,15.879 C52.839,14.547 53.856,13.503 55.161,13.503 C56.196,13.503 57.15,14.205 57.375,15.132 L56.439,15.132 C56.097,14.52 55.737,14.277 55.17,14.277 C54.315,14.277 53.685,14.961 53.685,15.879 C53.685,16.761 54.342,17.49 55.134,17.49 C55.674,17.49 56.187,17.157 56.439,16.653 Z M58.113,16.392 L58.113,13.62 L58.959,13.62 L58.959,16.086 C58.959,16.518 59.013,16.824 59.148,17.04 C59.319,17.319 59.688,17.499 60.093,17.499 C60.822,17.499 61.263,16.968 61.263,16.086 L61.263,13.62 L62.109,13.62 L62.109,18.147 L61.326,18.147 L61.326,17.67 C61.056,18.048 60.57,18.273 59.994,18.273 C58.869,18.273 58.113,17.517 58.113,16.392 Z M63.198,18.147 L63.198,13.62 L63.981,13.62 L63.981,14.025 C64.251,13.683 64.656,13.503 65.151,13.503 L65.151,14.376 C64.386,14.43 64.044,14.826 64.044,15.672 L64.044,18.147 L63.198,18.147 Z M65.772,18.147 L65.772,13.62 L66.555,13.62 L66.555,14.025 C66.825,13.683 67.23,13.503 67.725,13.503 L67.725,14.376 C66.96,14.43 66.618,14.826 66.618,15.672 L66.618,18.147 L65.772,18.147 Z M68.859,16.257 C69.039,17.004 69.624,17.49 70.344,17.49 C70.884,17.49 71.334,17.22 71.622,16.725 L72.477,16.725 C72.126,17.67 71.289,18.264 70.308,18.264 C69.048,18.264 68.004,17.184 68.004,15.879 C68.004,14.538 69.039,13.467 70.326,13.467 C71.586,13.467 72.621,14.529 72.621,15.825 C72.621,15.906 72.612,16.095 72.594,16.257 L68.859,16.257 Z M68.85,15.609 L71.784,15.609 C71.739,14.862 71.082,14.241 70.317,14.241 C69.903,14.241 69.489,14.43 69.21,14.736 C68.994,14.97 68.913,15.177 68.85,15.609 Z M73.512,18.147 L73.512,13.62 L74.295,13.62 L74.295,14.097 C74.592,13.701 75.06,13.494 75.636,13.494 C76.761,13.494 77.517,14.25 77.517,15.375 L77.517,18.147 L76.671,18.147 L76.671,15.681 C76.671,15.24 76.617,14.943 76.482,14.727 C76.311,14.448 75.942,14.268 75.537,14.268 C74.808,14.268 74.367,14.799 74.367,15.681 L74.367,18.147 L73.512,18.147 Z M78.741,18.147 L78.741,14.394 L78.129,14.394 L78.129,13.62 L78.741,13.62 L78.741,12.117 L79.587,12.117 L79.587,13.62 L80.334,13.62 L80.334,14.394 L79.587,14.394 L79.587,18.147 L78.741,18.147 Z M80.865,13.935 L80.802,12.117 L81.414,12.117 L81.351,13.935 L80.865,13.935 Z" id="'is-current'" fill="#87CA71"></path>
              <path d="M82.26,18.147 L82.26,17.148 L83.106,17.148 L83.106,18.057 C83.106,18.714 82.836,19.065 82.26,19.182 L82.26,18.678 C82.476,18.597 82.566,18.462 82.566,18.219 C82.566,18.201 82.566,18.183 82.557,18.147 L82.26,18.147 Z" id="," fill="#ABB2C0"></path>
              <path d="M4.833,30.147 L4.833,24.117 L5.715,24.117 L5.715,29.337 L7.803,29.337 L7.803,30.147 L4.833,30.147 Z M7.893,27.132 C7.893,25.395 9.288,24 11.025,24 C12.798,24 14.166,25.377 14.166,27.177 C14.166,28.86 12.744,30.264 11.025,30.264 C9.297,30.264 7.893,28.86 7.893,27.132 Z M9.45,28.806 C9.864,29.229 10.404,29.454 11.034,29.454 C11.655,29.454 12.195,29.229 12.609,28.806 C13.023,28.383 13.284,27.735 13.284,27.159 C13.284,26.565 13.077,26.007 12.708,25.575 C12.267,25.062 11.718,24.81 11.025,24.81 C10.332,24.81 9.792,25.062 9.351,25.575 C8.982,26.007 8.775,26.574 8.775,27.132 C8.775,27.735 9.027,28.374 9.45,28.806 Z M14.463,30.147 L16.758,24.117 L17.541,24.117 L19.836,30.147 L18.909,30.147 L18.234,28.365 L16.065,28.365 L15.399,30.147 L14.463,30.147 Z M16.38,27.555 L17.928,27.555 L17.154,25.26 L16.38,27.555 Z M20.439,30.147 L20.439,24.117 L22.572,24.117 C23.427,24.117 24.075,24.378 24.606,24.927 C25.164,25.503 25.488,26.313 25.488,27.159 C25.488,27.951 25.209,28.743 24.732,29.265 C24.192,29.859 23.418,30.147 22.311,30.147 L20.439,30.147 Z M21.321,29.337 L22.032,29.337 C22.869,29.337 23.436,29.184 23.877,28.833 C24.336,28.464 24.606,27.843 24.606,27.159 C24.606,26.529 24.381,25.962 23.958,25.53 C23.544,25.107 23.076,24.927 22.41,24.927 L21.321,24.927 L21.321,29.337 Z M26.46,30.147 L26.46,24.117 L27.342,24.117 L27.342,30.147 L26.46,30.147 Z M28.638,30.147 L28.638,24.117 L29.601,24.117 L32.553,28.707 L32.553,24.117 L33.435,24.117 L33.435,30.147 L32.526,30.147 L29.52,25.485 L29.52,30.147 L28.638,30.147 Z M36.774,27.141 L40.59,27.141 C40.581,27.879 40.41,28.401 40.023,28.95 C39.429,29.778 38.493,30.264 37.476,30.264 C35.757,30.264 34.389,28.878 34.389,27.141 C34.389,25.386 35.748,24 37.467,24 C38.592,24 39.627,24.621 40.167,25.62 L39.15,25.62 C38.61,25.044 38.133,24.81 37.503,24.81 C36.27,24.81 35.271,25.854 35.271,27.141 C35.271,28.401 36.288,29.454 37.512,29.454 C38.007,29.454 38.538,29.256 38.934,28.914 C39.249,28.653 39.411,28.419 39.591,27.951 L36.774,27.951 L36.774,27.141 Z" id="LOADING" fill="#F2586D"></path>
              <path d="M41.409,26.619 L41.409,25.62 L42.255,25.62 L42.255,26.619 L41.409,26.619 Z M41.409,30.147 L41.409,29.148 L42.255,29.148 L42.255,30.147 L41.409,30.147 Z" id=":" fill="#ABB2C0"></path>
              <path d="M45.432,25.935 L45.369,24.117 L45.981,24.117 L45.918,25.935 L45.432,25.935 Z M46.827,25.116 L46.827,24.117 L47.673,24.117 L47.673,25.116 L46.827,25.116 Z M46.827,30.147 L46.827,25.62 L47.673,25.62 L47.673,30.147 L46.827,30.147 Z M51.417,26.826 L50.58,26.826 C50.517,26.457 50.328,26.277 50.013,26.277 C49.698,26.277 49.455,26.484 49.455,26.772 C49.455,27.06 49.599,27.177 50.157,27.348 C50.589,27.483 50.877,27.627 51.075,27.807 C51.354,28.077 51.516,28.446 51.516,28.824 C51.516,29.607 50.805,30.264 49.95,30.264 C49.374,30.264 48.861,29.976 48.591,29.499 C48.456,29.256 48.411,29.04 48.402,28.671 L49.257,28.671 C49.293,29.202 49.554,29.49 49.995,29.49 C50.391,29.49 50.67,29.247 50.67,28.896 C50.67,28.554 50.49,28.392 49.878,28.185 C49.428,28.041 49.203,27.933 49.023,27.78 C48.744,27.537 48.609,27.258 48.609,26.907 C48.609,26.097 49.212,25.503 50.031,25.503 C50.832,25.503 51.399,26.052 51.417,26.826 Z M51.822,28.248 L51.822,27.402 L54.099,27.402 L54.099,28.248 L51.822,28.248 Z M54.639,30.147 L54.639,24.117 L55.485,24.117 L55.485,30.147 L54.639,30.147 Z M56.376,27.861 C56.376,26.565 57.474,25.503 58.806,25.503 C60.174,25.503 61.254,26.556 61.254,27.888 C61.254,28.509 60.948,29.184 60.471,29.625 C60.021,30.048 59.445,30.264 58.815,30.264 C57.474,30.264 56.376,29.184 56.376,27.861 Z M57.222,27.879 C57.222,28.761 57.942,29.49 58.815,29.49 C59.679,29.49 60.408,28.761 60.408,27.897 C60.408,26.988 59.706,26.277 58.815,26.277 C57.933,26.277 57.222,26.997 57.222,27.879 Z M65.835,30.147 L65.835,29.436 C65.484,29.985 64.908,30.264 64.134,30.264 C62.829,30.264 61.83,29.238 61.83,27.897 C61.83,27.312 62.037,26.754 62.406,26.304 C62.856,25.773 63.45,25.503 64.197,25.503 C64.872,25.503 65.538,25.818 65.835,26.277 L65.835,25.62 L66.618,25.62 L66.618,30.147 L65.835,30.147 Z M62.676,27.897 C62.676,28.77 63.378,29.49 64.215,29.49 C65.061,29.49 65.772,28.779 65.772,27.924 C65.772,26.997 65.097,26.277 64.215,26.277 C63.36,26.277 62.676,26.997 62.676,27.897 Z M71.469,30.147 L71.469,29.508 C71.037,30.03 70.524,30.273 69.84,30.273 C68.517,30.273 67.509,29.229 67.509,27.861 C67.509,27.267 67.734,26.682 68.139,26.223 C68.571,25.737 69.093,25.503 69.768,25.503 C70.398,25.503 71.082,25.8 71.406,26.214 L71.406,24.117 L72.252,24.117 L72.252,30.147 L71.469,30.147 Z M68.355,27.879 C68.355,28.779 69.03,29.499 69.885,29.499 C70.767,29.499 71.469,28.77 71.469,27.852 C71.469,26.952 70.785,26.277 69.867,26.277 C69.012,26.277 68.355,26.97 68.355,27.879 Z M73.332,25.116 L73.332,24.117 L74.178,24.117 L74.178,25.116 L73.332,25.116 Z M73.332,30.147 L73.332,25.62 L74.178,25.62 L74.178,30.147 L73.332,30.147 Z M75.258,30.147 L75.258,25.62 L76.041,25.62 L76.041,26.097 C76.338,25.701 76.806,25.494 77.382,25.494 C78.507,25.494 79.263,26.25 79.263,27.375 L79.263,30.147 L78.417,30.147 L78.417,27.681 C78.417,27.24 78.363,26.943 78.228,26.727 C78.057,26.448 77.688,26.268 77.283,26.268 C76.554,26.268 76.113,26.799 76.113,27.681 L76.113,30.147 L75.258,30.147 Z M80.226,30.507 L81.18,30.507 C81.504,30.948 81.918,31.155 82.467,31.155 C83.43,31.155 84.06,30.561 84.06,29.616 L84.06,29.526 C83.619,30.03 83.106,30.273 82.485,30.273 C81.18,30.273 80.073,29.166 80.073,27.87 C80.073,27.258 80.361,26.592 80.829,26.151 C81.27,25.719 81.846,25.503 82.512,25.503 C83.187,25.503 83.718,25.719 84.123,26.169 L84.123,25.62 L84.906,25.62 L84.906,29.634 C84.906,30.246 84.726,30.759 84.366,31.146 C83.907,31.641 83.187,31.929 82.422,31.929 C81.855,31.929 81.378,31.767 80.955,31.443 C80.577,31.146 80.415,30.93 80.226,30.507 Z M80.919,27.888 C80.919,28.77 81.621,29.499 82.476,29.499 C83.358,29.499 84.06,28.761 84.06,27.843 C84.06,26.961 83.367,26.277 82.476,26.277 C81.621,26.277 80.919,26.997 80.919,27.888 Z M85.824,25.935 L85.761,24.117 L86.373,24.117 L86.31,25.935 L85.824,25.935 Z" id="'is-loading'" fill="#87CA71"></path>
              <path d="M0.279,42.975 C0.99,42.975 1.125,42.867 1.125,42.273 L1.125,40.932 C1.125,40.356 1.251,40.113 1.647,39.888 C1.26,39.654 1.125,39.384 1.125,38.826 L1.125,37.521 C1.125,37.161 1.08,37.008 0.945,36.909 C0.855,36.846 0.63,36.801 0.378,36.801 L0.279,36.801 L0.279,36.09 L0.684,36.09 C1.575,36.09 1.935,36.459 1.935,37.359 L1.935,38.79 C1.935,39.303 2.07,39.528 2.43,39.618 L2.43,40.212 C2.079,40.302 1.935,40.527 1.935,40.986 L1.935,42.471 C1.935,43.335 1.566,43.686 0.657,43.686 L0.279,43.686 L0.279,42.975 Z" id="}" fill="#FFD600"></path>
              <path d="M3.195,38.619 L3.195,37.62 L4.041,37.62 L4.041,38.619 L3.195,38.619 Z M3.195,42.147 L3.195,41.148 L4.041,41.148 L4.041,42.057 C4.041,42.714 3.771,43.065 3.195,43.182 L3.195,42.678 C3.411,42.597 3.501,42.462 3.501,42.219 C3.501,42.201 3.501,42.183 3.492,42.147 L3.195,42.147 Z" id=";" fill="#ABB2C0"></path>
          </g>
          <path d="M13.05,17.361 L12.258,17.361 L12.181,16.591 C12.148,16.085 11.345,15.733 10.905,16.063 L10.311,16.547 L9.75,15.986 L9.189,15.425 L9.673,14.831 C9.937,14.479 9.706,13.654 9.134,13.555 L8.375,13.478 L8.375,12.675 L8.375,11.883 L9.134,11.806 C9.739,11.729 10.036,10.959 9.673,10.53 L9.189,9.936 L9.75,9.375 L10.311,8.814 L10.905,9.298 C11.312,9.606 12.104,9.188 12.181,8.759 L12.258,8 L13.05,8 L13.853,8 L13.93,8.759 C14.007,9.188 14.799,9.606 15.206,9.298 L15.8,8.814 L16.361,9.375 L16.922,9.936 L16.438,10.53 C16.075,10.959 16.372,11.729 16.966,11.806 L17.736,11.883 L17.736,12.675 L17.736,13.478 L16.966,13.555 C16.405,13.654 16.174,14.479 16.438,14.831 L16.922,15.425 L16.361,15.986 L15.8,16.547 L15.206,16.063 C14.766,15.733 13.963,16.085 13.93,16.591 L13.853,17.361 L13.05,17.361 Z M13.05,11.344 C13.798,11.344 14.392,11.938 14.392,12.675 C14.392,13.423 13.798,14.017 13.05,14.017 C12.313,14.017 11.719,13.423 11.719,12.675 C11.719,11.938 12.313,11.344 13.05,11.344 Z M13.05,10.343 C14.348,10.343 15.393,11.388 15.393,12.675 C15.393,13.973 14.348,15.018 13.05,15.018 C11.763,15.018 10.718,13.973 10.718,12.675 C10.718,11.388 11.763,10.343 13.05,10.343 Z" id="Shape-Copy-2" fill="#4C4F5A"></path>
          <g id="chevron-right-copy-2" transform="translate(212.375000, 11.000000)" fill="#4C4F5A" fill-rule="nonzero">
              <path d="M3,7.52954027 C3.00271506,7.40455117 3.04742543,7.28503269 3.12559618,7.19380016 L6.967909,2.99704876 L3.12559618,-1.19970264 C2.96242598,-1.38603353 2.96585635,-1.68097291 3.13330742,-1.86270512 C3.30075849,-2.04443734 3.57048001,-2.04594573 3.73962196,-1.86609589 L7.88429596,2.66130865 C8.03856801,2.85334501 8.03856801,3.14075252 7.88429596,3.33278887 L3.73962196,7.86019342 C3.61645743,7.99587315 3.43072322,8.03715081 3.26890039,7.96480679 C3.10707756,7.89246276 3.00097661,7.72071817 3,7.52954027 L3,7.52954027 Z" id="Path" transform="translate(5.500000, 3.000000) rotate(-270.000000) translate(-5.500000, -3.000000) "></path>
          </g>
          <text id="JS" opacity="0.892508371" font-family="Avalon-Demi, Avalon" font-size="10" font-weight="500" fill="#E7E7E7">
              <tspan x="22.375" y="15">JS</tspan>
          </text>
          <path d="M0.5,21.625 L230.75,21.375" id="Line-Copy-2" stroke="#55E6F1" stroke-width="0.5" opacity="0.309128534" stroke-linecap="square"></path>
      </g>
      <rect id="Rectangle" fill="#1D1E22" x="137" y="4" width="230" height="102" rx="5"></rect>
      <g id="Group-4" transform="translate(206.000000, 118.000000)">
          <rect id="Rectangle-Copy" fill="#1D1E22" x="0" y="0" width="231" height="126" rx="5"></rect>
          <path d="M12.675,17.361 L11.883,17.361 L11.806,16.591 C11.773,16.085 10.97,15.733 10.53,16.063 L9.936,16.547 L9.375,15.986 L8.814,15.425 L9.298,14.831 C9.562,14.479 9.331,13.654 8.759,13.555 L8,13.478 L8,12.675 L8,11.883 L8.759,11.806 C9.364,11.729 9.661,10.959 9.298,10.53 L8.814,9.936 L9.375,9.375 L9.936,8.814 L10.53,9.298 C10.937,9.606 11.729,9.188 11.806,8.759 L11.883,8 L12.675,8 L13.478,8 L13.555,8.759 C13.632,9.188 14.424,9.606 14.831,9.298 L15.425,8.814 L15.986,9.375 L16.547,9.936 L16.063,10.53 C15.7,10.959 15.997,11.729 16.591,11.806 L17.361,11.883 L17.361,12.675 L17.361,13.478 L16.591,13.555 C16.03,13.654 15.799,14.479 16.063,14.831 L16.547,15.425 L15.986,15.986 L15.425,16.547 L14.831,16.063 C14.391,15.733 13.588,16.085 13.555,16.591 L13.478,17.361 L12.675,17.361 Z M12.675,11.344 C13.423,11.344 14.017,11.938 14.017,12.675 C14.017,13.423 13.423,14.017 12.675,14.017 C11.938,14.017 11.344,13.423 11.344,12.675 C11.344,11.938 11.938,11.344 12.675,11.344 Z M12.675,10.343 C13.973,10.343 15.018,11.388 15.018,12.675 C15.018,13.973 13.973,15.018 12.675,15.018 C11.388,15.018 10.343,13.973 10.343,12.675 C10.343,11.388 11.388,10.343 12.675,10.343 Z" id="Shape-Copy" fill="#4C4F5A"></path>
          <g id=":root-{-—Button-focu" transform="translate(10.540000, 33.943000)" fill-rule="nonzero" opacity="0.865862165">
              <path d="M9.23705556e-14,2.529 L9.23705556e-14,1.53 L0.846,1.53 L0.846,2.529 L9.23705556e-14,2.529 Z M9.23705556e-14,6.057 L9.23705556e-14,5.058 L0.846,5.058 L0.846,6.057 L9.23705556e-14,6.057 Z M1.926,6.057 L1.926,1.53 L2.709,1.53 L2.709,1.935 C2.979,1.593 3.384,1.413 3.879,1.413 L3.879,2.286 C3.114,2.34 2.772,2.736 2.772,3.582 L2.772,6.057 L1.926,6.057 Z M4.122,3.771 C4.122,2.475 5.22,1.413 6.552,1.413 C7.92,1.413 9,2.466 9,3.798 C9,4.419 8.694,5.094 8.217,5.535 C7.767,5.958 7.191,6.174 6.561,6.174 C5.22,6.174 4.122,5.094 4.122,3.771 Z M4.968,3.789 C4.968,4.671 5.688,5.4 6.561,5.4 C7.425,5.4 8.154,4.671 8.154,3.807 C8.154,2.898 7.452,2.187 6.561,2.187 C5.679,2.187 4.968,2.907 4.968,3.789 Z M9.576,3.771 C9.576,2.475 10.674,1.413 12.006,1.413 C13.374,1.413 14.454,2.466 14.454,3.798 C14.454,4.419 14.148,5.094 13.671,5.535 C13.221,5.958 12.645,6.174 12.015,6.174 C10.674,6.174 9.576,5.094 9.576,3.771 Z M10.422,3.789 C10.422,4.671 11.142,5.4 12.015,5.4 C12.879,5.4 13.608,4.671 13.608,3.807 C13.608,2.898 12.906,2.187 12.015,2.187 C11.133,2.187 10.422,2.907 10.422,3.789 Z M15.399,6.057 L15.399,2.304 L14.787,2.304 L14.787,1.53 L15.399,1.53 L15.399,0.027 L16.245,0.027 L16.245,1.53 L16.992,1.53 L16.992,2.304 L16.245,2.304 L16.245,6.057 L15.399,6.057 Z" id=":root" fill="#12BAC7"></path>
              <path d="M20.115,6.327 L20.115,4.905 C20.115,4.383 19.98,4.158 19.629,4.068 L19.629,3.474 C19.971,3.384 20.115,3.159 20.115,2.7 L20.115,1.215 C20.115,0.351 20.484,1.42108547e-14 21.393,1.42108547e-14 L21.78,1.42108547e-14 L21.78,0.711 C21.069,0.711 20.925,0.828 20.925,1.413 L20.925,2.754 C20.925,3.33 20.808,3.564 20.403,3.798 C20.79,4.032 20.925,4.302 20.925,4.86 L20.925,6.165 C20.925,6.615 20.961,6.669 21.105,6.777 C21.204,6.849 21.42,6.885 21.681,6.885 L21.78,6.885 L21.78,7.596 L21.366,7.596 C20.475,7.596 20.115,7.227 20.115,6.327 Z" id="{" fill="#FFD600"></path>
              <path d="M6.237,16.158 L6.237,15.312 L13.068,15.312 L13.068,16.158 L6.237,16.158 Z M13.671,18.057 L13.671,12.027 L15.237,12.027 C15.876,12.027 16.272,12.153 16.614,12.477 C16.947,12.783 17.127,13.224 17.127,13.701 C17.127,14.169 16.965,14.511 16.578,14.835 C17.199,15.213 17.478,15.663 17.478,16.311 C17.478,16.824 17.253,17.31 16.875,17.634 C16.524,17.931 16.092,18.057 15.471,18.057 L13.671,18.057 Z M14.553,14.538 L15.273,14.538 C15.606,14.538 15.822,14.475 15.984,14.322 C16.146,14.169 16.245,13.935 16.245,13.692 C16.245,13.368 16.083,13.08 15.822,12.945 C15.669,12.864 15.498,12.837 15.219,12.837 L14.553,12.837 L14.553,14.538 Z M14.553,17.247 L15.507,17.247 C15.912,17.247 16.146,17.157 16.353,16.914 C16.506,16.743 16.596,16.527 16.596,16.311 C16.596,16.041 16.461,15.744 16.254,15.573 C16.056,15.402 15.84,15.348 15.399,15.348 L14.553,15.348 L14.553,17.247 Z M18.369,16.302 L18.369,13.53 L19.215,13.53 L19.215,15.996 C19.215,16.428 19.269,16.734 19.404,16.95 C19.575,17.229 19.944,17.409 20.349,17.409 C21.078,17.409 21.519,16.878 21.519,15.996 L21.519,13.53 L22.365,13.53 L22.365,18.057 L21.582,18.057 L21.582,17.58 C21.312,17.958 20.826,18.183 20.25,18.183 C19.125,18.183 18.369,17.427 18.369,16.302 Z M23.697,18.057 L23.697,14.304 L23.085,14.304 L23.085,13.53 L23.697,13.53 L23.697,12.027 L24.543,12.027 L24.543,13.53 L25.29,13.53 L25.29,14.304 L24.543,14.304 L24.543,18.057 L23.697,18.057 Z M26.1,18.057 L26.1,14.304 L25.488,14.304 L25.488,13.53 L26.1,13.53 L26.1,12.027 L26.946,12.027 L26.946,13.53 L27.693,13.53 L27.693,14.304 L26.946,14.304 L26.946,18.057 L26.1,18.057 Z M28.035,15.771 C28.035,14.475 29.133,13.413 30.465,13.413 C31.833,13.413 32.913,14.466 32.913,15.798 C32.913,16.419 32.607,17.094 32.13,17.535 C31.68,17.958 31.104,18.174 30.474,18.174 C29.133,18.174 28.035,17.094 28.035,15.771 Z M28.881,15.789 C28.881,16.671 29.601,17.4 30.474,17.4 C31.338,17.4 32.067,16.671 32.067,15.807 C32.067,14.898 31.365,14.187 30.474,14.187 C29.592,14.187 28.881,14.907 28.881,15.789 Z M33.786,18.057 L33.786,13.53 L34.569,13.53 L34.569,14.007 C34.866,13.611 35.334,13.404 35.91,13.404 C37.035,13.404 37.791,14.16 37.791,15.285 L37.791,18.057 L36.945,18.057 L36.945,15.591 C36.945,15.15 36.891,14.853 36.756,14.637 C36.585,14.358 36.216,14.178 35.811,14.178 C35.082,14.178 34.641,14.709 34.641,15.591 L34.641,18.057 L33.786,18.057 Z M38.304,16.158 L38.304,15.312 L40.581,15.312 L40.581,16.158 L38.304,16.158 Z M41.247,18.057 L41.247,14.304 L40.842,14.304 L40.842,13.53 L41.247,13.53 L41.247,13.323 C41.247,12.927 41.4,12.594 41.697,12.342 C41.985,12.099 42.246,12.027 42.786,12.027 L42.885,12.027 L42.885,12.765 C42.561,12.774 42.48,12.792 42.363,12.855 C42.192,12.954 42.093,13.125 42.093,13.323 L42.093,13.53 L42.885,13.53 L42.885,14.304 L42.093,14.304 L42.093,18.057 L41.247,18.057 Z M43.281,15.771 C43.281,14.475 44.379,13.413 45.711,13.413 C47.079,13.413 48.159,14.466 48.159,15.798 C48.159,16.419 47.853,17.094 47.376,17.535 C46.926,17.958 46.35,18.174 45.72,18.174 C44.379,18.174 43.281,17.094 43.281,15.771 Z M44.127,15.789 C44.127,16.671 44.847,17.4 45.72,17.4 C46.584,17.4 47.313,16.671 47.313,15.807 C47.313,14.898 46.611,14.187 45.72,14.187 C44.838,14.187 44.127,14.907 44.127,15.789 Z M52.335,16.563 L53.271,16.563 C52.929,17.553 52.074,18.174 51.048,18.174 C49.743,18.174 48.735,17.13 48.735,15.789 C48.735,14.457 49.752,13.413 51.057,13.413 C52.092,13.413 53.046,14.115 53.271,15.042 L52.335,15.042 C51.993,14.43 51.633,14.187 51.066,14.187 C50.211,14.187 49.581,14.871 49.581,15.789 C49.581,16.671 50.238,17.4 51.03,17.4 C51.57,17.4 52.083,17.067 52.335,16.563 Z M54.009,16.302 L54.009,13.53 L54.855,13.53 L54.855,15.996 C54.855,16.428 54.909,16.734 55.044,16.95 C55.215,17.229 55.584,17.409 55.989,17.409 C56.718,17.409 57.159,16.878 57.159,15.996 L57.159,13.53 L58.005,13.53 L58.005,18.057 L57.222,18.057 L57.222,17.58 C56.952,17.958 56.466,18.183 55.89,18.183 C54.765,18.183 54.009,17.427 54.009,16.302 Z M61.884,14.736 L61.047,14.736 C60.984,14.367 60.795,14.187 60.48,14.187 C60.165,14.187 59.922,14.394 59.922,14.682 C59.922,14.97 60.066,15.087 60.624,15.258 C61.056,15.393 61.344,15.537 61.542,15.717 C61.821,15.987 61.983,16.356 61.983,16.734 C61.983,17.517 61.272,18.174 60.417,18.174 C59.841,18.174 59.328,17.886 59.058,17.409 C58.923,17.166 58.878,16.95 58.869,16.581 L59.724,16.581 C59.76,17.112 60.021,17.4 60.462,17.4 C60.858,17.4 61.137,17.157 61.137,16.806 C61.137,16.464 60.957,16.302 60.345,16.095 C59.895,15.951 59.67,15.843 59.49,15.69 C59.211,15.447 59.076,15.168 59.076,14.817 C59.076,14.007 59.679,13.413 60.498,13.413 C61.299,13.413 61.866,13.962 61.884,14.736 Z" id="—Button-focus" fill="#F2586D"></path>
              <path d="M62.829,14.529 L62.829,13.53 L63.675,13.53 L63.675,14.529 L62.829,14.529 Z M62.829,18.057 L62.829,17.058 L63.675,17.058 L63.675,18.057 L62.829,18.057 Z" id=":" fill="#ABB2C0"></path>
              <path d="M68.247,18.057 L66.456,13.53 L67.365,13.53 L68.553,16.77 L69.714,13.53 L70.614,13.53 L68.85,18.057 L68.247,18.057 Z M74.808,18.057 L74.808,17.346 C74.457,17.895 73.881,18.174 73.107,18.174 C71.802,18.174 70.803,17.148 70.803,15.807 C70.803,15.222 71.01,14.664 71.379,14.214 C71.829,13.683 72.423,13.413 73.17,13.413 C73.845,13.413 74.511,13.728 74.808,14.187 L74.808,13.53 L75.591,13.53 L75.591,18.057 L74.808,18.057 Z M71.649,15.807 C71.649,16.68 72.351,17.4 73.188,17.4 C74.034,17.4 74.745,16.689 74.745,15.834 C74.745,14.907 74.07,14.187 73.188,14.187 C72.333,14.187 71.649,14.907 71.649,15.807 Z M76.68,18.057 L76.68,13.53 L77.463,13.53 L77.463,13.935 C77.733,13.593 78.138,13.413 78.633,13.413 L78.633,14.286 C77.868,14.34 77.526,14.736 77.526,15.582 L77.526,18.057 L76.68,18.057 Z" id="var" fill="#15B2BF"></path>
              <path d="M81.513,18.885 L81.513,19.866 C80.928,19.569 80.424,19.128 79.947,18.498 C79.389,17.76 79.056,16.734 79.056,15.762 C79.056,14.097 80.037,12.45 81.468,11.721 L81.468,12.702 C80.919,13.197 80.676,13.467 80.451,13.836 C80.109,14.403 79.929,15.051 79.929,15.753 C79.929,16.518 80.145,17.274 80.559,17.895 C80.766,18.21 80.937,18.39 81.513,18.885 Z" id="(" fill="#DC71DA"></path>
              <path d="M81.693,16.158 L81.693,15.312 L83.97,15.312 L83.97,16.158 L81.693,16.158 Z M83.97,16.158 L83.97,15.312 L86.247,15.312 L86.247,16.158 L83.97,16.158 Z M86.85,18.057 L86.85,12.027 L88.416,12.027 C89.055,12.027 89.451,12.153 89.793,12.477 C90.126,12.783 90.306,13.224 90.306,13.701 C90.306,14.169 90.144,14.511 89.757,14.835 C90.378,15.213 90.657,15.663 90.657,16.311 C90.657,16.824 90.432,17.31 90.054,17.634 C89.703,17.931 89.271,18.057 88.65,18.057 L86.85,18.057 Z M87.732,14.538 L88.452,14.538 C88.785,14.538 89.001,14.475 89.163,14.322 C89.325,14.169 89.424,13.935 89.424,13.692 C89.424,13.368 89.262,13.08 89.001,12.945 C88.848,12.864 88.677,12.837 88.398,12.837 L87.732,12.837 L87.732,14.538 Z M87.732,17.247 L88.686,17.247 C89.091,17.247 89.325,17.157 89.532,16.914 C89.685,16.743 89.775,16.527 89.775,16.311 C89.775,16.041 89.64,15.744 89.433,15.573 C89.235,15.402 89.019,15.348 88.578,15.348 L87.732,15.348 L87.732,17.247 Z M91.548,16.302 L91.548,13.53 L92.394,13.53 L92.394,15.996 C92.394,16.428 92.448,16.734 92.583,16.95 C92.754,17.229 93.123,17.409 93.528,17.409 C94.257,17.409 94.698,16.878 94.698,15.996 L94.698,13.53 L95.544,13.53 L95.544,18.057 L94.761,18.057 L94.761,17.58 C94.491,17.958 94.005,18.183 93.429,18.183 C92.304,18.183 91.548,17.427 91.548,16.302 Z M96.876,18.057 L96.876,14.304 L96.264,14.304 L96.264,13.53 L96.876,13.53 L96.876,12.027 L97.722,12.027 L97.722,13.53 L98.469,13.53 L98.469,14.304 L97.722,14.304 L97.722,18.057 L96.876,18.057 Z M99.279,18.057 L99.279,14.304 L98.667,14.304 L98.667,13.53 L99.279,13.53 L99.279,12.027 L100.125,12.027 L100.125,13.53 L100.872,13.53 L100.872,14.304 L100.125,14.304 L100.125,18.057 L99.279,18.057 Z M101.214,15.771 C101.214,14.475 102.312,13.413 103.644,13.413 C105.012,13.413 106.092,14.466 106.092,15.798 C106.092,16.419 105.786,17.094 105.309,17.535 C104.859,17.958 104.283,18.174 103.653,18.174 C102.312,18.174 101.214,17.094 101.214,15.771 Z M102.06,15.789 C102.06,16.671 102.78,17.4 103.653,17.4 C104.517,17.4 105.246,16.671 105.246,15.807 C105.246,14.898 104.544,14.187 103.653,14.187 C102.771,14.187 102.06,14.907 102.06,15.789 Z M106.965,18.057 L106.965,13.53 L107.748,13.53 L107.748,14.007 C108.045,13.611 108.513,13.404 109.089,13.404 C110.214,13.404 110.97,14.16 110.97,15.285 L110.97,18.057 L110.124,18.057 L110.124,15.591 C110.124,15.15 110.07,14.853 109.935,14.637 C109.764,14.358 109.395,14.178 108.99,14.178 C108.261,14.178 107.82,14.709 107.82,15.591 L107.82,18.057 L106.965,18.057 Z M111.483,16.158 L111.483,15.312 L113.76,15.312 L113.76,16.158 L111.483,16.158 Z M114.3,18.057 L114.3,12.027 L115.155,12.027 L115.155,14.16 C115.524,13.665 116.064,13.395 116.712,13.395 C117.999,13.395 119.052,14.484 119.052,15.798 C119.052,17.13 118.035,18.174 116.721,18.174 C116.298,18.174 115.875,18.057 115.542,17.859 C115.371,17.76 115.272,17.661 115.083,17.418 L115.083,18.057 L114.3,18.057 Z M115.128,15.771 C115.128,16.689 115.803,17.4 116.667,17.4 C117.504,17.4 118.206,16.671 118.206,15.789 C118.206,14.898 117.513,14.169 116.667,14.169 C115.821,14.169 115.128,14.889 115.128,15.771 Z M123.633,18.057 L123.633,17.346 C123.282,17.895 122.706,18.174 121.932,18.174 C120.627,18.174 119.628,17.148 119.628,15.807 C119.628,15.222 119.835,14.664 120.204,14.214 C120.654,13.683 121.248,13.413 121.995,13.413 C122.67,13.413 123.336,13.728 123.633,14.187 L123.633,13.53 L124.416,13.53 L124.416,18.057 L123.633,18.057 Z M120.474,15.807 C120.474,16.68 121.176,17.4 122.013,17.4 C122.859,17.4 123.57,16.689 123.57,15.834 C123.57,14.907 122.895,14.187 122.013,14.187 C121.158,14.187 120.474,14.907 120.474,15.807 Z M128.907,16.563 L129.843,16.563 C129.501,17.553 128.646,18.174 127.62,18.174 C126.315,18.174 125.307,17.13 125.307,15.789 C125.307,14.457 126.324,13.413 127.629,13.413 C128.664,13.413 129.618,14.115 129.843,15.042 L128.907,15.042 C128.565,14.43 128.205,14.187 127.638,14.187 C126.783,14.187 126.153,14.871 126.153,15.789 C126.153,16.671 126.81,17.4 127.602,17.4 C128.142,17.4 128.655,17.067 128.907,16.563 Z M130.644,18.057 L130.644,12.027 L131.49,12.027 L131.49,15.717 L133.119,13.53 L134.118,13.53 L132.48,15.663 L134.379,18.057 L133.317,18.057 L131.49,15.717 L131.49,18.057 L130.644,18.057 Z M134.595,18.417 L135.549,18.417 C135.873,18.858 136.287,19.065 136.836,19.065 C137.799,19.065 138.429,18.471 138.429,17.526 L138.429,17.436 C137.988,17.94 137.475,18.183 136.854,18.183 C135.549,18.183 134.442,17.076 134.442,15.78 C134.442,15.168 134.73,14.502 135.198,14.061 C135.639,13.629 136.215,13.413 136.881,13.413 C137.556,13.413 138.087,13.629 138.492,14.079 L138.492,13.53 L139.275,13.53 L139.275,17.544 C139.275,18.156 139.095,18.669 138.735,19.056 C138.276,19.551 137.556,19.839 136.791,19.839 C136.224,19.839 135.747,19.677 135.324,19.353 C134.946,19.056 134.784,18.84 134.595,18.417 Z M135.288,15.798 C135.288,16.68 135.99,17.409 136.845,17.409 C137.727,17.409 138.429,16.671 138.429,15.753 C138.429,14.871 137.736,14.187 136.845,14.187 C135.99,14.187 135.288,14.907 135.288,15.798 Z M140.355,18.057 L140.355,13.53 L141.138,13.53 L141.138,13.935 C141.408,13.593 141.813,13.413 142.308,13.413 L142.308,14.286 C141.543,14.34 141.201,14.736 141.201,15.582 L141.201,18.057 L140.355,18.057 Z M142.551,15.771 C142.551,14.475 143.649,13.413 144.981,13.413 C146.349,13.413 147.429,14.466 147.429,15.798 C147.429,16.419 147.123,17.094 146.646,17.535 C146.196,17.958 145.62,18.174 144.99,18.174 C143.649,18.174 142.551,17.094 142.551,15.771 Z M143.397,15.789 C143.397,16.671 144.117,17.4 144.99,17.4 C145.854,17.4 146.583,16.671 146.583,15.807 C146.583,14.898 145.881,14.187 144.99,14.187 C144.108,14.187 143.397,14.907 143.397,15.789 Z M148.266,16.302 L148.266,13.53 L149.112,13.53 L149.112,15.996 C149.112,16.428 149.166,16.734 149.301,16.95 C149.472,17.229 149.841,17.409 150.246,17.409 C150.975,17.409 151.416,16.878 151.416,15.996 L151.416,13.53 L152.262,13.53 L152.262,18.057 L151.479,18.057 L151.479,17.58 C151.209,17.958 150.723,18.183 150.147,18.183 C149.022,18.183 148.266,17.427 148.266,16.302 Z M153.351,18.057 L153.351,13.53 L154.134,13.53 L154.134,14.007 C154.431,13.611 154.899,13.404 155.475,13.404 C156.6,13.404 157.356,14.16 157.356,15.285 L157.356,18.057 L156.51,18.057 L156.51,15.591 C156.51,15.15 156.456,14.853 156.321,14.637 C156.15,14.358 155.781,14.178 155.376,14.178 C154.647,14.178 154.206,14.709 154.206,15.591 L154.206,18.057 L153.351,18.057 Z M162.153,18.057 L162.153,17.418 C161.721,17.94 161.208,18.183 160.524,18.183 C159.201,18.183 158.193,17.139 158.193,15.771 C158.193,15.177 158.418,14.592 158.823,14.133 C159.255,13.647 159.777,13.413 160.452,13.413 C161.082,13.413 161.766,13.71 162.09,14.124 L162.09,12.027 L162.936,12.027 L162.936,18.057 L162.153,18.057 Z M159.039,15.789 C159.039,16.689 159.714,17.409 160.569,17.409 C161.451,17.409 162.153,16.68 162.153,15.762 C162.153,14.862 161.469,14.187 160.551,14.187 C159.696,14.187 159.039,14.88 159.039,15.789 Z" id="--Button-background" fill="#F2586D"></path>
              <path d="M163.701,18.885 C164.259,18.39 164.502,18.111 164.718,17.751 C165.069,17.184 165.24,16.536 165.24,15.834 C165.24,15.069 165.024,14.322 164.61,13.701 C164.403,13.377 164.232,13.197 163.656,12.702 L163.656,11.721 C164.241,12.018 164.745,12.468 165.222,13.089 C165.78,13.827 166.113,14.853 166.113,15.825 C166.113,17.499 165.132,19.137 163.701,19.866 L163.701,18.885 Z" id=")" fill="#DC71DA"></path>
              <path d="M166.959,14.529 L166.959,13.53 L167.805,13.53 L167.805,14.529 L166.959,14.529 Z M166.959,18.057 L166.959,17.058 L167.805,17.058 L167.805,17.967 C167.805,18.624 167.535,18.975 166.959,19.092 L166.959,18.588 C167.175,18.507 167.265,18.372 167.265,18.129 C167.265,18.111 167.265,18.093 167.256,18.057 L166.959,18.057 Z" id=";" fill="#ABB2C0"></path>
              <path d="M0.027,30.885 C0.738,30.885 0.873,30.777 0.873,30.183 L0.873,28.842 C0.873,28.266 0.999,28.023 1.395,27.798 C1.008,27.564 0.873,27.294 0.873,26.736 L0.873,25.431 C0.873,25.071 0.828,24.918 0.693,24.819 C0.603,24.756 0.378,24.711 0.126,24.711 L0.027,24.711 L0.027,24 L0.432,24 C1.323,24 1.683,24.369 1.683,25.269 L1.683,26.7 C1.683,27.213 1.818,27.438 2.178,27.528 L2.178,28.122 C1.827,28.212 1.683,28.437 1.683,28.896 L1.683,30.381 C1.683,31.245 1.314,31.596 0.405,31.596 L0.027,31.596 L0.027,30.885 Z" id="}" fill="#FFD600"></path>
              <path d="M-4.26325641e-14,54.057 L-4.26325641e-14,53.058 L0.846,53.058 L0.846,54.057 L-4.26325641e-14,54.057 Z M1.989,54.057 L1.989,48.027 L3.555,48.027 C4.194,48.027 4.59,48.153 4.932,48.477 C5.265,48.783 5.445,49.224 5.445,49.701 C5.445,50.169 5.283,50.511 4.896,50.835 C5.517,51.213 5.796,51.663 5.796,52.311 C5.796,52.824 5.571,53.31 5.193,53.634 C4.842,53.931 4.41,54.057 3.789,54.057 L1.989,54.057 Z M2.871,50.538 L3.591,50.538 C3.924,50.538 4.14,50.475 4.302,50.322 C4.464,50.169 4.563,49.935 4.563,49.692 C4.563,49.368 4.401,49.08 4.14,48.945 C3.987,48.864 3.816,48.837 3.537,48.837 L2.871,48.837 L2.871,50.538 Z M2.871,53.247 L3.825,53.247 C4.23,53.247 4.464,53.157 4.671,52.914 C4.824,52.743 4.914,52.527 4.914,52.311 C4.914,52.041 4.779,51.744 4.572,51.573 C4.374,51.402 4.158,51.348 3.717,51.348 L2.871,51.348 L2.871,53.247 Z M6.687,52.302 L6.687,49.53 L7.533,49.53 L7.533,51.996 C7.533,52.428 7.587,52.734 7.722,52.95 C7.893,53.229 8.262,53.409 8.667,53.409 C9.396,53.409 9.837,52.878 9.837,51.996 L9.837,49.53 L10.683,49.53 L10.683,54.057 L9.9,54.057 L9.9,53.58 C9.63,53.958 9.144,54.183 8.568,54.183 C7.443,54.183 6.687,53.427 6.687,52.302 Z M12.015,54.057 L12.015,50.304 L11.403,50.304 L11.403,49.53 L12.015,49.53 L12.015,48.027 L12.861,48.027 L12.861,49.53 L13.608,49.53 L13.608,50.304 L12.861,50.304 L12.861,54.057 L12.015,54.057 Z M14.418,54.057 L14.418,50.304 L13.806,50.304 L13.806,49.53 L14.418,49.53 L14.418,48.027 L15.264,48.027 L15.264,49.53 L16.011,49.53 L16.011,50.304 L15.264,50.304 L15.264,54.057 L14.418,54.057 Z M16.353,51.771 C16.353,50.475 17.451,49.413 18.783,49.413 C20.151,49.413 21.231,50.466 21.231,51.798 C21.231,52.419 20.925,53.094 20.448,53.535 C19.998,53.958 19.422,54.174 18.792,54.174 C17.451,54.174 16.353,53.094 16.353,51.771 Z M17.199,51.789 C17.199,52.671 17.919,53.4 18.792,53.4 C19.656,53.4 20.385,52.671 20.385,51.807 C20.385,50.898 19.683,50.187 18.792,50.187 C17.91,50.187 17.199,50.907 17.199,51.789 Z M22.104,54.057 L22.104,49.53 L22.887,49.53 L22.887,50.007 C23.184,49.611 23.652,49.404 24.228,49.404 C25.353,49.404 26.109,50.16 26.109,51.285 L26.109,54.057 L25.263,54.057 L25.263,51.591 C25.263,51.15 25.209,50.853 25.074,50.637 C24.903,50.358 24.534,50.178 24.129,50.178 C23.4,50.178 22.959,50.709 22.959,51.591 L22.959,54.057 L22.104,54.057 Z" id=".Button" fill="#D39A60"></path>
              <path d="M29.592,54.327 L29.592,52.905 C29.592,52.383 29.457,52.158 29.106,52.068 L29.106,51.474 C29.448,51.384 29.592,51.159 29.592,50.7 L29.592,49.215 C29.592,48.351 29.961,48 30.87,48 L31.257,48 L31.257,48.711 C30.546,48.711 30.402,48.828 30.402,49.413 L30.402,50.754 C30.402,51.33 30.285,51.564 29.88,51.798 C30.267,52.032 30.402,52.302 30.402,52.86 L30.402,54.165 C30.402,54.615 30.438,54.669 30.582,54.777 C30.681,54.849 30.897,54.885 31.158,54.885 L31.257,54.885 L31.257,55.596 L30.843,55.596 C29.952,55.596 29.592,55.227 29.592,54.327 Z" id="{" fill="#FFD600"></path>
              <path d="M4.491,64.302 L4.491,61.53 L5.337,61.53 L5.337,63.996 C5.337,64.428 5.391,64.734 5.526,64.95 C5.697,65.229 6.066,65.409 6.471,65.409 C7.2,65.409 7.641,64.878 7.641,63.996 L7.641,61.53 L8.487,61.53 L8.487,66.057 L7.704,66.057 L7.704,65.58 C7.434,65.958 6.948,66.183 6.372,66.183 C5.247,66.183 4.491,65.427 4.491,64.302 Z M12.366,62.736 L11.529,62.736 C11.466,62.367 11.277,62.187 10.962,62.187 C10.647,62.187 10.404,62.394 10.404,62.682 C10.404,62.97 10.548,63.087 11.106,63.258 C11.538,63.393 11.826,63.537 12.024,63.717 C12.303,63.987 12.465,64.356 12.465,64.734 C12.465,65.517 11.754,66.174 10.899,66.174 C10.323,66.174 9.81,65.886 9.54,65.409 C9.405,65.166 9.36,64.95 9.351,64.581 L10.206,64.581 C10.242,65.112 10.503,65.4 10.944,65.4 C11.34,65.4 11.619,65.157 11.619,64.806 C11.619,64.464 11.439,64.302 10.827,64.095 C10.377,63.951 10.152,63.843 9.972,63.69 C9.693,63.447 9.558,63.168 9.558,62.817 C9.558,62.007 10.161,61.413 10.98,61.413 C11.781,61.413 12.348,61.962 12.366,62.736 Z M13.914,64.167 C14.094,64.914 14.679,65.4 15.399,65.4 C15.939,65.4 16.389,65.13 16.677,64.635 L17.532,64.635 C17.181,65.58 16.344,66.174 15.363,66.174 C14.103,66.174 13.059,65.094 13.059,63.789 C13.059,62.448 14.094,61.377 15.381,61.377 C16.641,61.377 17.676,62.439 17.676,63.735 C17.676,63.816 17.667,64.005 17.649,64.167 L13.914,64.167 Z M13.905,63.519 L16.839,63.519 C16.794,62.772 16.137,62.151 15.372,62.151 C14.958,62.151 14.544,62.34 14.265,62.646 C14.049,62.88 13.968,63.087 13.905,63.519 Z M18.567,66.057 L18.567,61.53 L19.35,61.53 L19.35,61.935 C19.62,61.593 20.025,61.413 20.52,61.413 L20.52,62.286 C19.755,62.34 19.413,62.736 19.413,63.582 L19.413,66.057 L18.567,66.057 Z M20.637,64.158 L20.637,63.312 L22.914,63.312 L22.914,64.158 L20.637,64.158 Z M26.118,62.736 L25.281,62.736 C25.218,62.367 25.029,62.187 24.714,62.187 C24.399,62.187 24.156,62.394 24.156,62.682 C24.156,62.97 24.3,63.087 24.858,63.258 C25.29,63.393 25.578,63.537 25.776,63.717 C26.055,63.987 26.217,64.356 26.217,64.734 C26.217,65.517 25.506,66.174 24.651,66.174 C24.075,66.174 23.562,65.886 23.292,65.409 C23.157,65.166 23.112,64.95 23.103,64.581 L23.958,64.581 C23.994,65.112 24.255,65.4 24.696,65.4 C25.092,65.4 25.371,65.157 25.371,64.806 C25.371,64.464 25.191,64.302 24.579,64.095 C24.129,63.951 23.904,63.843 23.724,63.69 C23.445,63.447 23.31,63.168 23.31,62.817 C23.31,62.007 23.913,61.413 24.732,61.413 C25.533,61.413 26.1,61.962 26.118,62.736 Z M27.666,64.167 C27.846,64.914 28.431,65.4 29.151,65.4 C29.691,65.4 30.141,65.13 30.429,64.635 L31.284,64.635 C30.933,65.58 30.096,66.174 29.115,66.174 C27.855,66.174 26.811,65.094 26.811,63.789 C26.811,62.448 27.846,61.377 29.133,61.377 C30.393,61.377 31.428,62.439 31.428,63.735 C31.428,63.816 31.419,64.005 31.401,64.167 L27.666,64.167 Z M27.657,63.519 L30.591,63.519 C30.546,62.772 29.889,62.151 29.124,62.151 C28.71,62.151 28.296,62.34 28.017,62.646 C27.801,62.88 27.72,63.087 27.657,63.519 Z M32.301,66.057 L32.301,60.027 L33.147,60.027 L33.147,66.057 L32.301,66.057 Z M34.893,64.167 C35.073,64.914 35.658,65.4 36.378,65.4 C36.918,65.4 37.368,65.13 37.656,64.635 L38.511,64.635 C38.16,65.58 37.323,66.174 36.342,66.174 C35.082,66.174 34.038,65.094 34.038,63.789 C34.038,62.448 35.073,61.377 36.36,61.377 C37.62,61.377 38.655,62.439 38.655,63.735 C38.655,63.816 38.646,64.005 38.628,64.167 L34.893,64.167 Z M34.884,63.519 L37.818,63.519 C37.773,62.772 37.116,62.151 36.351,62.151 C35.937,62.151 35.523,62.34 35.244,62.646 C35.028,62.88 34.947,63.087 34.884,63.519 Z M42.831,64.563 L43.767,64.563 C43.425,65.553 42.57,66.174 41.544,66.174 C40.239,66.174 39.231,65.13 39.231,63.789 C39.231,62.457 40.248,61.413 41.553,61.413 C42.588,61.413 43.542,62.115 43.767,63.042 L42.831,63.042 C42.489,62.43 42.129,62.187 41.562,62.187 C40.707,62.187 40.077,62.871 40.077,63.789 C40.077,64.671 40.734,65.4 41.526,65.4 C42.066,65.4 42.579,65.067 42.831,64.563 Z M44.649,66.057 L44.649,62.304 L44.037,62.304 L44.037,61.53 L44.649,61.53 L44.649,60.027 L45.495,60.027 L45.495,61.53 L46.242,61.53 L46.242,62.304 L45.495,62.304 L45.495,66.057 L44.649,66.057 Z M46.935,62.529 L46.935,61.53 L47.781,61.53 L47.781,62.529 L46.935,62.529 Z M46.935,66.057 L46.935,65.058 L47.781,65.058 L47.781,66.057 L46.935,66.057 Z" id="user-select:" fill="#ABB2C0"></path>
              <path d="M51.12,66.057 L51.12,61.53 L51.903,61.53 L51.903,62.007 C52.2,61.611 52.668,61.404 53.244,61.404 C54.369,61.404 55.125,62.16 55.125,63.285 L55.125,66.057 L54.279,66.057 L54.279,63.591 C54.279,63.15 54.225,62.853 54.09,62.637 C53.919,62.358 53.55,62.178 53.145,62.178 C52.416,62.178 51.975,62.709 51.975,63.591 L51.975,66.057 L51.12,66.057 Z M55.926,63.771 C55.926,62.475 57.024,61.413 58.356,61.413 C59.724,61.413 60.804,62.466 60.804,63.798 C60.804,64.419 60.498,65.094 60.021,65.535 C59.571,65.958 58.995,66.174 58.365,66.174 C57.024,66.174 55.926,65.094 55.926,63.771 Z M56.772,63.789 C56.772,64.671 57.492,65.4 58.365,65.4 C59.229,65.4 59.958,64.671 59.958,63.807 C59.958,62.898 59.256,62.187 58.365,62.187 C57.483,62.187 56.772,62.907 56.772,63.789 Z M61.677,66.057 L61.677,61.53 L62.46,61.53 L62.46,62.007 C62.757,61.611 63.225,61.404 63.801,61.404 C64.926,61.404 65.682,62.16 65.682,63.285 L65.682,66.057 L64.836,66.057 L64.836,63.591 C64.836,63.15 64.782,62.853 64.647,62.637 C64.476,62.358 64.107,62.178 63.702,62.178 C62.973,62.178 62.532,62.709 62.532,63.591 L62.532,66.057 L61.677,66.057 Z M67.374,64.167 C67.554,64.914 68.139,65.4 68.859,65.4 C69.399,65.4 69.849,65.13 70.137,64.635 L70.992,64.635 C70.641,65.58 69.804,66.174 68.823,66.174 C67.563,66.174 66.519,65.094 66.519,63.789 C66.519,62.448 67.554,61.377 68.841,61.377 C70.101,61.377 71.136,62.439 71.136,63.735 C71.136,63.816 71.127,64.005 71.109,64.167 L67.374,64.167 Z M67.365,63.519 L70.299,63.519 C70.254,62.772 69.597,62.151 68.832,62.151 C68.418,62.151 68.004,62.34 67.725,62.646 C67.509,62.88 67.428,63.087 67.365,63.519 Z" id="none" fill="#D39A60"></path>
              <path d="M71.964,62.529 L71.964,61.53 L72.81,61.53 L72.81,62.529 L71.964,62.529 Z M71.964,66.057 L71.964,65.058 L72.81,65.058 L72.81,65.967 C72.81,66.624 72.54,66.975 71.964,67.092 L71.964,66.588 C72.18,66.507 72.27,66.372 72.27,66.129 C72.27,66.111 72.27,66.093 72.261,66.057 L71.964,66.057 Z" id=";" fill="#ABB2C0"></path>
              <path d="M0.027,78.885 C0.738,78.885 0.873,78.777 0.873,78.183 L0.873,76.842 C0.873,76.266 0.999,76.023 1.395,75.798 C1.008,75.564 0.873,75.294 0.873,74.736 L0.873,73.431 C0.873,73.071 0.828,72.918 0.693,72.819 C0.603,72.756 0.378,72.711 0.126,72.711 L0.027,72.711 L0.027,72 L0.432,72 C1.323,72 1.683,72.369 1.683,73.269 L1.683,74.7 C1.683,75.213 1.818,75.438 2.178,75.528 L2.178,76.122 C1.827,76.212 1.683,76.437 1.683,76.896 L1.683,78.381 C1.683,79.245 1.314,79.596 0.405,79.596 L0.027,79.596 L0.027,78.885 Z" id="}" fill="#FFD600"></path>
          </g>
          <g id="chevron-right-copy" transform="translate(212.000000, 11.000000)" fill="#4C4F5A" fill-rule="nonzero">
              <path d="M3,7.52954027 C3.00271506,7.40455117 3.04742543,7.28503269 3.12559618,7.19380016 L6.967909,2.99704876 L3.12559618,-1.19970264 C2.96242598,-1.38603353 2.96585635,-1.68097291 3.13330742,-1.86270512 C3.30075849,-2.04443734 3.57048001,-2.04594573 3.73962196,-1.86609589 L7.88429596,2.66130865 C8.03856801,2.85334501 8.03856801,3.14075252 7.88429596,3.33278887 L3.73962196,7.86019342 C3.61645743,7.99587315 3.43072322,8.03715081 3.26890039,7.96480679 C3.10707756,7.89246276 3.00097661,7.72071817 3,7.52954027 L3,7.52954027 Z" id="Path" transform="translate(5.500000, 3.000000) rotate(-270.000000) translate(-5.500000, -3.000000) "></path>
          </g>
          <text id="CSS" opacity="0.892508371" font-family="Avalon-Demi, Avalon" font-size="10" font-weight="500" fill="#E7E7E7">
              <tspan x="22" y="15">CSS</tspan>
          </text>
          <path d="M0.5,22.5 L230.75,22.25" id="Line-Copy" stroke="#E522C1" stroke-width="0.5" opacity="0.309128534" stroke-linecap="square"></path>
      </g>
      <path d="M149.494712,21 L148.733255,21 L148.659224,20.2596945 C148.627497,19.773208 147.855464,19.4347826 147.432432,19.7520564 L146.86134,20.2173913 L146.321974,19.6780259 L145.782609,19.1386604 L146.247944,18.5675676 C146.501763,18.2291422 146.279671,17.4359577 145.72973,17.3407756 L145,17.266745 L145,16.4947121 L145,15.733255 L145.72973,15.6592244 C146.311398,15.5851939 146.596945,14.8448884 146.247944,14.4324324 L145.782609,13.8613396 L146.321974,13.3219741 L146.86134,12.7826087 L147.432432,13.2479436 C147.823737,13.5440658 148.585194,13.1421857 148.659224,12.7297297 L148.733255,12 L149.494712,12 L150.266745,12 L150.340776,12.7297297 C150.414806,13.1421857 151.176263,13.5440658 151.567568,13.2479436 L152.13866,12.7826087 L152.678026,13.3219741 L153.217391,13.8613396 L152.752056,14.4324324 C152.403055,14.8448884 152.688602,15.5851939 153.259694,15.6592244 L154,15.733255 L154,16.4947121 L154,17.266745 L153.259694,17.3407756 C152.720329,17.4359577 152.498237,18.2291422 152.752056,18.5675676 L153.217391,19.1386604 L152.678026,19.6780259 L152.13866,20.2173913 L151.567568,19.7520564 C151.144536,19.4347826 150.372503,19.773208 150.340776,20.2596945 L150.266745,21 L149.494712,21 Z M149.494712,15.2150411 C150.213866,15.2150411 150.784959,15.786134 150.784959,16.4947121 C150.784959,17.213866 150.213866,17.7849589 149.494712,17.7849589 C148.786134,17.7849589 148.215041,17.213866 148.215041,16.4947121 C148.215041,15.786134 148.786134,15.2150411 149.494712,15.2150411 Z M149.494712,14.2526439 C150.742656,14.2526439 151.747356,15.2573443 151.747356,16.4947121 C151.747356,17.7426557 150.742656,18.7473561 149.494712,18.7473561 C148.257344,18.7473561 147.252644,17.7426557 147.252644,16.4947121 C147.252644,15.2573443 148.257344,14.2526439 149.494712,14.2526439 Z" id="Shape" fill="#4C4F5A"></path>
      <g id="&lt;button-class=&quot;Butto" transform="translate(145.000000, 38.000000)" fill-rule="nonzero" opacity="0.865862165">
          <polygon id="&lt;" fill="#ABB2C0" points="0 3.33 0 2.61 3.924 0.72 3.924 1.557 0.9 2.97 3.924 4.392 3.924 5.229"></polygon>
          <path d="M4.761,6.03 L4.761,3.55271368e-15 L5.616,3.55271368e-15 L5.616,2.133 C5.985,1.638 6.525,1.368 7.173,1.368 C8.46,1.368 9.513,2.457 9.513,3.771 C9.513,5.103 8.496,6.147 7.182,6.147 C6.759,6.147 6.336,6.03 6.003,5.832 C5.832,5.733 5.733,5.634 5.544,5.391 L5.544,6.03 L4.761,6.03 Z M5.589,3.744 C5.589,4.662 6.264,5.373 7.128,5.373 C7.965,5.373 8.667,4.644 8.667,3.762 C8.667,2.871 7.974,2.142 7.128,2.142 C6.282,2.142 5.589,2.862 5.589,3.744 Z M10.368,4.275 L10.368,1.503 L11.214,1.503 L11.214,3.969 C11.214,4.401 11.268,4.707 11.403,4.923 C11.574,5.202 11.943,5.382 12.348,5.382 C13.077,5.382 13.518,4.851 13.518,3.969 L13.518,1.503 L14.364,1.503 L14.364,6.03 L13.581,6.03 L13.581,5.553 C13.311,5.931 12.825,6.156 12.249,6.156 C11.124,6.156 10.368,5.4 10.368,4.275 Z M15.696,6.03 L15.696,2.277 L15.084,2.277 L15.084,1.503 L15.696,1.503 L15.696,3.55271368e-15 L16.542,3.55271368e-15 L16.542,1.503 L17.289,1.503 L17.289,2.277 L16.542,2.277 L16.542,6.03 L15.696,6.03 Z M18.099,6.03 L18.099,2.277 L17.487,2.277 L17.487,1.503 L18.099,1.503 L18.099,3.55271368e-15 L18.945,3.55271368e-15 L18.945,1.503 L19.692,1.503 L19.692,2.277 L18.945,2.277 L18.945,6.03 L18.099,6.03 Z M20.034,3.744 C20.034,2.448 21.132,1.386 22.464,1.386 C23.832,1.386 24.912,2.439 24.912,3.771 C24.912,4.392 24.606,5.067 24.129,5.508 C23.679,5.931 23.103,6.147 22.473,6.147 C21.132,6.147 20.034,5.067 20.034,3.744 Z M20.88,3.762 C20.88,4.644 21.6,5.373 22.473,5.373 C23.337,5.373 24.066,4.644 24.066,3.78 C24.066,2.871 23.364,2.16 22.473,2.16 C21.591,2.16 20.88,2.88 20.88,3.762 Z M25.785,6.03 L25.785,1.503 L26.568,1.503 L26.568,1.98 C26.865,1.584 27.333,1.377 27.909,1.377 C29.034,1.377 29.79,2.133 29.79,3.258 L29.79,6.03 L28.944,6.03 L28.944,3.564 C28.944,3.123 28.89,2.826 28.755,2.61 C28.584,2.331 28.215,2.151 27.81,2.151 C27.081,2.151 26.64,2.682 26.64,3.564 L26.64,6.03 L25.785,6.03 Z" id="button" fill="#F2586D"></path>
          <path d="M12.618,16.536 L13.554,16.536 C13.212,17.526 12.357,18.147 11.331,18.147 C10.026,18.147 9.018,17.103 9.018,15.762 C9.018,14.43 10.035,13.386 11.34,13.386 C12.375,13.386 13.329,14.088 13.554,15.015 L12.618,15.015 C12.276,14.403 11.916,14.16 11.349,14.16 C10.494,14.16 9.864,14.844 9.864,15.762 C9.864,16.644 10.521,17.373 11.313,17.373 C11.853,17.373 12.366,17.04 12.618,16.536 Z M14.355,18.03 L14.355,12 L15.201,12 L15.201,18.03 L14.355,18.03 Z M20.097,18.03 L20.097,17.319 C19.746,17.868 19.17,18.147 18.396,18.147 C17.091,18.147 16.092,17.121 16.092,15.78 C16.092,15.195 16.299,14.637 16.668,14.187 C17.118,13.656 17.712,13.386 18.459,13.386 C19.134,13.386 19.8,13.701 20.097,14.16 L20.097,13.503 L20.88,13.503 L20.88,18.03 L20.097,18.03 Z M16.938,15.78 C16.938,16.653 17.64,17.373 18.477,17.373 C19.323,17.373 20.034,16.662 20.034,15.807 C20.034,14.88 19.359,14.16 18.477,14.16 C17.622,14.16 16.938,14.88 16.938,15.78 Z M24.759,14.709 L23.922,14.709 C23.859,14.34 23.67,14.16 23.355,14.16 C23.04,14.16 22.797,14.367 22.797,14.655 C22.797,14.943 22.941,15.06 23.499,15.231 C23.931,15.366 24.219,15.51 24.417,15.69 C24.696,15.96 24.858,16.329 24.858,16.707 C24.858,17.49 24.147,18.147 23.292,18.147 C22.716,18.147 22.203,17.859 21.933,17.382 C21.798,17.139 21.753,16.923 21.744,16.554 L22.599,16.554 C22.635,17.085 22.896,17.373 23.337,17.373 C23.733,17.373 24.012,17.13 24.012,16.779 C24.012,16.437 23.832,16.275 23.22,16.068 C22.77,15.924 22.545,15.816 22.365,15.663 C22.086,15.42 21.951,15.141 21.951,14.79 C21.951,13.98 22.554,13.386 23.373,13.386 C24.174,13.386 24.741,13.935 24.759,14.709 Z M28.449,14.709 L27.612,14.709 C27.549,14.34 27.36,14.16 27.045,14.16 C26.73,14.16 26.487,14.367 26.487,14.655 C26.487,14.943 26.631,15.06 27.189,15.231 C27.621,15.366 27.909,15.51 28.107,15.69 C28.386,15.96 28.548,16.329 28.548,16.707 C28.548,17.49 27.837,18.147 26.982,18.147 C26.406,18.147 25.893,17.859 25.623,17.382 C25.488,17.139 25.443,16.923 25.434,16.554 L26.289,16.554 C26.325,17.085 26.586,17.373 27.027,17.373 C27.423,17.373 27.702,17.13 27.702,16.779 C27.702,16.437 27.522,16.275 26.91,16.068 C26.46,15.924 26.235,15.816 26.055,15.663 C25.776,15.42 25.641,15.141 25.641,14.79 C25.641,13.98 26.244,13.386 27.063,13.386 C27.864,13.386 28.431,13.935 28.449,14.709 Z" id="class" fill="#D39A60"></path>
          <path d="M29.214,14.745 L29.214,14.079 L33.012,14.079 L33.012,14.745 L29.214,14.745 Z M29.214,15.951 L29.214,15.285 L33.012,15.285 L33.012,15.951 L29.214,15.951 Z" id="=" fill="#ABB2C0"></path>
          <path d="M34.785,13.818 L34.722,12 L35.334,12 L35.271,13.818 L34.785,13.818 Z M33.759,13.818 L33.696,12 L34.308,12 L34.245,13.818 L33.759,13.818 Z M36.243,18.03 L36.243,12 L37.809,12 C38.448,12 38.844,12.126 39.186,12.45 C39.519,12.756 39.699,13.197 39.699,13.674 C39.699,14.142 39.537,14.484 39.15,14.808 C39.771,15.186 40.05,15.636 40.05,16.284 C40.05,16.797 39.825,17.283 39.447,17.607 C39.096,17.904 38.664,18.03 38.043,18.03 L36.243,18.03 Z M37.125,14.511 L37.845,14.511 C38.178,14.511 38.394,14.448 38.556,14.295 C38.718,14.142 38.817,13.908 38.817,13.665 C38.817,13.341 38.655,13.053 38.394,12.918 C38.241,12.837 38.07,12.81 37.791,12.81 L37.125,12.81 L37.125,14.511 Z M37.125,17.22 L38.079,17.22 C38.484,17.22 38.718,17.13 38.925,16.887 C39.078,16.716 39.168,16.5 39.168,16.284 C39.168,16.014 39.033,15.717 38.826,15.546 C38.628,15.375 38.412,15.321 37.971,15.321 L37.125,15.321 L37.125,17.22 Z M40.941,16.275 L40.941,13.503 L41.787,13.503 L41.787,15.969 C41.787,16.401 41.841,16.707 41.976,16.923 C42.147,17.202 42.516,17.382 42.921,17.382 C43.65,17.382 44.091,16.851 44.091,15.969 L44.091,13.503 L44.937,13.503 L44.937,18.03 L44.154,18.03 L44.154,17.553 C43.884,17.931 43.398,18.156 42.822,18.156 C41.697,18.156 40.941,17.4 40.941,16.275 Z M46.269,18.03 L46.269,14.277 L45.657,14.277 L45.657,13.503 L46.269,13.503 L46.269,12 L47.115,12 L47.115,13.503 L47.862,13.503 L47.862,14.277 L47.115,14.277 L47.115,18.03 L46.269,18.03 Z M48.672,18.03 L48.672,14.277 L48.06,14.277 L48.06,13.503 L48.672,13.503 L48.672,12 L49.518,12 L49.518,13.503 L50.265,13.503 L50.265,14.277 L49.518,14.277 L49.518,18.03 L48.672,18.03 Z M50.607,15.744 C50.607,14.448 51.705,13.386 53.037,13.386 C54.405,13.386 55.485,14.439 55.485,15.771 C55.485,16.392 55.179,17.067 54.702,17.508 C54.252,17.931 53.676,18.147 53.046,18.147 C51.705,18.147 50.607,17.067 50.607,15.744 Z M51.453,15.762 C51.453,16.644 52.173,17.373 53.046,17.373 C53.91,17.373 54.639,16.644 54.639,15.78 C54.639,14.871 53.937,14.16 53.046,14.16 C52.164,14.16 51.453,14.88 51.453,15.762 Z M56.358,18.03 L56.358,13.503 L57.141,13.503 L57.141,13.98 C57.438,13.584 57.906,13.377 58.482,13.377 C59.607,13.377 60.363,14.133 60.363,15.258 L60.363,18.03 L59.517,18.03 L59.517,15.564 C59.517,15.123 59.463,14.826 59.328,14.61 C59.157,14.331 58.788,14.151 58.383,14.151 C57.654,14.151 57.213,14.682 57.213,15.564 L57.213,18.03 L56.358,18.03 Z M63.738,18.03 L63.738,12 L65.304,12 C65.943,12 66.339,12.126 66.681,12.45 C67.014,12.756 67.194,13.197 67.194,13.674 C67.194,14.142 67.032,14.484 66.645,14.808 C67.266,15.186 67.545,15.636 67.545,16.284 C67.545,16.797 67.32,17.283 66.942,17.607 C66.591,17.904 66.159,18.03 65.538,18.03 L63.738,18.03 Z M64.62,14.511 L65.34,14.511 C65.673,14.511 65.889,14.448 66.051,14.295 C66.213,14.142 66.312,13.908 66.312,13.665 C66.312,13.341 66.15,13.053 65.889,12.918 C65.736,12.837 65.565,12.81 65.286,12.81 L64.62,12.81 L64.62,14.511 Z M64.62,17.22 L65.574,17.22 C65.979,17.22 66.213,17.13 66.42,16.887 C66.573,16.716 66.663,16.5 66.663,16.284 C66.663,16.014 66.528,15.717 66.321,15.546 C66.123,15.375 65.907,15.321 65.466,15.321 L64.62,15.321 L64.62,17.22 Z M68.436,16.275 L68.436,13.503 L69.282,13.503 L69.282,15.969 C69.282,16.401 69.336,16.707 69.471,16.923 C69.642,17.202 70.011,17.382 70.416,17.382 C71.145,17.382 71.586,16.851 71.586,15.969 L71.586,13.503 L72.432,13.503 L72.432,18.03 L71.649,18.03 L71.649,17.553 C71.379,17.931 70.893,18.156 70.317,18.156 C69.192,18.156 68.436,17.4 68.436,16.275 Z M73.764,18.03 L73.764,14.277 L73.152,14.277 L73.152,13.503 L73.764,13.503 L73.764,12 L74.61,12 L74.61,13.503 L75.357,13.503 L75.357,14.277 L74.61,14.277 L74.61,18.03 L73.764,18.03 Z M76.167,18.03 L76.167,14.277 L75.555,14.277 L75.555,13.503 L76.167,13.503 L76.167,12 L77.013,12 L77.013,13.503 L77.76,13.503 L77.76,14.277 L77.013,14.277 L77.013,18.03 L76.167,18.03 Z M78.102,15.744 C78.102,14.448 79.2,13.386 80.532,13.386 C81.9,13.386 82.98,14.439 82.98,15.771 C82.98,16.392 82.674,17.067 82.197,17.508 C81.747,17.931 81.171,18.147 80.541,18.147 C79.2,18.147 78.102,17.067 78.102,15.744 Z M78.948,15.762 C78.948,16.644 79.668,17.373 80.541,17.373 C81.405,17.373 82.134,16.644 82.134,15.78 C82.134,14.871 81.432,14.16 80.541,14.16 C79.659,14.16 78.948,14.88 78.948,15.762 Z M83.853,18.03 L83.853,13.503 L84.636,13.503 L84.636,13.98 C84.933,13.584 85.401,13.377 85.977,13.377 C87.102,13.377 87.858,14.133 87.858,15.258 L87.858,18.03 L87.012,18.03 L87.012,15.564 C87.012,15.123 86.958,14.826 86.823,14.61 C86.652,14.331 86.283,14.151 85.878,14.151 C85.149,14.151 84.708,14.682 84.708,15.564 L84.708,18.03 L83.853,18.03 Z M88.371,16.131 L88.371,15.285 L90.648,15.285 L90.648,16.131 L88.371,16.131 Z M90.648,16.131 L90.648,15.285 L92.925,15.285 L92.925,16.131 L90.648,16.131 Z M96.129,14.709 L95.292,14.709 C95.229,14.34 95.04,14.16 94.725,14.16 C94.41,14.16 94.167,14.367 94.167,14.655 C94.167,14.943 94.311,15.06 94.869,15.231 C95.301,15.366 95.589,15.51 95.787,15.69 C96.066,15.96 96.228,16.329 96.228,16.707 C96.228,17.49 95.517,18.147 94.662,18.147 C94.086,18.147 93.573,17.859 93.303,17.382 C93.168,17.139 93.123,16.923 93.114,16.554 L93.969,16.554 C94.005,17.085 94.266,17.373 94.707,17.373 C95.103,17.373 95.382,17.13 95.382,16.779 C95.382,16.437 95.202,16.275 94.59,16.068 C94.14,15.924 93.915,15.816 93.735,15.663 C93.456,15.42 93.321,15.141 93.321,14.79 C93.321,13.98 93.924,13.386 94.743,13.386 C95.544,13.386 96.111,13.935 96.129,14.709 Z M97.047,16.275 L97.047,13.503 L97.893,13.503 L97.893,15.969 C97.893,16.401 97.947,16.707 98.082,16.923 C98.253,17.202 98.622,17.382 99.027,17.382 C99.756,17.382 100.197,16.851 100.197,15.969 L100.197,13.503 L101.043,13.503 L101.043,18.03 L100.26,18.03 L100.26,17.553 C99.99,17.931 99.504,18.156 98.928,18.156 C97.803,18.156 97.047,17.4 97.047,16.275 Z M105.552,16.536 L106.488,16.536 C106.146,17.526 105.291,18.147 104.265,18.147 C102.96,18.147 101.952,17.103 101.952,15.762 C101.952,14.43 102.969,13.386 104.274,13.386 C105.309,13.386 106.263,14.088 106.488,15.015 L105.552,15.015 C105.21,14.403 104.85,14.16 104.283,14.16 C103.428,14.16 102.798,14.844 102.798,15.762 C102.798,16.644 103.455,17.373 104.247,17.373 C104.787,17.373 105.3,17.04 105.552,16.536 Z M110.601,16.536 L111.537,16.536 C111.195,17.526 110.34,18.147 109.314,18.147 C108.009,18.147 107.001,17.103 107.001,15.762 C107.001,14.43 108.018,13.386 109.323,13.386 C110.358,13.386 111.312,14.088 111.537,15.015 L110.601,15.015 C110.259,14.403 109.899,14.16 109.332,14.16 C108.477,14.16 107.847,14.844 107.847,15.762 C107.847,16.644 108.504,17.373 109.296,17.373 C109.836,17.373 110.349,17.04 110.601,16.536 Z M112.905,16.14 C113.085,16.887 113.67,17.373 114.39,17.373 C114.93,17.373 115.38,17.103 115.668,16.608 L116.523,16.608 C116.172,17.553 115.335,18.147 114.354,18.147 C113.094,18.147 112.05,17.067 112.05,15.762 C112.05,14.421 113.085,13.35 114.372,13.35 C115.632,13.35 116.667,14.412 116.667,15.708 C116.667,15.789 116.658,15.978 116.64,16.14 L112.905,16.14 Z M112.896,15.492 L115.83,15.492 C115.785,14.745 115.128,14.124 114.363,14.124 C113.949,14.124 113.535,14.313 113.256,14.619 C113.04,14.853 112.959,15.06 112.896,15.492 Z M120.204,14.709 L119.367,14.709 C119.304,14.34 119.115,14.16 118.8,14.16 C118.485,14.16 118.242,14.367 118.242,14.655 C118.242,14.943 118.386,15.06 118.944,15.231 C119.376,15.366 119.664,15.51 119.862,15.69 C120.141,15.96 120.303,16.329 120.303,16.707 C120.303,17.49 119.592,18.147 118.737,18.147 C118.161,18.147 117.648,17.859 117.378,17.382 C117.243,17.139 117.198,16.923 117.189,16.554 L118.044,16.554 C118.08,17.085 118.341,17.373 118.782,17.373 C119.178,17.373 119.457,17.13 119.457,16.779 C119.457,16.437 119.277,16.275 118.665,16.068 C118.215,15.924 117.99,15.816 117.81,15.663 C117.531,15.42 117.396,15.141 117.396,14.79 C117.396,13.98 117.999,13.386 118.818,13.386 C119.619,13.386 120.186,13.935 120.204,14.709 Z M123.894,14.709 L123.057,14.709 C122.994,14.34 122.805,14.16 122.49,14.16 C122.175,14.16 121.932,14.367 121.932,14.655 C121.932,14.943 122.076,15.06 122.634,15.231 C123.066,15.366 123.354,15.51 123.552,15.69 C123.831,15.96 123.993,16.329 123.993,16.707 C123.993,17.49 123.282,18.147 122.427,18.147 C121.851,18.147 121.338,17.859 121.068,17.382 C120.933,17.139 120.888,16.923 120.879,16.554 L121.734,16.554 C121.77,17.085 122.031,17.373 122.472,17.373 C122.868,17.373 123.147,17.13 123.147,16.779 C123.147,16.437 122.967,16.275 122.355,16.068 C121.905,15.924 121.68,15.816 121.5,15.663 C121.221,15.42 121.086,15.141 121.086,14.79 C121.086,13.98 121.689,13.386 122.508,13.386 C123.309,13.386 123.876,13.935 123.894,14.709 Z M127.098,12.999 L127.098,12 L127.944,12 L127.944,12.999 L127.098,12.999 Z M127.098,17.895 L127.098,13.503 L127.944,13.503 L127.944,17.895 C127.944,18.615 127.926,18.741 127.8,18.993 C127.575,19.452 127.08,19.767 126.531,19.803 L126.531,18.921 C126.711,18.903 126.819,18.867 126.909,18.777 C127.071,18.624 127.098,18.498 127.098,17.895 Z M131.688,14.709 L130.851,14.709 C130.788,14.34 130.599,14.16 130.284,14.16 C129.969,14.16 129.726,14.367 129.726,14.655 C129.726,14.943 129.87,15.06 130.428,15.231 C130.86,15.366 131.148,15.51 131.346,15.69 C131.625,15.96 131.787,16.329 131.787,16.707 C131.787,17.49 131.076,18.147 130.221,18.147 C129.645,18.147 129.132,17.859 128.862,17.382 C128.727,17.139 128.682,16.923 128.673,16.554 L129.528,16.554 C129.564,17.085 129.825,17.373 130.266,17.373 C130.662,17.373 130.941,17.13 130.941,16.779 C130.941,16.437 130.761,16.275 130.149,16.068 C129.699,15.924 129.474,15.816 129.294,15.663 C129.015,15.42 128.88,15.141 128.88,14.79 C128.88,13.98 129.483,13.386 130.302,13.386 C131.103,13.386 131.67,13.935 131.688,14.709 Z M132.093,16.131 L132.093,15.285 L134.37,15.285 L134.37,16.131 L132.093,16.131 Z M134.973,18.03 L134.973,12 L136.539,12 C137.178,12 137.574,12.126 137.916,12.45 C138.249,12.756 138.429,13.197 138.429,13.674 C138.429,14.142 138.267,14.484 137.88,14.808 C138.501,15.186 138.78,15.636 138.78,16.284 C138.78,16.797 138.555,17.283 138.177,17.607 C137.826,17.904 137.394,18.03 136.773,18.03 L134.973,18.03 Z M135.855,14.511 L136.575,14.511 C136.908,14.511 137.124,14.448 137.286,14.295 C137.448,14.142 137.547,13.908 137.547,13.665 C137.547,13.341 137.385,13.053 137.124,12.918 C136.971,12.837 136.8,12.81 136.521,12.81 L135.855,12.81 L135.855,14.511 Z M135.855,17.22 L136.809,17.22 C137.214,17.22 137.448,17.13 137.655,16.887 C137.808,16.716 137.898,16.5 137.898,16.284 C137.898,16.014 137.763,15.717 137.556,15.546 C137.358,15.375 137.142,15.321 136.701,15.321 L135.855,15.321 L135.855,17.22 Z M139.671,16.275 L139.671,13.503 L140.517,13.503 L140.517,15.969 C140.517,16.401 140.571,16.707 140.706,16.923 C140.877,17.202 141.246,17.382 141.651,17.382 C142.38,17.382 142.821,16.851 142.821,15.969 L142.821,13.503 L143.667,13.503 L143.667,18.03 L142.884,18.03 L142.884,17.553 C142.614,17.931 142.128,18.156 141.552,18.156 C140.427,18.156 139.671,17.4 139.671,16.275 Z M144.999,18.03 L144.999,14.277 L144.387,14.277 L144.387,13.503 L144.999,13.503 L144.999,12 L145.845,12 L145.845,13.503 L146.592,13.503 L146.592,14.277 L145.845,14.277 L145.845,18.03 L144.999,18.03 Z M147.402,18.03 L147.402,14.277 L146.79,14.277 L146.79,13.503 L147.402,13.503 L147.402,12 L148.248,12 L148.248,13.503 L148.995,13.503 L148.995,14.277 L148.248,14.277 L148.248,18.03 L147.402,18.03 Z M149.337,15.744 C149.337,14.448 150.435,13.386 151.767,13.386 C153.135,13.386 154.215,14.439 154.215,15.771 C154.215,16.392 153.909,17.067 153.432,17.508 C152.982,17.931 152.406,18.147 151.776,18.147 C150.435,18.147 149.337,17.067 149.337,15.744 Z M150.183,15.762 C150.183,16.644 150.903,17.373 151.776,17.373 C152.64,17.373 153.369,16.644 153.369,15.78 C153.369,14.871 152.667,14.16 151.776,14.16 C150.894,14.16 150.183,14.88 150.183,15.762 Z M155.088,18.03 L155.088,13.503 L155.871,13.503 L155.871,13.98 C156.168,13.584 156.636,13.377 157.212,13.377 C158.337,13.377 159.093,14.133 159.093,15.258 L159.093,18.03 L158.247,18.03 L158.247,15.564 C158.247,15.123 158.193,14.826 158.058,14.61 C157.887,14.331 157.518,14.151 157.113,14.151 C156.384,14.151 155.943,14.682 155.943,15.564 L155.943,18.03 L155.088,18.03 Z M159.606,16.131 L159.606,15.285 L161.883,15.285 L161.883,16.131 L159.606,16.131 Z M166.176,18.03 L166.176,17.319 C165.825,17.868 165.249,18.147 164.475,18.147 C163.17,18.147 162.171,17.121 162.171,15.78 C162.171,15.195 162.378,14.637 162.747,14.187 C163.197,13.656 163.791,13.386 164.538,13.386 C165.213,13.386 165.879,13.701 166.176,14.16 L166.176,13.503 L166.959,13.503 L166.959,18.03 L166.176,18.03 Z M163.017,15.78 C163.017,16.653 163.719,17.373 164.556,17.373 C165.402,17.373 166.113,16.662 166.113,15.807 C166.113,14.88 165.438,14.16 164.556,14.16 C163.701,14.16 163.017,14.88 163.017,15.78 Z M171.45,16.536 L172.386,16.536 C172.044,17.526 171.189,18.147 170.163,18.147 C168.858,18.147 167.85,17.103 167.85,15.762 C167.85,14.43 168.867,13.386 170.172,13.386 C171.207,13.386 172.161,14.088 172.386,15.015 L171.45,15.015 C171.108,14.403 170.748,14.16 170.181,14.16 C169.326,14.16 168.696,14.844 168.696,15.762 C168.696,16.644 169.353,17.373 170.145,17.373 C170.685,17.373 171.198,17.04 171.45,16.536 Z M173.268,18.03 L173.268,14.277 L172.656,14.277 L172.656,13.503 L173.268,13.503 L173.268,12 L174.114,12 L174.114,13.503 L174.861,13.503 L174.861,14.277 L174.114,14.277 L174.114,18.03 L173.268,18.03 Z M175.554,12.999 L175.554,12 L176.4,12 L176.4,12.999 L175.554,12.999 Z M175.554,18.03 L175.554,13.503 L176.4,13.503 L176.4,18.03 L175.554,18.03 Z M177.291,15.744 C177.291,14.448 178.389,13.386 179.721,13.386 C181.089,13.386 182.169,14.439 182.169,15.771 C182.169,16.392 181.863,17.067 181.386,17.508 C180.936,17.931 180.36,18.147 179.73,18.147 C178.389,18.147 177.291,17.067 177.291,15.744 Z M178.137,15.762 C178.137,16.644 178.857,17.373 179.73,17.373 C180.594,17.373 181.323,16.644 181.323,15.78 C181.323,14.871 180.621,14.16 179.73,14.16 C178.848,14.16 178.137,14.88 178.137,15.762 Z M183.042,18.03 L183.042,13.503 L183.825,13.503 L183.825,13.98 C184.122,13.584 184.59,13.377 185.166,13.377 C186.291,13.377 187.047,14.133 187.047,15.258 L187.047,18.03 L186.201,18.03 L186.201,15.564 C186.201,15.123 186.147,14.826 186.012,14.61 C185.841,14.331 185.472,14.151 185.067,14.151 C184.338,14.151 183.897,14.682 183.897,15.564 L183.897,18.03 L183.042,18.03 Z M189.369,14.034 L189.369,13.125 C189.369,12.468 189.63,12.117 190.215,12 L190.215,12.504 C189.999,12.585 189.909,12.72 189.909,12.963 C189.909,12.981 189.909,12.999 189.918,13.035 L190.215,13.035 L190.215,14.034 L189.369,14.034 Z M188.1,14.034 L188.1,13.125 C188.1,12.468 188.361,12.117 188.946,12 L188.946,12.504 C188.73,12.585 188.64,12.72 188.64,12.963 C188.64,12.981 188.64,12.999 188.649,13.035 L188.946,13.035 L188.946,14.034 L188.1,14.034 Z" id="&quot;ButtonButton--successjs-Button-action“" fill="#87CA71"></path>
          <path d="M191.061,17.229 L191.061,16.392 L194.076,14.97 L191.061,13.557 L191.061,12.72 L194.976,14.619 L194.976,15.339 L191.061,17.229 Z M12.465,25.557 L11.583,25.557 C11.547,25.035 11.214,24.693 10.764,24.693 C10.332,24.693 9.954,25.08 9.954,25.521 C9.954,25.764 10.071,25.998 10.26,26.133 C10.386,26.223 10.548,26.286 10.944,26.403 C11.592,26.583 11.826,26.7 12.087,26.979 C12.402,27.312 12.573,27.744 12.573,28.23 C12.573,29.31 11.763,30.147 10.701,30.147 C10.116,30.147 9.567,29.886 9.216,29.427 C8.937,29.076 8.838,28.77 8.829,28.248 L9.702,28.248 C9.729,28.572 9.774,28.716 9.873,28.887 C10.044,29.157 10.377,29.337 10.719,29.337 C11.268,29.337 11.691,28.896 11.691,28.338 C11.691,27.987 11.529,27.717 11.214,27.555 C11.151,27.519 10.908,27.429 10.476,27.285 C9.819,27.06 9.702,27.006 9.477,26.763 C9.216,26.484 9.072,26.079 9.072,25.647 C9.072,24.63 9.81,23.883 10.818,23.883 C11.394,23.883 11.871,24.144 12.195,24.639 C12.375,24.909 12.456,25.161 12.465,25.557 Z M13.401,28.275 L13.401,25.503 L14.247,25.503 L14.247,27.969 C14.247,28.401 14.301,28.707 14.436,28.923 C14.607,29.202 14.976,29.382 15.381,29.382 C16.11,29.382 16.551,28.851 16.551,27.969 L16.551,25.503 L17.397,25.503 L17.397,30.03 L16.614,30.03 L16.614,29.553 C16.344,29.931 15.858,30.156 15.282,30.156 C14.157,30.156 13.401,29.4 13.401,28.275 Z M21.906,28.536 L22.842,28.536 C22.5,29.526 21.645,30.147 20.619,30.147 C19.314,30.147 18.306,29.103 18.306,27.762 C18.306,26.43 19.323,25.386 20.628,25.386 C21.663,25.386 22.617,26.088 22.842,27.015 L21.906,27.015 C21.564,26.403 21.204,26.16 20.637,26.16 C19.782,26.16 19.152,26.844 19.152,27.762 C19.152,28.644 19.809,29.373 20.601,29.373 C21.141,29.373 21.654,29.04 21.906,28.536 Z M26.955,28.536 L27.891,28.536 C27.549,29.526 26.694,30.147 25.668,30.147 C24.363,30.147 23.355,29.103 23.355,27.762 C23.355,26.43 24.372,25.386 25.677,25.386 C26.712,25.386 27.666,26.088 27.891,27.015 L26.955,27.015 C26.613,26.403 26.253,26.16 25.686,26.16 C24.831,26.16 24.201,26.844 24.201,27.762 C24.201,28.644 24.858,29.373 25.65,29.373 C26.19,29.373 26.703,29.04 26.955,28.536 Z M29.259,28.14 C29.439,28.887 30.024,29.373 30.744,29.373 C31.284,29.373 31.734,29.103 32.022,28.608 L32.877,28.608 C32.526,29.553 31.689,30.147 30.708,30.147 C29.448,30.147 28.404,29.067 28.404,27.762 C28.404,26.421 29.439,25.35 30.726,25.35 C31.986,25.35 33.021,26.412 33.021,27.708 C33.021,27.789 33.012,27.978 32.994,28.14 L29.259,28.14 Z M29.25,27.492 L32.184,27.492 C32.139,26.745 31.482,26.124 30.717,26.124 C30.303,26.124 29.889,26.313 29.61,26.619 C29.394,26.853 29.313,27.06 29.25,27.492 Z M36.558,26.709 L35.721,26.709 C35.658,26.34 35.469,26.16 35.154,26.16 C34.839,26.16 34.596,26.367 34.596,26.655 C34.596,26.943 34.74,27.06 35.298,27.231 C35.73,27.366 36.018,27.51 36.216,27.69 C36.495,27.96 36.657,28.329 36.657,28.707 C36.657,29.49 35.946,30.147 35.091,30.147 C34.515,30.147 34.002,29.859 33.732,29.382 C33.597,29.139 33.552,28.923 33.543,28.554 L34.398,28.554 C34.434,29.085 34.695,29.373 35.136,29.373 C35.532,29.373 35.811,29.13 35.811,28.779 C35.811,28.437 35.631,28.275 35.019,28.068 C34.569,27.924 34.344,27.816 34.164,27.663 C33.885,27.42 33.75,27.141 33.75,26.79 C33.75,25.98 34.353,25.386 35.172,25.386 C35.973,25.386 36.54,25.935 36.558,26.709 Z M40.248,26.709 L39.411,26.709 C39.348,26.34 39.159,26.16 38.844,26.16 C38.529,26.16 38.286,26.367 38.286,26.655 C38.286,26.943 38.43,27.06 38.988,27.231 C39.42,27.366 39.708,27.51 39.906,27.69 C40.185,27.96 40.347,28.329 40.347,28.707 C40.347,29.49 39.636,30.147 38.781,30.147 C38.205,30.147 37.692,29.859 37.422,29.382 C37.287,29.139 37.242,28.923 37.233,28.554 L38.088,28.554 C38.124,29.085 38.385,29.373 38.826,29.373 C39.222,29.373 39.501,29.13 39.501,28.779 C39.501,28.437 39.321,28.275 38.709,28.068 C38.259,27.924 38.034,27.816 37.854,27.663 C37.575,27.42 37.44,27.141 37.44,26.79 C37.44,25.98 38.043,25.386 38.862,25.386 C39.663,25.386 40.23,25.935 40.248,26.709 Z M-1.56319402e-13,39.33 L-1.56319402e-13,38.61 L3.924,36.72 L3.924,37.557 L0.9,38.97 L3.924,40.392 L3.924,41.229 L-1.56319402e-13,39.33 Z M4.131,43.542 L6.705,36 L7.443,36 L4.869,43.542 L4.131,43.542 Z" id="&gt;Success&lt;/" fill="#ABB2C0"></path>
          <path d="M8.406,42.03 L8.406,36 L9.261,36 L9.261,38.133 C9.63,37.638 10.17,37.368 10.818,37.368 C12.105,37.368 13.158,38.457 13.158,39.771 C13.158,41.103 12.141,42.147 10.827,42.147 C10.404,42.147 9.981,42.03 9.648,41.832 C9.477,41.733 9.378,41.634 9.189,41.391 L9.189,42.03 L8.406,42.03 Z M9.234,39.744 C9.234,40.662 9.909,41.373 10.773,41.373 C11.61,41.373 12.312,40.644 12.312,39.762 C12.312,38.871 11.619,38.142 10.773,38.142 C9.927,38.142 9.234,38.862 9.234,39.744 Z M14.013,40.275 L14.013,37.503 L14.859,37.503 L14.859,39.969 C14.859,40.401 14.913,40.707 15.048,40.923 C15.219,41.202 15.588,41.382 15.993,41.382 C16.722,41.382 17.163,40.851 17.163,39.969 L17.163,37.503 L18.009,37.503 L18.009,42.03 L17.226,42.03 L17.226,41.553 C16.956,41.931 16.47,42.156 15.894,42.156 C14.769,42.156 14.013,41.4 14.013,40.275 Z M19.341,42.03 L19.341,38.277 L18.729,38.277 L18.729,37.503 L19.341,37.503 L19.341,36 L20.187,36 L20.187,37.503 L20.934,37.503 L20.934,38.277 L20.187,38.277 L20.187,42.03 L19.341,42.03 Z M21.744,42.03 L21.744,38.277 L21.132,38.277 L21.132,37.503 L21.744,37.503 L21.744,36 L22.59,36 L22.59,37.503 L23.337,37.503 L23.337,38.277 L22.59,38.277 L22.59,42.03 L21.744,42.03 Z M23.679,39.744 C23.679,38.448 24.777,37.386 26.109,37.386 C27.477,37.386 28.557,38.439 28.557,39.771 C28.557,40.392 28.251,41.067 27.774,41.508 C27.324,41.931 26.748,42.147 26.118,42.147 C24.777,42.147 23.679,41.067 23.679,39.744 Z M24.525,39.762 C24.525,40.644 25.245,41.373 26.118,41.373 C26.982,41.373 27.711,40.644 27.711,39.78 C27.711,38.871 27.009,38.16 26.118,38.16 C25.236,38.16 24.525,38.88 24.525,39.762 Z M29.43,42.03 L29.43,37.503 L30.213,37.503 L30.213,37.98 C30.51,37.584 30.978,37.377 31.554,37.377 C32.679,37.377 33.435,38.133 33.435,39.258 L33.435,42.03 L32.589,42.03 L32.589,39.564 C32.589,39.123 32.535,38.826 32.4,38.61 C32.229,38.331 31.86,38.151 31.455,38.151 C30.726,38.151 30.285,38.682 30.285,39.564 L30.285,42.03 L29.43,42.03 Z" id="button" fill="#F2586D"></path>
          <polygon id="&gt;" fill="#ABB2C0" points="34.254 41.229 34.254 40.392 37.269 38.97 34.254 37.557 34.254 36.72 38.169 38.619 38.169 39.339"></polygon>
      </g>
      <g id="chevron-right" transform="translate(349.000000, 15.000000)" fill="#4C4F5A" fill-rule="nonzero">
          <path d="M3,7.52954027 C3.00271506,7.40455117 3.04742543,7.28503269 3.12559618,7.19380016 L6.967909,2.99704876 L3.12559618,-1.19970264 C2.96242598,-1.38603353 2.96585635,-1.68097291 3.13330742,-1.86270512 C3.30075849,-2.04443734 3.57048001,-2.04594573 3.73962196,-1.86609589 L7.88429596,2.66130865 C8.03856801,2.85334501 8.03856801,3.14075252 7.88429596,3.33278887 L3.73962196,7.86019342 C3.61645743,7.99587315 3.43072322,8.03715081 3.26890039,7.96480679 C3.10707756,7.89246276 3.00097661,7.72071817 3,7.52954027 L3,7.52954027 Z" id="Path" transform="translate(5.500000, 3.000000) rotate(-270.000000) translate(-5.500000, -3.000000) "></path>
      </g>
      <text id="HTML" opacity="0.892508371" font-family="Avalon-Demi, Avalon" font-size="10" font-weight="500" fill="#E7E7E7">
          <tspan x="159" y="19">HTML</tspan>
      </text>
      <path d="M136.5,27.5 L367,28" id="Line" stroke="#CBFB00" stroke-width="0.5" opacity="0.309128534" stroke-linecap="square"></path>
  </g>
</svg>
