<svg class="home-illustration floating" xmlns="http://www.w3.org/2000/svg" width="2846" height="2038" viewBox="0 0 2846 2038"><title>whale</title><path d="M1169.81,1496s-21,175-255,356c0,0-78-108-27-335" style="fill:#dceaea"/><path d="M1157.45,1494.52l24.72,3-.26,1.78-.25,1.57c-.17,1-.34,2.05-.54,3-.37,2-.78,4-1.2,5.91-.85,3.89-1.79,7.72-2.79,11.52-2,7.59-4.26,15.09-6.77,22.46a446.85,446.85,0,0,1-17.15,43.24c-6.43,14.07-13.5,27.8-21,41.26l-5.74,10-6,9.88c-1,1.64-2,3.3-3,4.92l-3.13,4.85c-2.09,3.23-4.14,6.49-6.27,9.69-34.23,51.15-75.14,97.38-120.12,138.81l-4.19,3.92-4.29,3.81-8.58,7.6-4.29,3.81-2.14,1.9-2.19,1.84-8.78,7.37-8.78,7.36c-3,2.42-6,4.77-8.95,7.15l-6.87,5.46-4.42,3.51c-.74.58-1.48,1.2-2.21,1.74l-2.15,1.45-4.31,2.92-2.15,1.46-1.08.73-.54.36-.27.18c-.1.14-.14-.12-.21-.16l-6.08-8.64c-2-3-4-6-5.81-9.27-.93-1.62-1.89-3.22-2.76-4.86l-1.67-3.2c-.92-1.77-1.77-3.57-2.66-5.36s-1.67-3.6-2.51-5.4c-3.24-7.22-6.13-14.54-8.8-21.92a371.53,371.53,0,0,1-12.72-45.06,443.51,443.51,0,0,1-7.38-46l-.6-5.78-.3-2.89-.22-2.89-.87-11.57c-.35-7.71-.81-15.43-.85-23.15-.23-7.72,0-15.43,0-23.14.09-3.85.29-7.69.43-11.54l.23-5.78c0-.48,0-1,.08-1.44l.08-1.27.07-.92,1-14.63a737.38,737.38,0,0,1,28.92-96.87l-1.29,12.82c-.41,4.27-.9,8.52-1.16,12.8l-.93,12.79-.23,3.2-.15,3.2-.28,6.39c-.88,17-.87,34-.39,50.88l-.48,6.93-.24,3.46-.16,2.38c-.11,1.82-.16,3.64-.24,5.46l-.43,10.91c-.09,3.63-.1,7.27-.15,10.9l-.06,5.46.09,5.44c.08,3.63.1,7.27.22,10.9,1.1,29,4.43,57.89,11.12,85.9A334.21,334.21,0,0,0,907,1808.18c2.58,6.64,5.35,13.18,8.42,19.49.77,1.58,1.53,3.16,2.35,4.69l.53,1h0l6.69-5.31c2.9-2.25,5.69-4.63,8.5-7l8.44-7.09,4.22-3.54,2.1-1.77,2.06-1.82,8.24-7.31,8.23-7.3,8-7.52c42.88-40,81.74-84.32,114-133,3.92-6.15,8-12.21,11.68-18.48,1.86-3.13,3.83-6.2,5.62-9.37l5.41-9.48c7-12.72,13.65-25.67,19.64-38.87a420,420,0,0,0,15.89-40.32l1.7-5.12,1.57-5.14c.54-1.71,1-3.43,1.5-5.15s1-3.44,1.41-5.17c.91-3.44,1.75-6.89,2.49-10.31.37-1.72.73-3.43,1-5.11.18-.86.31-1.68.45-2.5.07-.42.14-.83.19-1.21Z" style="fill:#202020"/><path d="M2249,410c-97,112-242,646-790,191C1292.86,463.05,587,73,229.31,376.5,87.5,496.82,65.81,617,119.31,771.5c0,0,8.25,388.43-4,390-58.5,7.5-81.5,30.5-34.5,96.5,62,71,100,200,469.5,285.5,0,0,340,85,705-43,0,0,380-76,758-340,0,0,149-80,322-341,0,0,128-196,96-428,0,0,136-14,290-172,0,0,45-53,85-132,0,0,12-68-43-47,0,0-193,103-220,95,0,0-65,11-107,3,0,0-94-59-205-16,0,0-129,44-296-49l-47-25s-90-36-77,47c0,0,98,178,258,253Z" style="fill:#e8f9f9"/><path d="M969.81,988s-664.18,186-832,173c0,0-9.5,5,36,9C514.81,1200,906.81,1115,969.81,988Z" style="fill:#dceaea"/><ellipse cx="908.31" cy="983" rx="117.5" ry="69.29" transform="matrix(0.99, -0.16, 0.16, 0.99, -149.25, 162.71)" style="fill:#dceaea"/><path d="M2417.81,383s42,421-798,790c0,0-979,554-1563,1,0,0-8,19,7,57,0,0,57,143,411.93,293.45,0,0,441.47,203.55,1329.27-239.45C1805,1285,2523.81,941,2417.81,383Z" style="fill:#dceaea"/><path d="M2782.81,48s-179,287-373,282c0,0,29,12,12,62,0,0,188-6,386-288C2807.81,104,2817.81,48,2782.81,48Z" style="fill:#dceaea"/><path d="M1824.81,48s80,233,485,349c0,0-241,60-484.28-274.74C1825.53,122.26,1789.81,48,1824.81,48Z" style="fill:#dceaea"/><path d="M2441.86,394.75c0,.1,0,.16-.32.43a6.65,6.65,0,0,1-1,.71,2.88,2.88,0,0,1-.31.17l-1.27.58-.07,0,0,0,1-.47h-.08l-.09,0-.2.06c-.13,0-.19.23-.3.33a3.45,3.45,0,0,1-.59.65c-.25.05-.58.07-.89.13a10.42,10.42,0,0,0-2,.57,19.61,19.61,0,0,1-2.1,1.17c-.38.19-.79.37-1.2.54s-.8.48-1.21.73l-1.26.76a5.28,5.28,0,0,1-.67.36l-.7.24c-.39.3-1.08,0-1.63-.05l-1.7-.23a2.8,2.8,0,0,1-.93-.33c-.05-.13-.47-1.27-1-3s-1.29-4-2.13-6.77c-1.67-5.5-3.79-12.71-5.86-19.89-4.08-14.37-8.14-28.64-8.14-28.64a101.92,101.92,0,0,1,.14-17.1c.72-12.13,5.94-8.81,10-2.57.19-.82,8,15.42,8,15.42l8,28.09c2,7,4.11,14.08,5.73,19.34.8,2.63,1.5,4.82,2,6.32S2441.84,394.69,2441.86,394.75Z" style="fill:#202020"/><path d="M2191.24,402.58l5.13-21.16c1.71.42,3.78.88,5.72,1.29,4.19.84,8.47,1.54,12.74,2.2a293.15,293.15,0,0,0,41.76,9.28,207.51,207.51,0,0,0,43.47,2,216.27,216.27,0,0,1-45,8.86c-1.92.23-3.84.35-5.76.49l-5.78.4c-3.84.14-7.71.38-11.57.39-7.74.17-15.49,0-23.27-.4-3.61-.56-7.21-1.21-10.82-1.91C2195.7,403.56,2193.64,403.14,2191.24,402.58Z" style="fill:#202020"/><path d="M117.81,761l812,192s71,17,0,50c0,0-312,139-817,162" style="fill:#fff"/><path d="M115.82,768.23l16,3.79,44.57,10.54,67,15.84,84.36,20L423,840.86l101.26,23.95,100.65,23.8L719.74,911l83.74,19.8,66.15,15.65,43.47,10.27c5,1.19,10,2.29,15,3.56a97.88,97.88,0,0,1,10.25,3.31c.46.18,2.14.87.83.32.61.25,1.21.52,1.8.79,1.42.66,2.82,1.35,4.19,2.11,1.17.65,2.3,1.35,3.43,2.08a7.3,7.3,0,0,1,2.51,2c.43.43.86.86,1.28,1.31,1,1-.46-.84.29.33a18,18,0,0,1,1,1.7s-.2-.86.11.53-.11-1.29.05.2,0,.59,0,.59c0,.29-.53,1.91-.28,1.23.19-.52-.64,1.22-.89,1.62-5,8.13-17.77,14-26.71,18.08-1.37.62-2.76,1.19-4.14,1.79s2.08-.87.53-.23l-1.22.52-3,1.22q-3.57,1.47-7.16,2.91c-15.9,6.37-32,12.33-48.11,18q-38.84,13.76-78.27,25.68-52.62,16.05-106,29.47-66.09,16.71-133,29.89-78.17,15.45-157.12,26.43-89.62,12.49-179.93,19.38-47.87,3.69-95.83,5.87c-9.61.44-9.67,15.44,0,15q96.95-4.44,193.49-15,85.53-9.42,170.42-23.8,73.62-12.51,146.48-29,60.19-13.68,119.68-30.33,46.46-13.06,92.28-28.2,31.47-10.44,62.5-22.16c10.92-4.15,21.79-8.46,32.54-13,15.9-6.77,50.06-24.19,35.28-46.18-7.6-11.32-23-16.47-35.76-19.49l-27.28-6.44-53.91-12.75-75.16-17.77-89.86-21.25L584,863.53,481.13,839.21,381.29,815.6l-91.87-21.72-77.18-18.25-57.33-13.56-31.1-7.35-4-1c-9.38-2.22-13.39,12.24-4,14.46Z"/><line x1="439.81" y1="853" x2="439.81" y2="1122" style="fill:#fff"/><path d="M439.81,853c-2.49,10-3.84,16.81-3.9,28.8,0,2,0,5.33,0,12.2,0,28.12,0,94.73,0,94.73s0,55.76,0,86.67c0,9.16,0,14.84,0,17.8.06,12,1.41,18.79,3.9,28.8,2.49-10,3.84-16.81,3.9-28.8,0-3,0-8.64,0-17.8,0-30.91,0-86.67,0-86.67s0-66.61,0-94.73c0-6.87,0-10.17,0-12.2C443.65,869.81,442.3,863,439.81,853Z" style="fill:#202020"/><line x1="359.81" y1="832" x2="359.81" y2="1131" style="fill:#fff"/><path d="M359.81,832c-2.49,10-3.84,16.81-3.9,28.8,0,2,0,5.33,0,12.2,0,32.77,0,110.4,0,110.4s0,65,0,101c0,9.16,0,14.84,0,17.8.06,12,1.41,18.79,3.9,28.8,2.49-10,3.84-16.81,3.9-28.8,0-3,0-8.64,0-17.8,0-36,0-101,0-101s0-77.63,0-110.4c0-6.87,0-10.17,0-12.2C363.65,848.81,362.3,842,359.81,832Z" style="fill:#202020"/><line x1="277.81" y1="815" x2="277.81" y2="1140" style="fill:#fff"/><path d="M277.81,815c-2.49,10-3.84,16.81-3.9,28.8V980s0,73,0,113.42c0,9.16,0,14.84,0,17.8.06,12,1.41,18.79,3.9,28.8,2.49-10,3.84-16.81,3.9-28.8,0-3,0-8.64,0-17.8,0-40.45,0-113.42,0-113.42V843.8C281.65,831.81,280.3,825,277.81,815Z" style="fill:#202020"/><line x1="198.81" y1="796" x2="198.81" y2="1151" style="fill:#fff"/><path d="M198.81,796c-2.49,10-3.84,16.81-3.9,28.8v297.4c.06,12,1.41,18.79,3.9,28.8,2.49-10,3.84-16.81,3.9-28.8V824.8C202.65,812.81,201.3,806,198.81,796Z" style="fill:#202020"/><path d="M808.31,940.5c-2.49,10-3.84,16.81-3.9,28.8,0,2,0,5.33,0,12.2,0,.06,0,.21,0,.21a.6.6,0,0,0,0,.11V982c0,7.92,0,14.41,0,17.66.06,12,1.41,18.79,3.9,28.8,2.49-10,3.84-16.81,3.9-28.8,0-3.25,0-9.74,0-17.66v-.22a.33.33,0,0,0,0-.11s0-.15,0-.21c0-6.87,0-10.17,0-12.2C812.15,957.31,810.8,950.51,808.31,940.5Z" style="fill:#202020"/><path d="M740.31,921.5c-2.49,10-3.84,16.81-3.9,28.8,0,2,0,5.33,0,12.2,0,7.35,0,24.75,0,24.75s0,14.57,0,22.65c0,9.16,0,14.84,0,17.8.06,12,1.41,18.79,3.9,28.8,2.49-10,3.84-16.81,3.9-28.8,0-3,0-8.64,0-17.8,0-8.08,0-22.65,0-22.65s0-17.4,0-24.75c0-6.87,0-10.17,0-12.2C744.15,938.31,742.8,931.51,740.31,921.5Z" style="fill:#202020"/><path d="M663.31,903.5c-2.49,10-3.84,16.81-3.9,28.8,0,2,0,5.33,0,12.2,0,13.39,0,45.12,0,45.12s0,26.56,0,41.28c0,9.16,0,14.84,0,17.8.06,12,1.41,18.79,3.9,28.8,2.49-10,3.84-16.81,3.9-28.8,0-3,0-8.64,0-17.8,0-14.72,0-41.28,0-41.28s0-31.73,0-45.12c0-6.87,0-10.17,0-12.2C667.15,920.31,665.8,913.51,663.31,903.5Z" style="fill:#202020"/><path d="M587.31,882.5c-2.49,10-3.84,16.81-3.9,28.8,0,2,0,5.33,0,12.2,0,19.28,0,65,0,65s0,38.24,0,59.44c0,9.16,0,14.84,0,17.8.06,12,1.41,18.79,3.9,28.8,2.49-10,3.84-16.81,3.9-28.8,0-3,0-8.64,0-17.8,0-21.2,0-59.44,0-59.44s0-45.68,0-65c0-6.87,0-10.17,0-12.2C591.15,899.31,589.8,892.51,587.31,882.5Z" style="fill:#202020"/><path d="M515.31,870.5c-2.49,10-3.84,16.81-3.9,28.8,0,2,0,5.33,0,12.2,0,24.3,0,81.87,0,81.87s0,48.18,0,74.89c0,9.17,0,14.84,0,17.8.06,12,1.41,18.79,3.9,28.8,2.49-10,3.84-16.81,3.9-28.8,0-3,0-8.63,0-17.8,0-26.71,0-74.89,0-74.89s0-57.57,0-81.87c0-6.87,0-10.17,0-12.2C519.15,887.31,517.8,880.51,515.31,870.5Z" style="fill:#202020"/><path d="M877.46,960.8c-2.49,2-3.84,3.28-3.9,5.62-.06,2.53,0,15.2,0,15.2s-.06,12.67,0,15.2c.06,2.33,1.41,3.66,3.9,5.61,2.49-1.95,3.84-3.28,3.9-5.61.07-2.53,0-15.2,0-15.2s.07-12.67,0-15.2C881.3,964.08,880,962.75,877.46,960.8Z" style="fill:#202020"/><path d="M553.81,309s-77,94-186,16l-22-25s101-71,224-19C569.81,281,559.81,295,553.81,309Z" style="fill:#dceaea"/><path d="M339.56,314.35a2.68,2.68,0,0,1-.59-2,19.51,19.51,0,0,1,.62-6.46A12.77,12.77,0,0,1,343,300a11.5,11.5,0,0,1,6.69-3A29.34,29.34,0,0,1,360,298a7.53,7.53,0,0,1,2,.9c7.29,10.67,17.35,19.66,28.73,26.77a128.67,128.67,0,0,0,42.22,16.47,133.92,133.92,0,0,0,45.46,1.46c3.73-.58,7.43-1.27,11.08-2.17a110.17,110.17,0,0,0,10.72-3.22s2.22-.58,5.89-1.78a102.08,102.08,0,0,0,14.32-5.91c2.82-1.37,5.68-3.06,8.63-4.87a102,102,0,0,0,8.66-6.22A107.36,107.36,0,0,0,553,304.29c7.14-9.18,10.94-16.16,13.74-20s4.37-4.74,5.28-3.13,1,5.71.11,11.39A75.94,75.94,0,0,1,565.34,313c.54-.68-1.31,3.48-5.36,9.64a102.27,102.27,0,0,1-7.76,10.25,107.78,107.78,0,0,1-10.67,10.72,116.37,116.37,0,0,1-23.89,16.06c-1.77.89-3.4,1.71-4.87,2.35s-2.75,1.25-3.83,1.67L505.58,365a147.08,147.08,0,0,1-23.26,5.4,160.91,160.91,0,0,1-54.78-1.67,155.68,155.68,0,0,1-51.17-20C362.26,340,349.32,328.56,339.56,314.35Z" style="fill:#202020"/><path d="M2253.31,401.5c-9.41,12.27-17.51,22.22-25.2,33.16a448.7,448.7,0,0,0-24,38.17c-1.84,3.28-4.49,7.8-7.67,13.28l-5.24,8.84-2.94,4.85-1.53,2.52-.78,1.29-3.83,6.2c-2.91,4.73-5.93,9.4-8.93,14.11q-18.16,28.13-38.72,55.43c-13.75,18.13-28.38,35.85-43.95,52.95a584.08,584.08,0,0,1-49.88,48.83,448.13,448.13,0,0,1-56.56,42.16l-7.55,4.65c-2.52,1.55-5.13,2.94-7.7,4.42l-3.86,2.18c-1.29.74-2.58,1.47-3.9,2.13l-7.91,4.06c-1.32.67-2.63,1.38-4,2l-4,1.86-8.08,3.74c-2.73,1.17-5.49,2.26-8.24,3.4s-5.47,2.33-8.3,3.27c-5.6,2-11.17,4.12-16.9,5.73-2.86.85-5.7,1.76-8.57,2.58l-8.67,2.17-4.35,1.1c-1.45.34-2.92.59-4.39.89l-8.79,1.73c-1.47.33-3,.52-4.43.73l-4.44.63-4.45.64c-1.48.2-3,.47-4.46.56a282.87,282.87,0,0,1-72.16-1.62c-3-.32-6-1-9-1.55l-9-1.72c-.76-.13-1.5-.3-2.24-.49l-2.22-.56-4.45-1.11c-3-.75-5.95-1.45-8.91-2.23l-8.81-2.71-4.4-1.35c-1.47-.46-3-.86-4.39-1.42l-8.69-3.18-4.35-1.58-2.18-.79c-.72-.28-1.43-.6-2.14-.9l-8.56-3.62-4.28-1.82-2.14-.9c-.71-.32-1.41-.67-2.11-1l-8.41-4.06-4.2-2c-1.4-.68-2.83-1.31-4.19-2.09l-16.49-8.95-16.14-9.72c-1.36-.79-2.66-1.67-4-2.54l-3.94-2.62-7.89-5.23-3.94-2.61-3.85-2.79-7.7-5.57c-2.57-1.87-5.12-3.68-7.71-5.6l-7.81-5.85c-5.2-3.92-10.44-7.79-15.68-11.66q-63-46.44-128.94-90.13c-87.94-58.11-179.5-112.47-274.2-160.68q-35.54-18-71.62-34.87t-72.76-32.14c-48.89-20.4-98.48-38.84-148.74-54.39l-9.43-2.9c-3.13-1-6.27-1.94-9.44-2.83l-18.92-5.46c-12.67-3.42-25.29-6.91-38-10-25.41-6.25-50.93-11.82-76.57-16.21s-51.33-8-77.06-10.44-51.46-3.55-77.09-3.52A660,660,0,0,0,500,252.73l-9.46,1.06-9.41,1.38-9.39,1.4c-1.56.25-3.13.44-4.68.73l-4.66.87-9.31,1.75-4.65.87c-1.55.29-3.1.56-4.63.94l-18.4,4.2a551.1,551.1,0,0,0-71.26,22.92l-8.59,3.56-4.29,1.77c-1.43.59-2.86,1.18-4.25,1.86l-16.76,7.83-2.09,1-2,1.07-4.09,2.14-8.15,4.27c-5.49,2.74-10.71,5.94-16,9l-7.9,4.61c-1.33.75-2.6,1.59-3.87,2.42l-3.83,2.48-7.65,5c-2.53,1.67-5.13,3.22-7.56,5l-14.73,10.54-1.83,1.31c-.61.45-1.19.93-1.78,1.39l-3.54,2.79-7.07,5.57c-2.34,1.86-4.73,3.68-7,5.58l-6.79,5.77c-2.26,1.94-4.55,3.82-6.76,5.79l-6.61,6c-2.18,2-4.43,3.91-6.54,6l-6.4,6.13c-4.32,4-8.37,8.32-12.5,12.51l-3.07,3.16-3,3.25-5.94,6.51-1.48,1.62-1.42,1.68-2.85,3.35-5.68,6.69-5.43,6.89c-1.79,2.31-3.65,4.56-5.32,6.95-3.41,4.74-6.93,9.37-10.07,14.27l-4.82,7.26c-1.5,2.49-3,5-4.51,7.44l-2.25,3.72c-.75,1.23-1.4,2.53-2.11,3.79l-4.16,7.6c-.72,1.26-1.33,2.56-2,3.86l-1.91,3.88-1.9,3.88-.94,1.93-.87,2c-2.28,5.28-4.67,10.49-6.6,15.88a284.47,284.47,0,0,0-10.31,32.52q-.94,4.14-1.88,8.26c-.3,1.37-.64,2.74-.92,4.12l-.74,4.15c-.49,2.76-1,5.52-1.48,8.27s-.73,5.54-1.1,8.3a312,312,0,0,0-1.18,65.56,410.21,410.21,0,0,0,10.1,62.35c.62,2.51,1.25,5,1.87,7.5s1.21,5,1.92,7.45,1.37,4.91,2.06,7.36,1.34,4.91,2.11,7.32l2.22,7.24c.74,2.41,1.46,4.82,2.28,7.18l2.37,7.12,1.06,3.17c0-.12,0,0,0-.07h0a3.86,3.86,0,0,1,0,.49c1.81,78,2.93,150.6,3.24,216.75.13,33.08.06,64.55-.51,94.19-.29,14.81-.7,29.19-1.45,42.93-.39,6.85-.86,13.61-1.61,19.84l-.27,2.08h0s0,0,0,0H106l-2.53,0c-1.7,0-3.38.07-5.11.16-3.4.12-6.89.4-10.39.77-1.78.25-3.51.42-5.32.78-.9.16-1.79.31-2.69.5l-2.72.63a51.94,51.94,0,0,0-11.06,4l-1.38.68-1.37.83c-.91.57-1.82,1.07-2.7,1.74s-1.74,1.34-2.59,2-1.63,1.55-2.43,2.33c-.39.4-.78.8-1.16,1.21l-1,1.33c-.67.91-1.4,1.78-2,2.74s-1.12,1.92-1.65,2.89a10.45,10.45,0,0,0-.7,1.48l-.61,1.49a36.27,36.27,0,0,0-1.86,5.94,23.87,23.87,0,0,0-.53,2.89l-.39,2.86c-.11,1.84-.17,3.65-.22,5.45s.19,3.44.28,5.15A104.16,104.16,0,0,0,49.49,1216l1.32,4.12c.45,1.35.86,2.73,1.37,4s1,2.6,1.45,3.88,1,2.57,1.5,3.79c1,2.46,2,4.94,3.11,7.28l3.22,7c2.23,4.47,4.36,8.85,6.61,13l1.3,2.44.65,1.21.57,1.07a4.58,4.58,0,0,0,.71,1.13l3.73,4.74,6.55,8.42c4.41,5.65,9,11.23,13.61,16.69,9.32,10.88,19,21.19,29,30.92,5,4.89,10.07,9.56,15.13,14.2l7.7,6.79c2.54,2.27,5.19,4.4,7.77,6.59,5.14,4.41,10.45,8.52,15.64,12.72,2.62,2.06,5.29,4,7.91,6.06s5.24,4,7.91,6c21.18,15.61,42.56,29.65,63.82,42.55l8,4.78,4,2.38,4,2.3,15.85,9.07,15.79,8.63,3.92,2.14,3.94,2.06,7.84,4.09c10.38,5.52,20.81,10.55,31,15.67,5.13,2.51,10.27,4.89,15.35,7.32s10.12,4.87,15.19,7.11l15.06,6.82c2.5,1.12,5,2.27,7.46,3.35l7.45,3.21,14.75,6.37c2.43,1.07,4.87,2.09,7.32,3.08l7.29,3c38.71,16,75.65,29.82,110.67,42.11l.82.3.6.21a8.33,8.33,0,0,0,.8.27l2.26.54,3.47.8q3.43.78,6.83,1.49c4.53,1,9,1.86,13.47,2.74s8.87,1.7,13.26,2.46,8.74,1.55,13.07,2.25q25.93,4.28,50.34,7.24c32.53,4,63,6.58,91.5,8.23s55,2.19,79.51,2.31c12.27-.07,24.07,0,35.39-.4l16.64-.41,15.94-.7c41.61-1.88,75.91-5.29,104-8.52l19.86-2.63c6.25-.84,12.13-1.56,17.63-2.48l15.47-2.44,7-1.09c2.24-.36,4.4-.69,6.47-1.09l21.11-3.87,7.91-1.45c2.36-.42,4.42-.91,6.24-1.27l10.39-2.19,9-1.89,5-1.07c1.87-.39,3.93-.8,6.15-1.35l15.55-3.71c23.67-5.54,58.89-14.74,104.48-30l8.69-2.89,4.44-1.49.27-.09-.05,0h0l.6-.12,2.37-.5c6.3-1.37,12.7-2.83,19.25-4.4q19.68-4.71,41.23-10.51,43.13-11.64,93.78-27.9a2343.42,2343.42,0,0,0,230-88.17c42.64-19,87.27-40.26,133.52-64.4s94.11-51.12,143.09-81.46l18.42-11.53c3.08-1.94,6.2-3.85,9.28-5.83l9.23-6c12.31-8.1,24.9-16.09,37.28-24.71q9.33-6.39,18.78-12.83l4.32-3-.06,0,.72-.4.72-.41.65-.38,2.59-1.54c1.76-1,3.42-2.08,5.09-3.14l5-3.18,9.81-6.6c1.66-1.08,3.25-2.24,4.85-3.39l4.81-3.45c6.5-4.53,12.7-9.44,19.05-14.26,25.15-19.52,49.35-41.06,73.15-63.9l17.72-17.43,2.23-2.2L2168,1048l4.32-4.53,8.68-9.1c11.78-12,22.86-24.84,34.32-37.56,45.26-51.42,88.14-108.15,128.85-169.47,2.79-4.11,5.13-8.14,7.54-12.2,1.19-2,2.37-4.07,3.52-6.11s2.32-4.09,3.44-6.16q6.81-12.35,13.08-25.05,12.58-25.39,23.42-52.09a767.47,767.47,0,0,0,35.54-111.53q6.69-29,11.09-59.08,1-7.51,2-15.07c.61-5,1-10.11,1.58-15.18.24-2.54.53-5.07.73-7.62l.51-7.65q.27-3.84.52-7.68l.26-3.84c.07-1.28.09-2.56.14-3.85q.26-7.71.52-15.45c.13-2.58,0-5.17.05-7.76s0-5.17,0-7.77,0-5.19,0-7.78l-.3-7.8c-.1-2.61-.2-5.21-.31-7.82l-.15-3.91-.08-2-.14-1.95q-.61-7.83-1.21-15.68l-.31-3.93c-.12-1.31-.3-2.61-.44-3.92q-.43-3.62-.85-7.24s0,.06,0,0h-.08l2-.4c2.66-.56,5.33-1.12,8-1.76a404.14,404.14,0,0,0,61.43-20.35c10-4.11,19.82-8.72,29.61-13.46l7.28-3.68,3.64-1.85,3.6-1.93,7.21-3.87c2.39-1.31,4.75-2.68,7.14-4,38-21.59,74.05-47.63,107.8-77,4.22-3.55,8.3-7.32,12.44-11.06l6.22-5.64,6.11-5.81c4.07-3.91,8.25-7.75,12.24-11.83l6.06-6.07,3-3.05,1.61-1.6a8.65,8.65,0,0,0,.68-.74l.56-.66.71-.87c7.48-9.13,14.47-18.41,21.41-28s13.62-19.42,20.23-29.47c13.12-20.16,25.77-41.23,37.42-63.38l4.35-8.34,1.21-2.34c.34-.65.68-1.29,1-2a7,7,0,0,0,.47-1l.19-1.15.36-2.3.21-1.61c.1-.87.2-1.74.28-2.61a98.42,98.42,0,0,0-.17-21.27,61.08,61.08,0,0,0-2.41-11.31,44.45,44.45,0,0,0-5.6-11.67,32.27,32.27,0,0,0-10.74-9.91A34.85,34.85,0,0,0,2786,24.92a47.61,47.61,0,0,0-12.65.6l-2.94.53c-.94.23-1.86.48-2.79.72l-2.77.75-2.63.89-2.86,1a7,7,0,0,0-1.06.42l-1.07.57-1.18.62-4.25,2.25-8.56,4.49q-17.18,9-34.75,17.86c-23.42,11.85-47.33,23.63-71.78,35-12.22,5.66-24.57,11.21-37.07,16.45a395.44,395.44,0,0,1-37.72,14.06c-3.11.92-6.21,1.76-9.11,2.34l-2.12.38c-.64.08-1.32.19-1.93.25s-1.2.12-1.56.09h-.48s0,0,0,0l0,0h-.33c-1.74-.09-3.42-.25-5.18-.27l-3.39.52c-1.68.26-3.37.5-5.07.73-3.4.47-6.82.91-10.25,1.3-13.71,1.63-27.57,2.68-41.39,3.05a245.31,245.31,0,0,1-32.57-1.16c-2.69-.21-5.22-.71-7.8-1.09l-.26,0h0l-1.81-1-2-1.1c-5.37-2.89-10.75-5.45-16.2-7.84a268.44,268.44,0,0,0-33.1-11.88A264.78,264.78,0,0,0,2353.8,98a252.42,252.42,0,0,0-32.94-2.9,258.79,258.79,0,0,0-31.43,1.28l-7.51.92-1.86.24-1.83.3-3.65.61c-4.86.72-9.55,1.84-14.16,2.8-2.3.49-4.54,1.15-6.78,1.7l-3.32.87-1.65.43-1.61.5-6.36,2c-1,.33-2.1.63-3.11,1l-3,1.07-1.35.48-1.36.49-4,1.45-.5.18-.13,0h0l-.8.25-1.76.52c-2.43.67-4.92,1.32-7.45,1.9-5,1.16-10.15,2.17-15.22,3-10.13,1.69-20.13,2.69-29.49,3.33s-18.13.72-25.9.69l-10.88-.27-9.15-.49c-12.22-.81-24.41-2.22-36.53-4.13l-9.07-1.55c-3-.56-6-1.21-9-1.8l-4.51-.92-4.49-1.06c-3-.71-6-1.38-9-2.13a459.86,459.86,0,0,1-69.77-24.09c-11.28-5-22.38-10.28-33.33-16.14l-33.3-17.75-16.73-8.9-4.18-2.22-2.09-1.12-.87-.46a8.79,8.79,0,0,0-1.08-.5l-1.7-.64c-3.33-1.21-6.56-2.23-9.86-3.16a132.7,132.7,0,0,0-20.3-4.1,85,85,0,0,0-21.85,0,56.42,56.42,0,0,0-11.55,2.84,44.49,44.49,0,0,0-11.26,6A41.1,41.1,0,0,0,1807,48a45.88,45.88,0,0,0-5.64,11.35,59,59,0,0,0-2.57,11.5,83,83,0,0,0-.54,11c.07,3.59.34,7.1.74,10.55,0,.43.09.86.16,1.29l.18,1.35.34,2.36.17,1.17a2.37,2.37,0,0,0,.31,1.11l2.18,3.88,1.22,2.11c6.52,11.11,13.35,21.79,20.41,32.35s14.39,20.87,21.94,31c15.1,20.27,31,39.83,47.94,58.45,8.39,9.36,17.13,18.38,26,27.27s18,17.45,27.42,25.68a554.4,554.4,0,0,0,59.14,45.85l7.84,5.06c2.63,1.66,5.2,3.42,7.9,5l8,4.77,4,2.38,4.1,2.24c5.46,2.95,10.85,6,16.46,8.69l8.32,4.11c2.82,1.39,5.68,2.65,8.47,3.9,11.22,5,22.47,9.58,33.8,13.94l8.9,3.37.78.29,3.08,1.12c4.08,1.48,8,2.93,11.88,4.21,15.27,5.33,28.15,9.08,35.46,11.16,4.38,1.31,8.62,2.28,12.66,3.21s7.89,1.77,11.67,2.32,7.4,1.11,10.93,1.53c1.77.24,3.53.36,5.28.47s3.48.22,5.2.3,3.42.14,5.12.18,3.39.12,5.11,0c3.42-.1,6.83-.26,10.29-.47,1.73-.11,3.47-.22,5.22-.36l5.36-.68q5.4-.71,11.09-1.56l-10.53-3.69-5-1.69-4.8-1.84c-3.17-1.2-6.28-2.33-9.37-3.4-1.55-.5-3.09-1.15-4.63-1.71s-3.1-1.14-4.65-1.69-3.13-1.09-4.72-1.61-3.2-1-4.81-1.62c-3.25-1.13-6.58-2.23-10.07-3.3s-7.09-2.24-10.9-3.38-7.82-2.24-12-3.55c-7-2.07-19.41-5.72-34.2-10.91-3.71-1.24-7.54-2.66-11.5-4.1l-3-1.09-.75-.27-8.64-3.28c-11-4.22-21.92-8.7-32.68-13.48-2.7-1.2-5.34-2.37-7.92-3.64l-7.88-3.9c-5.31-2.5-10.4-5.43-15.57-8.22l-3.87-2.11-3.8-2.26-7.6-4.52c-2.56-1.47-5-3.15-7.5-4.73l-7.46-4.81a533.61,533.61,0,0,1-56.61-43.89c-9-7.92-17.77-16.28-26.42-24.75s-17-17.31-25.1-26.37c-16.36-18-31.84-37-46.49-56.69q-11-14.76-21.29-30.08c-6.82-10.21-13.48-20.61-19.62-31.1l-1.26-2.18v0l-.14-1c0-.35-.09-.69-.13-1-.32-2.78-.52-5.52-.58-8.2a60.72,60.72,0,0,1,.36-7.73,36,36,0,0,1,1.52-6.84,21.76,21.76,0,0,1,2.67-5.47,17.93,17.93,0,0,1,3.87-4,21.42,21.42,0,0,1,5.32-2.81A33.15,33.15,0,0,1,1842.3,53a62.37,62.37,0,0,1,15.79.08,110.4,110.4,0,0,1,16.68,3.39c2.76.77,5.55,1.66,8.13,2.6l.47.17,0,0h0l.17.09,2.08,1.1,4.17,2.22,16.66,8.86L1940,89.39c11.31,6,23,11.61,34.84,16.86a482,482,0,0,0,73.42,25.34c3.14.79,6.31,1.5,9.47,2.25l4.74,1.12,4.77,1c3.18.63,6.36,1.32,9.55,1.9l9.61,1.64c12.83,2,25.76,3.53,38.74,4.39l9.73.51c3.57.11,7.44.22,11.58.29,8.29,0,17.63-.1,27.67-.74s20.76-1.76,31.79-3.59q8.27-1.35,16.74-3.3c2.83-.64,5.67-1.38,8.55-2.18l2.21-.65,1.16-.37.89-.3.48-.17,3.78-1.37,1.29-.46,1.28-.46,2.8-1c.94-.32,1.88-.59,2.82-.88l5.75-1.79,1.46-.45,1.49-.38,3-.78c2-.51,4-1.1,6.12-1.55,4.16-.86,8.39-1.88,12.77-2.52l3.29-.55,1.66-.28,1.68-.21,6.78-.84a237.68,237.68,0,0,1,28.41-1.15,227.36,227.36,0,0,1,29.91,2.64,240.75,240.75,0,0,1,30.53,6.72c2.54.74,5.09,1.48,7.62,2.32s5.06,1.69,7.59,2.57c5,1.83,10,3.78,15,5.93s9.8,4.48,14.45,7l1.72.94.85.48,1.06.61c.61.35,1.22.73,1.84,1.1l.91.57c.16.07.29.22.47.24l.53.08,3.92.63c3,.46,6.13,1,9.14,1.28a268.27,268.27,0,0,0,35.79,1.31c14.75-.4,29.25-1.51,43.57-3.21q5.39-.62,10.73-1.36,2.68-.36,5.37-.77l1.81-.28h0l1,.1,1.28.11.62,0h1.5c1.39,0,2.47-.12,3.67-.21s2.2-.27,3.28-.42l3-.56c4-.79,7.6-1.79,11.17-2.85,14.18-4.28,27.21-9.54,40.13-14.91s25.46-11.06,37.86-16.81c24.81-11.5,48.91-23.37,72.52-35.32q17.7-9,35-18l8.64-4.53,4.3-2.27,1-.51h0l.06,0,1.7-.58c5.12-1.77,10.2-2.72,13.91-2.36a11.36,11.36,0,0,1,4.36,1.28,8.67,8.67,0,0,1,3.08,2.91c1.91,2.77,3.42,7.36,4,12.46a75.39,75.39,0,0,1,.09,16.12l-.21,2-.09.7h0s0,0,0,0l-.93,1.79-4.2,8.08c-11.29,21.47-23.57,41.92-36.32,61.5-6.41,9.76-12.92,19.33-19.62,28.58s-13.53,18.33-20.46,26.79l-.64.78-.13.15h0s0,0,0,0l-1.41,1.41-3,3-5.9,5.9c-3.87,4-7.93,7.69-11.87,11.49l-5.94,5.64-6,5.47c-4,3.62-8,7.28-12.05,10.72-32.7,28.49-67.49,53.62-104,74.34-2.28,1.28-4.55,2.6-6.85,3.86l-6.91,3.7-3.45,1.85-3.48,1.77-7,3.53c-9.35,4.53-18.72,8.94-28.24,12.84a379.87,379.87,0,0,1-57.79,19.17c-2.43.6-4.85,1.11-7.27,1.61l-1.8.37c-1.36.28-2.59.48-3.91.69-2.6.4-5.14.88-7.86,1.15l-8,.94c-.47.22-1.78-.18-1.55.56l.22,1.93.46,3.86,1.8,15.42,1,8.12c.14,1.26.31,2.5.43,3.76l.29,3.76q.57,7.53,1.16,15l.14,1.88.07,1.87.15,3.76c.1,2.5.19,5,.29,7.49s.2,5,.29,7.48,0,5,0,7.48,0,5,0,7.46.08,5,0,7.45q-.24,7.43-.49,14.85c0,1.23-.07,2.47-.14,3.7l-.25,3.69c-.17,2.47-.33,4.93-.5,7.38s-.33,4.92-.49,7.37-.48,4.89-.71,7.34c-.51,4.88-.92,9.76-1.51,14.62s-1.28,9.69-1.92,14.52q-4.22,29-10.7,57.06a743.75,743.75,0,0,1-34.43,108q-10.48,25.88-22.69,50.46-6.06,12.3-12.61,24.16c-1.08,2-2.18,4-3.29,5.9s-2.23,3.9-3.36,5.82c-2.27,3.83-4.53,7.72-6.88,11.16-40.11,60.41-82.44,116.41-126.89,166.91-11.26,12.49-22.14,25.12-33.69,36.88l-8.51,8.92-4.24,4.44-2.12,2.22-2.18,2.15L2129.61,1053c-23.28,22.34-46.91,43.37-71.24,62.26-6.13,4.65-12.14,9.41-18.36,13.74l-4.62,3.31c-1.53,1.11-3.06,2.22-4.63,3.25l-9.31,6.26-4.68,3c-1.56,1-3.12,2-4.66,2.88l-2.31,1.38-.58.34-.53.29-.51.29c-.5.29-.91.48-1.3.76l-5.08,3.47-18.57,12.68c-12.23,8.53-24.68,16.44-36.86,24.45l-9.12,6c-3,2-6.13,3.85-9.18,5.77l-18.22,11.4c-48.45,30-95.82,56.71-141.59,80.62s-90,45-132.18,63.76a2316.64,2316.64,0,0,1-227.73,87.3q-50.07,16.17-92.67,27.59-21.26,5.73-40.55,10.34c-6.43,1.54-12.69,3-18.73,4.28l-2.25.47-1.7.35c-.4.09-.71.23-1.15.37l-.88.29-4.35,1.45-8.52,2.84c-44.69,15-79.23,24-102.47,29.43l-15.26,3.65c-2.17.55-4.2.94-6,1.33l-5,1-8.84,1.85-10.2,2.15c-1.78.36-3.81.84-6.12,1.25l-7.77,1.43-20.73,3.8c-2,.39-4.15.72-6.35,1.06l-6.85,1.08-15.2,2.39c-5.4.91-11.18,1.61-17.32,2.44L990,1549.57c-27.57,3.17-61.29,6.52-102.22,8.37l-15.68.69-16.36.4c-11.14.36-22.75.32-34.82.39-24.15-.12-50.2-.7-78.22-2.27s-58-4.12-90-8.1q-24-2.88-49.37-7.1c-4.24-.68-8.49-1.43-12.78-2.2s-8.59-1.58-12.93-2.4-8.69-1.71-13.05-2.65q-3.27-.69-6.54-1.43l-3.24-.75-1.1-.26-1-.37C518,1519.71,481.4,1506,443.18,1490.24l-7.19-3q-3.63-1.47-7.23-3L414.22,1478l-7.35-3.18c-2.46-1-4.89-2.19-7.35-3.29l-14.84-6.72c-5-2.21-9.93-4.64-14.95-7s-10.06-4.73-15.1-7.21c-10-5-20.3-10-30.48-15.39l-7.69-4-3.87-2-3.84-2.1-15.47-8.46-15.5-8.87-3.91-2.25-3.86-2.32-7.78-4.68c-20.74-12.58-41.55-26.25-62-41.35-2.6-1.84-5.1-3.82-7.65-5.75s-5.11-3.87-7.64-5.86c-5-4-10.12-8-15.06-12.24-2.47-2.11-5-4.15-7.45-6.33l-7.38-6.5c-4.84-4.44-9.72-8.9-14.45-13.56q-14.26-13.92-27.54-29.36c-4.39-5.19-8.73-10.46-13-15.94l-6.51-8.36c-1-1.21-1.9-2.43-2.86-3.64L88.77,1248c-2.14-3.89-4.1-8-6.18-12.11l-2.94-6.35c-1-2.15-1.85-4.34-2.8-6.55-.49-1.11-.91-2.23-1.32-3.35s-.85-2.25-1.27-3.38-.78-2.28-1.16-3.42-.74-2.3-1.12-3.46a81.57,81.57,0,0,1-2.82-13.77c0-1.09-.11-2.17-.18-3.27l.12-3.06.21-1.39a6.78,6.78,0,0,1,.23-1.35,14.11,14.11,0,0,1,.74-2.35l.21-.55a1.37,1.37,0,0,1,.24-.5c.19-.31.36-.62.52-.94a9,9,0,0,1,.64-.85l.3-.43.4-.38a13.48,13.48,0,0,1,4.08-2.89c3.45-1.79,8.49-2.93,14-3.58,2.79-.3,5.65-.54,8.68-.64,1.49-.08,3-.1,4.58-.14l2.35,0,3.81,0H115c.41,0,.81,0,1.22,0l1-.33,2-.68,2-.68c.33-.12.67-.21,1-.35s.58-.4.89-.63a14.33,14.33,0,0,0,2.94-3.19,25.56,25.56,0,0,0,3.29-8.81c.36-1.62.6-3.29.88-5l.39-3c.87-7.24,1.34-14.25,1.75-21.4.78-14.24,1.19-28.8,1.49-43.78.57-30,.65-61.55.52-94.74-.3-66.39-1.42-139.1-3.23-217.22L131,770.3a4,4,0,0,0-.33-1.79l-.6-1.79-1.26-3.8q-1.16-3.42-2.29-6.86c-.79-2.29-1.48-4.6-2.19-6.91s-1.42-4.64-2.14-7-1.37-4.67-2-7-1.31-4.7-2-7S117,723.38,116.4,721s-1.19-4.76-1.79-7.15A388.32,388.32,0,0,1,105.07,655a289,289,0,0,1,1.08-60.71c.34-2.54.67-5.08,1-7.62s.9-5.06,1.36-7.59l.68-3.81c.25-1.26.56-2.51.84-3.77q.85-3.78,1.72-7.56a261.74,261.74,0,0,1,9.45-29.79c1.76-4.94,4-9.73,6.07-14.58l.79-1.82.87-1.79,1.75-3.57,1.76-3.58c.59-1.19,1.15-2.39,1.81-3.55,1.28-2.34,2.57-4.68,3.85-7,.66-1.16,1.26-2.36,2-3.5l2.08-3.45,4.19-6.91,4.48-6.75c2.92-4.57,6.23-8.9,9.41-13.34,1.56-2.23,3.31-4.35,5-6.51l5.09-6.48,5.36-6.31,2.69-3.16,1.34-1.58,1.41-1.54c1.87-2,3.75-4.1,5.62-6.16l2.82-3.09,2.93-3c3.93-4,7.77-8.07,11.9-11.91l6.11-5.86c2-2,4.19-3.81,6.28-5.73l6.33-5.71c2.12-1.89,4.33-3.7,6.5-5.56l6.54-5.56c2.2-1.82,4.47-3.55,6.71-5.33l6.74-5.31,3.37-2.66c.57-.44,1.12-.9,1.7-1.32l1.75-1.26,14-10c2.31-1.73,4.79-3.2,7.2-4.8l7.28-4.71,3.65-2.36c1.22-.79,2.42-1.6,3.69-2.31l7.53-4.39c5-2.91,10-6,15.23-8.57l7.77-4.06,3.9-2,1.94-1c.66-.33,1.33-.63,2-.94l16-7.46c1.32-.65,2.69-1.21,4.05-1.77l4.09-1.69L363,310.7a527.18,527.18,0,0,1,68.11-21.91l17.64-4c1.46-.36,2.95-.63,4.44-.9l4.46-.84,8.94-1.67,4.47-.84c1.49-.28,3-.46,4.51-.7l9-1.34,9-1.34,9.11-1a637.84,637.84,0,0,1,73.77-4.21c24.82,0,49.81,1.17,74.86,3.43s50.11,5.85,75.17,10.18,50.06,9.75,75,15.89c12.49,3,24.89,6.42,37.33,9.78l18.6,5.36c3.1.88,6.19,1.82,9.28,2.78L876,322.2c49.44,15.29,98.34,33.47,146.63,53.62q36.18,15.21,71.91,31.77t70.88,34.51c93.76,47.74,184.6,101.66,271.87,159.33q65.4,43.34,128,89.44c5.2,3.84,10.4,7.68,15.55,11.56l7.75,5.8c2.61,1.94,5.33,3.88,8,5.81l8,5.81,4,2.89,4.13,2.74,8.25,5.47,4.12,2.73c1.38.91,2.74,1.83,4.17,2.66l17,10.21,17.39,9.43c1.43.82,2.94,1.5,4.42,2.22l4.45,2.15,8.9,4.3c.75.35,1.48.72,2.23,1.06l2.28,1,4.55,1.93,9.11,3.86c.76.31,1.51.65,2.27.95l2.33.84,4.64,1.7,9.28,3.38c1.54.6,3.13,1,4.7,1.53l4.72,1.45,9.45,2.89c3.18.85,6.38,1.61,9.57,2.42l4.79,1.19,2.4.59c.79.21,1.59.39,2.4.53l9.69,1.86c3.24.6,6.45,1.31,9.72,1.68a307,307,0,0,0,78.3,1.74c1.62-.11,3.22-.39,4.84-.61l4.82-.68,4.83-.69c1.6-.23,3.21-.45,4.8-.79l9.53-1.88c1.58-.33,3.18-.6,4.75-1l4.7-1.18,9.39-2.36c3.1-.88,6.16-1.85,9.24-2.78,6.19-1.75,12.18-4,18.21-6.17,3-1,6-2.32,8.92-3.51s5.91-2.4,8.83-3.65l8.65-4,4.32-2c1.43-.67,2.82-1.43,4.23-2.14l8.43-4.34c1.42-.7,2.78-1.48,4.15-2.26l4.11-2.32c2.73-1.57,5.5-3,8.18-4.69l8-4.93a472.78,472.78,0,0,0,59.47-44.32A608.44,608.44,0,0,0,2108,648.19c16.11-17.7,31.19-36,45.32-54.62s27.33-37.67,39.73-56.88c3.08-4.82,6.17-9.61,9.15-14.45l3.92-6.35.8-1.32,1.56-2.58,3-5,5.33-9.06c3.23-5.62,5.91-10.26,7.77-13.64a244,244,0,0,0,18.89-41.91A266.26,266.26,0,0,0,2253.31,401.5Z" style="fill:#202020"/><ellipse cx="894.81" cy="720" rx="147" ry="115" style="fill:#dceaea"/><circle cx="926.31" cy="729.5" r="54.5"/><circle cx="936.31" cy="731.5" r="14.5" style="fill:#fff"/><path d="M1007.38,670.25a1.78,1.78,0,0,1-.39-1.54c-.1-3,.34-7.35,2.71-10.73a10,10,0,0,1,2.12-2.39,9.14,9.14,0,0,1,3.17-1.7c2.52-.79,5.88-.87,10.2.31a7.26,7.26,0,0,1,2.09,1.09,148.38,148.38,0,0,1,12.09,19,132.08,132.08,0,0,1,9,20.88c1,3.25,2,6.51,2.69,9.87a105.05,105.05,0,0,1,2.86,25.83l-.17,1.91c0,.62-.12,1.38-.2,2.27s-.3,1.89-.48,3-.39,2.34-.62,3.67-.63,2.71-1,4.2c-.18.74-.38,1.5-.57,2.28s-.39,1.57-.68,2.36c-.55,1.59-1.11,3.24-1.7,4.95l-.45,1.28-.54,1.27-1.13,2.57a53.8,53.8,0,0,1-2.49,5.21l-2.86,5.17c-1.07,1.68-2.19,3.32-3.3,5-.57.82-1.1,1.66-1.69,2.45l-1.85,2.32c-1.24,1.52-2.45,3.05-3.7,4.5l-3.93,4.08-1.92,2c-.64.63-1.34,1.19-2,1.78-2.21,2-4.18,3.82-6.1,5.33s-3.72,2.76-5.33,3.88c-.8.56-1.56,1.09-2.28,1.56l-2.14,1.2c-1.33.72-2.5,1.31-3.52,1.76-4,1.82-5.69,1.49-5.55-.19s2-4.8,4.86-8.67c1.41-2,2.94-4.27,4.73-6.63.44-.6.91-1.18,1.35-1.81l1.29-1.95c.88-1.31,1.8-2.64,2.74-4-.3.2.15-.38.94-1.69s2-3.27,3.54-5.66c2.77-4.92,6.47-11.71,8.68-19,.58-1.79,1-3.64,1.5-5.42.11-.45.26-.88.34-1.34s.17-.9.25-1.34c.16-.89.32-1.77.48-2.63a46.53,46.53,0,0,0,.65-5c.09-.8.17-1.57.25-2.32l0-2.19c0-1.4.12-2.67.07-3.81s-.1-2.13-.14-2.94-.07-1.46-.09-1.89-.08-.68-.08-.68a81.15,81.15,0,0,0-2.22-16.94c-.56-2.61-1.39-5.19-2.18-7.77A116.33,116.33,0,0,0,1007.38,670.25Z" style="fill:#202020"/><path d="M1076.56,753.84a10.85,10.85,0,0,0-1.27,7.16,11.53,11.53,0,0,0,4.49,7.22c.24.17.52.38.86.6s.76.46,1.26.71a14.24,14.24,0,0,0,4.38,1.34,13.46,13.46,0,0,0,5.35-.32,14.3,14.3,0,0,0,5.57-2.9,14.1,14.1,0,0,0,3.26-4.09c.3-.6.51-1.11.66-1.46l.19-.56a10.13,10.13,0,0,0,.49-1.79,13.91,13.91,0,0,0-5.32-13.88,14,14,0,0,0-5.94-2.57,14.28,14.28,0,0,0-3.81-.13,11.49,11.49,0,0,0-7.57,3.88,10.87,10.87,0,0,0-2.6,6.79,13.3,13.3,0,0,1,4.51-4.66,13.92,13.92,0,0,1,6-2.13,10.39,10.39,0,0,1,2.74.11,10.07,10.07,0,0,1,4.27,1.85,10.41,10.41,0,0,1,2.57,2.85A9.85,9.85,0,0,1,1098,759a8.09,8.09,0,0,1-.35,1.3l-.13.4c-.12.25-.27.62-.49,1a10,10,0,0,1-2.35,2.93,10.26,10.26,0,0,1-4,2.08,9.63,9.63,0,0,1-3.84.23,10.66,10.66,0,0,1-3.16-1c-.36-.18-.65-.37-.91-.51l-.61-.43a13.76,13.76,0,0,1-4.09-4.94A13.31,13.31,0,0,1,1076.56,753.84Z" style="fill:#202020"/><path d="M1118.35,746.76a8.54,8.54,0,0,0,4.05,6.09,9,9,0,0,0,3.9,1.3,9.63,9.63,0,0,0,4.82-.79,11,11,0,0,0,5.3-5,11.19,11.19,0,0,0,1.22-4.76c0-.43,0-.84,0-1.22s-.1-.7-.14-1c-.12-.56-.21-.9-.21-.9s-.07-.29-.23-.75a11.39,11.39,0,0,0-.78-1.75,11,11,0,0,0-3.09-3.49,11.1,11.1,0,0,0-6.39-2.12,10.79,10.79,0,0,0-3.91.72,9.51,9.51,0,0,0-4,2.8,9.21,9.21,0,0,0-1.88,3.66,8.61,8.61,0,0,0,1.38,7.19,9.19,9.19,0,0,1,1.29-6.15,9,9,0,0,1,4.58-3.85,7,7,0,0,1,2.51-.45,7.15,7.15,0,0,1,4.1,1.37,7.32,7.32,0,0,1,2,2.23,7.81,7.81,0,0,1,.51,1.13,3.59,3.59,0,0,1,.15.48l.14.58c0,.18.05.4.08.64s0,.5,0,.78a7.41,7.41,0,0,1-.78,3.05,7.15,7.15,0,0,1-2,2.36,6.56,6.56,0,0,1-1.43.86,9,9,0,0,1-6,.46A9.27,9.27,0,0,1,1118.35,746.76Z" style="fill:#202020"/><path d="M1100,731.32a8,8,0,0,0,6-4.27,8.54,8.54,0,0,0,1-4,9.17,9.17,0,0,0-1.39-4.74,10,10,0,0,0-1.67-2,10.16,10.16,0,0,0-4.22-2.38,9.69,9.69,0,0,0-3.18-.38,13.66,13.66,0,0,0-1.44.16l-.58.14-.5.12c-.29.11-.72.23-1.17.43a10.25,10.25,0,0,0-6,7.53,10,10,0,0,0,.09,4,9.06,9.06,0,0,0,2.33,4.37,8.49,8.49,0,0,0,3.53,2.21,8,8,0,0,0,7.24-1.12,8.31,8.31,0,0,1-6-1.47,7.93,7.93,0,0,1-3.26-4.83,6.17,6.17,0,0,1,0-2.49,6.32,6.32,0,0,1,2.09-3.64,6.67,6.67,0,0,1,1.58-1c.28-.13.54-.2.73-.27l.3-.08.36-.09a8.6,8.6,0,0,1,.89-.08,6.29,6.29,0,0,1,2,.23,6.2,6.2,0,0,1,2.61,1.47,5.89,5.89,0,0,1,1,1.25,8,8,0,0,1,1,5.73A8.31,8.31,0,0,1,1100,731.32Z" style="fill:#202020"/><path d="M1494.81,1003s467,241,255,984c0,0-453-79-556-743" style="fill:#e8f9f9"/><path d="M1496.07,1018c-.49-.3-.67-.4-1-1.3-1.36-2.85-2.6-7.13-1.57-11.13a9.83,9.83,0,0,1,3.6-5.65c2.07-1.63,5.1-2.9,9.41-3.5a7.19,7.19,0,0,1,2.27.17c.73.45,14.35,8.34,32.73,21.79l1.74,1.27,1.41,1c3.27,2.45,6.57,4.92,9.81,7.46,13,10.11,25.8,21,38.31,32.58a644.07,644.07,0,0,1,71,77.56c44.38,56.86,81.31,124.24,107.2,198.07,3.36,9.19,6.21,18.58,9.27,27.94q2.08,7.1,4.18,14.2c.68,2.38,1.41,4.74,2.06,7.13s1.26,4.79,1.9,7.19c5.25,19.12,9.44,38.65,13.32,58.33,1.72,9.88,3.66,19.76,5,29.75.73,5,1.54,10,2.22,15l1.86,15.06.93,7.55.73,7.57q.73,7.57,1.46,15.16c.44,5.07.73,10.15,1.1,15.23l.53,7.62.27,3.81.17,3.83c4.19,81.53-1.71,164.44-15.14,245.75-6.7,40.67-15.25,81-25.22,120.7q-1.87,7.46-3.74,14.89c-1.24,5-2.67,9.87-4,14.8l-5,18.41-1,3.64c-.34,1.2-.73,2.33-1.09,3.5l-2.21,7c0,.84-.58.82-1.26.59l-1.81-.33-3.61-.66-3.61-.65-3.65-.73c-1.21-.23-2.43-.5-3.66-.79l-3.67-.86-1.83-.43-1.21-.31-1.91-.48c-2.53-.66-5.06-1.33-7.56-2-5-1.4-10-2.92-14.91-4.47q-14.77-4.74-29.14-10.3a638.68,638.68,0,0,1-108.43-54.76,714.93,714.93,0,0,1-94.47-71.19c-14.49-12.93-28.3-26.36-41.51-40.11-6.65-6.82-13-13.88-19.34-20.85l-9.27-10.64-2.31-2.65-2.24-2.7-4.48-5.39q-2.25-2.68-4.47-5.37c-1.48-1.79-2.9-3.63-4.35-5.44l-8.6-10.89c-5.53-7.38-11.16-14.61-16.39-22.07-10.74-14.72-20.6-29.77-30.14-44.72-37.64-60.17-66-121.18-87.49-178.95-10.77-28.9-19.86-57-27.75-83.94-3.71-13.53-7.53-26.66-10.67-39.57q-1.21-4.82-2.43-9.58c-.81-3.17-1.61-6.32-2.31-9.46q-.36-1.59-.72-3.12c-1-4.36-1.88-8.16-2.6-11.28l-2.26-9.82s-1.33-9.49-2.87-22.32c-.36-3.21-.83-6.61-1.12-10.16s-.62-7.19-.93-10.86-.56-7.36-.8-11-.44-7.14-.49-10.51c-1.08-22.75.49-29.8,3.25-27.85s6.72,12.92,10.45,26.37c-.08-1.46,4.13,14.66,8.33,31.09,2.24,8.18,4.51,16.44,6.21,22.66.86,3.11,1.57,5.7,2.07,7.52s.84,2.85.84,2.85.8,3.45,2.19,9.5q.52,2.28,1.16,5l.66,2.84c.11.49.23,1,.35,1.51.17.77.35,1.55.54,2.33.34,1.44.64,2.89,1,4.33.74,2.88,1.47,5.79,2.22,8.71a1149,1149,0,0,0,49.91,154.29c11.18,27.52,24,55.71,38.77,84.09a861,861,0,0,0,50.52,85.1l7.2,10.56c2.45,3.5,5,7,7.48,10.46l3.77,5.25c1.25,1.76,2.59,3.46,3.88,5.19l7.84,10.4c10.73,13.72,21.87,27.39,33.72,40.7s24.28,26.34,37.28,39,26.69,24.94,40.9,36.77a673.11,673.11,0,0,0,92.13,64.55c32.89,19.05,67.87,35.6,104.43,48,9.13,3.11,18.36,5.93,27.63,8.38l3.91,1,.44-1.59q2-7.15,3.92-14.33l2-7.17,1.81-7.21,3.63-14.44,1.81-7.23c.61-2.41,1.23-4.82,1.76-7.24q3.32-14.55,6.64-29.11,3-14.62,6-29.27l.75-3.66.66-3.68,1.34-7.36,2.67-14.72c.94-4.9,1.67-9.83,2.45-14.75l2.33-14.78c5.94-39.45,10.08-79.16,12.07-118.82a989.23,989.23,0,0,0-.94-118.35c-.35-4.89-.65-9.78-1-14.65s-.93-9.72-1.4-14.58l-.7-7.28c-.25-2.42-.59-4.84-.87-7.25q-.9-7.24-1.79-14.47c-.27-2.42-.67-4.81-1-7.21l-1.09-7.18-1.08-7.18-.55-3.58-.63-3.56q-1.27-7.14-2.55-14.24l-.63-3.55-.72-3.54q-.74-3.52-1.46-7c-3.76-18.82-8.46-37.33-13.55-55.56q-2-6.83-4-13.61c-1.33-4.52-2.86-9-4.28-13.46l-2.16-6.7c-.74-2.22-1.55-4.42-2.31-6.63q-2.36-6.62-4.68-13.21-9.77-26.21-21.21-51.22t-24.75-48.44l-6.68-11.65-6.91-11.42c-1.14-1.91-2.33-3.78-3.53-5.64l-3.57-5.59c-1.2-1.85-2.35-3.73-3.59-5.55l-3.68-5.47q-14.71-21.84-30.73-41.94a618.72,618.72,0,0,0-68.21-72.71c-12-10.79-24.15-20.94-36.52-30.33l-5.48-4.11-.83-.61-1.63-1.18C1509.14,1025.59,1496.69,1018.41,1496.07,1018Z" style="fill:#202020"/><path d="M1499.81,1056s38,38,11,84c0,0,314,233,229,795.58h0S1912.81,1310,1499.81,1056Z" style="fill:#dceaea"/><path d="M1193.81,1244s24.45,58.65,58.73,50.82c0,0,34.27,379.18,487.27,690.18C1739.81,1985,1290.81,1878,1193.81,1244Z" style="fill:#dceaea"/><path d="M1749.81,1990c-3.62-3.7-7-7-10.24-10.2s-6.55-6-9.89-9c-6.71-6-14.23-11.47-24-18.27-2.65-1.84-6.68-4.51-11.59-8l-8-5.69-5.66-4-3.17-2.25-3.17-2.35-13.1-9.71c-17.74-13.46-36.68-28.63-55.56-45s-37.74-33.83-55.46-51.64-34.44-35.81-49.34-52.93-28.08-33.29-38.88-47.31c-2.76-3.47-5.25-6.89-7.69-10.08s-4.73-6.21-6.82-9.09c-4.18-5.76-7.87-10.72-10.79-14.86-5.84-8.29-9.12-13-9.12-13l-8.91-13.11c-2.79-4.23-6.18-9.39-10.09-15.34l-6.09-9.61c-1.08-1.69-2.18-3.44-3.31-5.22l-3.39-5.54c-9.29-15.07-19.84-33.06-30.63-53s-21.84-41.92-32.37-64.75-20.45-46.55-29.28-69.92c-4.41-11.68-8.62-23.26-12.45-34.59-1.91-5.68-3.8-11.27-5.55-16.79-.89-2.76-1.77-5.49-2.6-8.21q-1.18-3.83-2.34-7.59c-4.56-15-7.93-27.47-9.59-33.69a279,279,0,0,0-9.1-28.68c-3.17-8.34-6.77-16.1-10.83-25.57a176.63,176.63,0,0,0-.34,28,167.75,167.75,0,0,0,5.17,30.17c1.64,6.34,5,19,9.65,34.29q1.18,3.81,2.38,7.71c.84,2.76,1.74,5.54,2.64,8.34,1.78,5.61,3.69,11.28,5.63,17,3.89,11.51,8.16,23.25,12.63,35.11,9,23.7,19.1,47.74,29.72,70.9s21.89,45.4,32.85,65.65,21.66,38.5,31.09,53.79l3.44,5.61,3.36,5.29,6.18,9.74,10.25,15.56,9,13.29,9.24,13.16c3,4.2,6.7,9.23,10.94,15.08,2.12,2.93,4.48,6,6.92,9.23s5,6.71,7.79,10.23c11,14.24,24.33,30.63,39.43,48s32,35.69,50,53.74,37.1,35.83,56.27,52.42,38.39,32,56.4,45.64l13.29,9.85,3.22,2.38,3.22,2.28,5.74,4.08,8.13,5.74c5,3.48,9.1,6.17,11.8,8a176.83,176.83,0,0,0,26.59,15c4.08,1.91,8.26,3.44,12.56,5S1744.91,1988.44,1749.81,1990Z" style="fill:#202020"/><path d="M1240.59,1489.55a3,3,0,0,1,2.53.18c4.61,1.36,10.69,4.37,14,9.65s3.94,12.95-3.31,23.59a10.41,10.41,0,0,1-2.42,2.32q-15.15,4.56-30.3,8.61t-30.38,7.81c-25.85,6.36-51.84,12-77.93,17s-52.32,9.45-78.63,13.22a1577,1577,0,0,1-158.8,14.78c-26.59,1.09-53.22,1.6-79.86,1.15s-53.28-1.56-79.88-3.49-53.15-4.93-79.61-8.63l-19.81-3c-6.6-1-13.17-2.27-19.76-3.4-3.29-.59-6.58-1.12-9.87-1.76l-9.83-2-9.83-2-4.92-1-4.9-1.1-19.57-4.44c-6.5-1.57-13-3.28-19.47-4.92-3.24-.84-6.5-1.6-9.72-2.52l-9.66-2.74-9.67-2.74-4.83-1.37-4.8-1.51-19.18-6c-1.6-.48-3.19-1-4.77-1.58l-4.75-1.65-9.5-3.29c-3.17-1.11-6.34-2.18-9.5-3.32l-9.4-3.58-9.41-3.58c-3.13-1.2-6.28-2.35-9.36-3.68l-18.59-7.75c-1.54-.66-3.11-1.26-4.63-2l-4.59-2.08-9.17-4.17-9.17-4.17c-3-1.4-6-3-9-4.43l-18.05-9-17.76-9.55-4.44-2.39-2.22-1.2-2.18-1.27-8.71-5.08-8.71-5.09-4.35-2.54c-1.45-.86-2.85-1.78-4.28-2.67l-17.06-10.78c-1.41-.92-2.86-1.77-4.24-2.73l-4.17-2.85-8.33-5.69c-5.54-3.81-11.15-7.53-16.5-11.61l-16.23-12c-1.37-1-2.67-2-4-3.09l-4-3.15-7.88-6.3-7.89-6.3c-2.6-2.13-5.11-4.38-7.67-6.56l-15.28-13.19c-5-4.54-9.86-9.16-14.79-13.73l-7.38-6.88c-2.42-2.34-4.75-4.76-7.14-7.13l-11.17-11.26c-2.19-2.21-4.41-4.39-6.47-6.71l-12.61-13.72-1.62-2c-1-1.31-2.57-3.19-4.43-5.6-3.6-4.93-8.63-11.85-14.32-19.83-1.41-2-2.91-4-4.36-6.18l-4.32-6.67c-2.93-4.53-5.92-9.21-8.89-13.93-1.46-2.36-3-4.69-4.38-7.1l-4.08-7.23c-2.67-4.78-5.23-9.47-7.6-14l-3-5.39c-1-1.7-1.73-3.43-2.53-5q-2.32-4.83-4.07-8.78a109.6,109.6,0,0,1-4.87-12.61c-1.89-6.32-1.15-8.74,1.32-8.23s6.8,3.86,12.13,9.08c2.66,2.62,5.58,5.69,8.67,9.11,1.55,1.69,3.09,3.52,4.77,5.33s3.41,3.69,5.15,5.61c-.85-2,14.68,17.25,31.79,35.69,4.12,4.75,8.6,9.22,12.71,13.49l11.29,11.69c1.63,1.74,3.24,3.23,4.64,4.57l3.62,3.49,3.17,3c3.95,4.27,7.85,8.61,11.86,12.84l6.16,6.19,7,7.07,6.66,6.71,6.92,6.45,13.83,12.89,14.31,12.37,7.15,6.18c2.42,2,4.92,3.94,7.37,5.92l14.77,11.8c5,3.79,10.13,7.51,15.19,11.26l7.61,5.63,7.8,5.34,15.62,10.66,16,10.11c2.68,1.66,5.3,3.41,8,5l8.18,4.76,8.17,4.77c2.74,1.57,5.41,3.24,8.22,4.69l16.67,9,4.17,2.24c1.4.73,2.82,1.41,4.23,2.12l8.49,4.2c11.23,5.76,22.82,10.81,34.31,16.07,5.78,2.54,11.65,4.89,17.47,7.34l8.75,3.65,8.87,3.37c23.53,9.26,47.64,17.07,71.93,24.24l18.28,5.18,18.42,4.69c6.13,1.63,12.33,3,18.51,4.38s12.35,2.89,18.59,4.06a1119,1119,0,0,0,151,20.42c25.39,1.82,50.86,2.67,76.34,2.92s51-.18,76.48-1.4a1591,1591,0,0,0,302.79-43.81q14.85-3.63,29.56-7.6C1221.17,1495.22,1230.94,1492.46,1240.59,1489.55Z" style="fill:#202020"/><path d="M108.26,1158.09a1.13,1.13,0,0,1,.85.32,7.73,7.73,0,0,1,3.51,4.65c.34,2.06-.53,4.41-3.68,7a3,3,0,0,1-.93.48,102.79,102.79,0,0,0-19.34,1.4l-1.08.15a61.89,61.89,0,0,0-10.07,2.74l-.72.2-2,.64c-.85.25-1.77.69-2.88,1.1-.53.23-1.06.5-1.64.77l-.89.42-.86.5a25.49,25.49,0,0,0-6.8,5.43,23.83,23.83,0,0,0-4.45,8c-.18.61-.39,1.19-.53,1.76s-.23,1.14-.34,1.67-.24,1-.33,1.54-.12,1-.17,1.42c-.11.89-.27,1.7-.36,2.41s-.13,1.34-.22,1.87c-.36,2.14-.86,2.83-1.56,2.35s-1.56-2.13-2.32-4.68c-.17-.64-.32-1.34-.48-2.08a13.59,13.59,0,0,1-.36-2.39c-.07-.85-.13-1.74-.17-2.67s.09-1.89.15-2.88c-.07.19-.06-.25,0-1.18s.43-2.34.92-4.06a30,30,0,0,1,6.89-11.71,43.22,43.22,0,0,1,10.91-8.1c1.63-.79,3-1.5,4-1.88l1.53-.64a78.65,78.65,0,0,1,10.39-2.7l1.23-.22A114.67,114.67,0,0,1,108.26,1158.09Z" style="fill:#202020"/></svg>