<svg class="icon" xmlns="http://www.w3.org/2000/svg" viewBox="0 0 48 48">
  <path fill="var(--theme-color-max-contrast)" d="M24,13.09A10.91,10.91,0,1,0,34.91,24,10.92,10.92,0,0,0,24,13.09Z"/>
  <path fill="var(--theme-color-max-contrast)" d="M24,10a2.6,2.6,0,0,0,2.61-2.61c0-1.42-1.14-5.88-2.61-5.88s-2.61,4.41-2.61,5.88A2.57,2.57,0,0,0,24,10Z"/>
  <path fill="var(--theme-color-max-contrast)" d="M14.09,14.09a2.58,2.58,0,0,0,0-3.7c-1.05-1-5-3.32-6-2.28s1.28,5,2.28,6A2.68,2.68,0,0,0,14.09,14.09Z"/>
  <path fill="var(--theme-color-max-contrast)" d="M10,24a2.6,2.6,0,0,0-2.61-2.61c-1.42,0-5.88,1.14-5.88,2.61s4.41,2.61,5.88,2.61A2.57,2.57,0,0,0,10,24Z"/>
  <path fill="var(--theme-color-max-contrast)" d="M10.39,33.91c-1.05,1.05-3.32,5-2.28,6s5-1.28,6-2.28a2.57,2.57,0,0,0,0-3.7A2.67,2.67,0,0,0,10.39,33.91Z"/>
  <path fill="var(--theme-color-max-contrast)" d="M24,38a2.6,2.6,0,0,0-2.61,2.61c0,1.42,1.19,5.88,2.61,5.88s2.61-4.41,2.61-5.88A2.57,2.57,0,0,0,24,38Z"/>
  <path fill="var(--theme-color-max-contrast)" d="M33.91,33.91a2.58,2.58,0,0,0,0,3.7c1.05,1,5,3.32,6,2.28s-1.28-5-2.28-6A2.64,2.64,0,0,0,33.91,33.91Z"/>
  <path fill="var(--theme-color-max-contrast)" d="M40.65,21.39a2.61,2.61,0,0,0,0,5.22c1.47,0,5.88-1.19,5.88-2.61S42.12,21.39,40.65,21.39Z"/>
  <path fill="var(--theme-color-max-contrast)" d="M37.61,14.09c1-1.05,3.32-5,2.28-6s-5,1.28-6,2.28a2.65,2.65,0,0,0,3.74,3.75Z"/>
</svg>