<svg id="Layer_1" data-name="Layer 1" xmlns="http://www.w3.org/2000/svg" viewBox="0 0 48 48"><path d="M24,2A22,22,0,1,0,46,24,22,22,0,0,0,24,2ZM25,31.75l-2.62,2.63a5.85,5.85,0,0,1-8.27,0l-.43-.44a5.83,5.83,0,0,1,0-8.27l4.19-4.2a5.86,5.86,0,0,1,8.27,0l.44.44a6.62,6.62,0,0,1,.59.7A1.21,1.21,0,1,1,25.17,24a4.47,4.47,0,0,0-.35-.41l-.44-.44a3.49,3.49,0,0,0-3-1,3.44,3.44,0,0,0-1.87,1l-4.2,4.2a3.44,3.44,0,0,0-1,2.43,3.41,3.41,0,0,0,1,2.42l.43.44a3.45,3.45,0,0,0,4.85,0L23.24,30A1.21,1.21,0,0,1,25,30,1.2,1.2,0,0,1,25,31.75Zm9.43-9.42-4.2,4.2A5.83,5.83,0,0,1,27,28.16a6,6,0,0,1-.94.08,5.88,5.88,0,0,1-4.14-1.71l-.43-.44a5.69,5.69,0,0,1-.6-.7,1.21,1.21,0,0,1,.27-1.69,1.2,1.2,0,0,1,1.68.27,4.59,4.59,0,0,0,.36.41l.43.44a3.45,3.45,0,0,0,3,.95,3.36,3.36,0,0,0,1.87-.95l4.2-4.2a3.45,3.45,0,0,0,0-4.85l-.44-.44a3.45,3.45,0,0,0-4.85,0L24.76,18a1.21,1.21,0,0,1-1.71-1.71l2.62-2.63a5.85,5.85,0,0,1,8.27,0l.44.44A5.85,5.85,0,0,1,34.38,22.33Z"/></svg>