<svg id="Layer_1" data-name="Layer 1" xmlns="http://www.w3.org/2000/svg" viewBox="0 0 48 48"><defs><style>.cls-1{fill:#fff;}</style></defs><circle cx="24" cy="24" r="22"/><path class="cls-1" d="M26.23,16.5a1,1,0,0,1-1.4-1.4l1.42-1.43a5.71,5.71,0,0,1,8.08,8.08l-5.62,5.62a5.72,5.72,0,0,1-8.08,0A1,1,0,0,1,22,26a3.74,3.74,0,0,0,5.27,0l5.62-5.62a3.73,3.73,0,1,0-5.27-5.27Z"/><path class="cls-1" d="M21.77,31.5a1,1,0,0,1,1.4,1.4l-1.42,1.43a5.71,5.71,0,0,1-8.08-8.08l5.62-5.62a5.72,5.72,0,0,1,8.08,0A1,1,0,0,1,26,22a3.74,3.74,0,0,0-5.27,0l-5.62,5.62a3.73,3.73,0,0,0,5.27,5.27Z"/></svg>