<svg class="icon" xmlns="http://www.w3.org/2000/svg" viewBox="0 0 48 48">
  <path fill="var(--theme-color-accent-primary)" d="M24,2A22,22,0,1,0,46,24,22,22,0,0,0,24,2Zm-.83,30.9-1.42,1.43a5.71,5.71,0,0,1-8.08-8.08l5.62-5.62a5.72,5.72,0,0,1,8.08,0A1,1,0,0,1,26,22a3.74,3.74,0,0,0-5.27,0l-5.62,5.62a3.73,3.73,0,0,0,5.27,5.27l1.42-1.42a1,1,0,0,1,1.4,1.4ZM34.33,21.75l-5.62,5.62a5.72,5.72,0,0,1-8.08,0A1,1,0,0,1,22,26a3.74,3.74,0,0,0,5.27,0l5.62-5.62a3.73,3.73,0,1,0-5.27-5.27L26.23,16.5a1,1,0,0,1-1.4-1.4l1.42-1.43a5.71,5.71,0,0,1,8.08,8.08Z"/>
</svg>
