<svg id="Layer_1" data-name="Layer 1" xmlns="http://www.w3.org/2000/svg" viewBox="0 0 48 48"><defs><style>.cls-1{fill:#fff;}</style></defs><circle cx="24" cy="24" r="22"/><path class="cls-1" d="M34.91,11.93H27.22a1.12,1.12,0,1,0,0,2.23h5.12l-11,11a1.11,1.11,0,0,0,0,1.58,1.14,1.14,0,0,0,1.58,0L33.79,15.86v4.87a1.12,1.12,0,0,0,2.24,0V13A1.12,1.12,0,0,0,34.91,11.93Z"/><path class="cls-1" d="M31.05,23.17a1.12,1.12,0,0,0-1.12,1.12V33.1a.75.75,0,0,1-.74.74H15a.75.75,0,0,1-.74-.74V18.86a.75.75,0,0,1,.74-.74h8.84a1.12,1.12,0,1,0,0-2.24H15a3,3,0,0,0-3,3V33.1a3,3,0,0,0,3,3H29.19a3,3,0,0,0,3-3V24.29A1.12,1.12,0,0,0,31.05,23.17Z"/></svg>